SplineFontDB: 3.2
FontName: Domitian-BoldItalic
FullName: Domitian Bold Italic
FamilyName: Domitian
Weight: Bold
Copyright: Copyright (c) 2014, 2015 by (URW)++ Design & Development\nCopyright (c) 2019, 2020 by Daniel Benjamin Miller
Version: 1.0.1
ItalicAngle: -10
UnderlinePosition: -100
UnderlineWidth: 50
Ascent: 726
Descent: 274
InvalidEm: 0
sfntRevision: 0x00010000
LayerCount: 2
Layer: 0 0 "Back" 1
Layer: 1 0 "Fore" 0
XUID: [1021 165 2128061049 15359052]
UniqueID: 4108154
StyleMap: 0x0021
FSType: 0
OS2Version: 3
OS2_WeightWidthSlopeOnly: 0
OS2_UseTypoMetrics: 0
CreationTime: 1464719619
ModificationTime: 1585940684
PfmFamily: 17
TTFWeight: 700
TTFWidth: 5
LineGap: 200
VLineGap: 0
Panose: 2 4 7 2 5 5 5 10 2 4
OS2TypoAscent: 726
OS2TypoAOffset: 0
OS2TypoDescent: -274
OS2TypoDOffset: 0
OS2TypoLinegap: 200
OS2WinAscent: 926
OS2WinAOffset: 0
OS2WinDescent: 271
OS2WinDOffset: 0
HheadAscent: 726
HheadAOffset: 0
HheadDescent: -274
HheadDOffset: 0
OS2SubXSize: 650
OS2SubYSize: 600
OS2SubXOff: -13
OS2SubYOff: 75
OS2SupXSize: 650
OS2SupYSize: 600
OS2SupXOff: 62
OS2SupYOff: 350
OS2StrikeYSize: 50
OS2StrikeYPos: 269
OS2CapHeight: 689
OS2XHeight: 449
OS2Vendor: 'XDBM'
OS2CodePages: 6000009f.00000000
OS2UnicodeRanges: 00000287.00000800.00000000.00000000
Lookup: 1 0 0 "'aalt' Access All Alternates lookup 0" { "'aalt' Access All Alternates lookup 0 subtable"  } ['aalt' ('DFLT' <'dflt' > 'cyrl' <'dflt' > 'grek' <'dflt' > 'latn' <'AZE ' 'CRT ' 'DEU ' 'MOL ' 'ROM ' 'SRB ' 'TRK ' 'dflt' > ) ]
Lookup: 3 0 0 "'aalt' Access All Alternates lookup 1" { "'aalt' Access All Alternates lookup 1 subtable"  } ['aalt' ('DFLT' <'dflt' > 'cyrl' <'dflt' > 'grek' <'dflt' > 'latn' <'AZE ' 'CRT ' 'DEU ' 'MOL ' 'ROM ' 'SRB ' 'TRK ' 'dflt' > ) ]
Lookup: 1 0 0 "'locl' Localized Forms in Latin lookup 2" { "'locl' Localized Forms in Latin lookup 2 subtable"  } ['locl' ('latn' <'MOL ' 'ROM ' > ) ]

StartChar: zero.onum
Encoding: 854 -1 0
Width: 500
Flags: W
HStem: -12 37<181.808 264.666> 438 41<244.713 332.895>
VStem: 43 107<80.7268 293.605> 362 106<173.135 380.502>
LayerCount: 2
Fore
SplineSet
294 479 m 4
 400.254274065 479 468 398.01660348 468 271 c 4
 468 117.490973111 361.844855966 -12 236 -12 c 0
 112.853348047 -12 43 59.6630202758 43 186 c 0
 43 361.073032899 144.022760213 479 294 479 c 4
222 25 m 0
 292.439055975 25 362 169.587390796 362 316 c 0
 362 393.168122592 335.174368436 438 289 438 c 0
 216.237463296 438 150 300.283259766 150 149 c 0
 150 73.4360351562 178.124149446 25 222 25 c 0
EndSplineSet
EndChar

StartChar: exclam
Encoding: 1 33 2
Width: 333
Flags: W
HStem: -17 152<82.7769 172.294> 675 20G<222.414 322>
VStem: 58 139<7.875 110.074>
LayerCount: 2
Fore
SplineSet
179 218 m 1
 140 194 l 1
 127 203 l 1
 170 633 l 1
 170 666 l 1
 183 666 l 1
 310 695 l 1
 322 686 l 1
 212 340 l 2
 201 305 192 273 179 218 c 1
135 135 m 0
 173 135 197 111 197 71 c 0
 197 20 166 -17 123 -17 c 0
 84 -17 58 9 58 49 c 0
 58 99 90 135 135 135 c 0
EndSplineSet
EndChar

StartChar: quotedbl
Encoding: 2 34 3
Width: 500
Flags: W
HStem: 467 253
LayerCount: 2
Fore
SplineSet
171 467 m 1
 137 467 l 1
 207 677 l 2
 216 705 234 720 257 720 c 0
 284 720 303 701 303 675 c 0
 303 662 299 647 293 639 c 2
 171 467 l 1
361 467 m 1
 327 467 l 1
 397 677 l 2
 406 705 424 720 447 720 c 0
 474 720 493 701 493 675 c 0
 493 662 489 647 483 639 c 2
 361 467 l 1
EndSplineSet
EndChar

StartChar: numbersign
Encoding: 3 35 4
Width: 500
Flags: W
HStem: 0 21G<75 152.977 258 335.977> 215 75<4 107 194 290 376 470> 397 75<32 135 221 317 403 496>
LayerCount: 2
Fore
SplineSet
470 290 m 1
 470 215 l 1
 365 215 l 1
 333 0 l 1
 258 0 l 1
 290 215 l 1
 182 215 l 1
 150 0 l 1
 75 0 l 1
 107 215 l 1
 4 215 l 1
 4 290 l 1
 119 290 l 1
 135 397 l 1
 32 397 l 1
 32 472 l 1
 146 472 l 1
 176 673 l 1
 251 673 l 1
 221 472 l 1
 328 472 l 1
 357 673 l 1
 432 673 l 1
 403 472 l 1
 496 472 l 1
 496 397 l 1
 392 397 l 1
 376 290 l 1
 470 290 l 1
317 397 m 1
 210 397 l 1
 194 290 l 1
 301 290 l 1
 317 397 l 1
EndSplineSet
EndChar

StartChar: dollar
Encoding: 4 36 5
Width: 500
Flags: W
HStem: -7 48<123.655 174 223 303.329> 620 49<212.884 287>
VStem: 46 34<79.4949 183> 69 88<434.64 533.27> 361 99<136.921 237.749> 420 30<495 585.223>
LayerCount: 2
Fore
SplineSet
46 183 m 1xe8
 80 183 l 1xe8
 77 123 l 2
 77 93 79 89 98 77 c 0
 127 59 143 53 183 41 c 1
 227 285 l 1
 118 304 69 351 69 439 c 0
 69 515 107 584 172 626 c 0
 208 649 236 659 295 669 c 1
 306 737 l 1
 344 737 l 1
 334 672 l 1
 382 671 408 665 456 640 c 0
 469 634 470 633 477 630 c 1
 466 597 459 563 450 495 c 1
 420 495 l 1
 420 566 l 1xd4
 416 588 377 610 326 620 c 1
 286 389 l 1
 361 373 397 358 424 329 c 0
 448 304 460 269 460 228 c 0
 460 148 413 74 334 28 c 0
 296 6 269 -2 215 -8 c 1
 198 -108 l 1
 155 -108 l 1
 174 -7 l 1
 90 5 58 15 20 40 c 1
 34 87 40 121 46 183 c 1xe8
265 275 m 1
 223 39 l 1
 255 39 272 43 294 56 c 0
 335 79 361 124 361 174 c 0
 361 229 335 256 265 275 c 1
247 399 m 1
 287 620 l 1
 255 618 238 614 218 602 c 0
 181 580 157 535 157 490 c 0xd0
 157 445 184 417 247 399 c 1
EndSplineSet
EndChar

StartChar: percent
Encoding: 5 37 6
Width: 889
Flags: W
HStem: -17 21G<176 241.381> -4 28<574.092 640.692> 290 28<615.4 683.257> 350 28<162.092 228.692> 644 28<203.735 271.48>
VStem: 56 86<409.978 565.413> 292 86<457.584 611.704> 468 86<55.9783 211.413> 704 86<103.584 257.704>
LayerCount: 2
Fore
SplineSet
245 672 m 0x3f80
 326 672 378 615 378 525 c 0
 378 422 304 350 198 350 c 0
 109 350 56 405 56 498 c 0
 56 601 132 672 245 672 c 0x3f80
239 644 m 0
 216 644 196 630 179 600 c 0
 159 566 142 495 142 446 c 0
 142 406 164 378 195 378 c 0
 218 378 239 393 255 422 c 0
 276 459 292 526 292 576 c 0
 292 616 270 644 239 644 c 0
656 318 m 0
 739 318 790 261 790 171 c 0
 790 68 716 -4 610 -4 c 0x7f80
 521 -4 468 51 468 144 c 0
 468 247 544 318 656 318 c 0
651 290 m 0
 628 290 608 276 591 246 c 0
 571 212 554 141 554 92 c 0
 554 52 576 24 607 24 c 0
 630 24 651 39 667 68 c 0
 688 105 704 172 704 222 c 0
 704 262 682 290 651 290 c 0
229 -17 m 1xbf80
 176 -17 l 1
 620 697 l 1
 671 697 l 1
 229 -17 l 1xbf80
EndSplineSet
Ligature2: "'frac' Diagonal Fractions lookup 6 subtable" zerosuperior fraction zerosuperior
Ligature2: "'frac' Diagonal Fractions lookup 6 subtable" zerosuperior slash zerosuperior
Ligature2: "'frac' Diagonal Fractions lookup 6 subtable" zero fraction zero
Ligature2: "'frac' Diagonal Fractions lookup 6 subtable" zero slash zero
EndChar

StartChar: ampersand
Encoding: 6 38 7
Width: 833
Flags: W
HStem: -17 53<282.205 457.491> 371 53<325.211 407.037> 640 55<343.069 473.752>
VStem: 74 117<120.801 260.304> 184 98<463.866 563.682> 403 24<199 214> 501 30<539 609.375> 587 91<139.399 253.942> 773 38<411.676 491.343>
LayerCount: 2
Fore
SplineSet
531 539 m 1xef80
 501 539 l 1
 501 599 l 1
 464 629 435 640 397 640 c 0
 330 640 282 592 282 526 c 0xef80
 282 467 329 424 393 424 c 0
 398 424 398 424 420 425 c 1
 406 368 l 1
 398 370 392 371 380 371 c 0
 267 371 191 303 191 203 c 0
 191 102 268 36 385 36 c 0
 501 36 587 104 587 195 c 0
 587 245 554 278 502 278 c 0
 464 278 443 259 431 214 c 2
 427 199 l 1
 403 199 l 1
 413 304 l 1
 434 328 488 353 537 360 c 2
 657 378 l 2
 740 391 773 412 773 454 c 0
 773 476 762 491 737 501 c 1
 751 526 l 1
 794 506 811 481 811 439 c 0
 811 373 768 325 695 312 c 2
 615 297 l 1
 656 287 678 261 678 220 c 0
 678 160 645 105 584 63 c 0
 515 14 409 -17 314 -17 c 0
 166 -17 74 56 74 174 c 0xf780
 74 225 92 269 128 304 c 0
 166 341 199 359 280 386 c 1
 218 396 184 434 184 492 c 0
 184 542 212 586 275 633 c 0
 334 676 383 695 438 695 c 0
 482 695 516 687 552 667 c 1
 537 610 532 580 531 539 c 1xef80
EndSplineSet
EndChar

StartChar: quoteright
Encoding: 572 8217 8
Width: 278
Flags: W
HStem: 431 289
VStem: 76 226
LayerCount: 2
Fore
SplineSet
288 720 m 1
 302 706 l 1
 242 591 199 524 142 459 c 1
 92 431 l 1
 76 442 l 1
 123 522 151 599 167 689 c 1
 194 691 197 692 252 709 c 2
 288 720 l 1
EndSplineSet
EndChar

StartChar: parenleft
Encoding: 8 40 9
Width: 333
Flags: W
HStem: 703 20G<320.667 363.2>
VStem: 58 110<114.716 371.728>
LayerCount: 2
Fore
SplineSet
344 723 m 1
 368 698 l 1
 276 597 241 540 206 430 c 0
 180 351 168 272 168 185 c 0
 168 61 188 -10 252 -108 c 1
 226 -129 l 1
 165 -52 140 -15 114 33 c 0
 76 105 58 177 58 251 c 0
 58 397 130 540 260 651 c 2
 344 723 l 1
EndSplineSet
EndChar

StartChar: parenright
Encoding: 9 41 10
Width: 333
Flags: W
HStem: 703 20G<105.238 160.5>
VStem: 188 110<222.087 479.257>
LayerCount: 2
Fore
SplineSet
12 -129 m 1
 -12 -104 l 1
 80 -3 115 54 150 164 c 0
 176 243 188 322 188 409 c 0
 188 533 168 604 104 702 c 1
 130 723 l 1
 191 646 216 609 242 561 c 0
 280 489 298 417 298 342 c 0
 298 197 226 54 96 -57 c 2
 12 -129 l 1
EndSplineSet
EndChar

StartChar: asterisk
Encoding: 10 42 11
Width: 444
Flags: W
HStem: 576 84<117 150.887> 675 20G<259 283>
LayerCount: 2
Fore
SplineSet
359 673 m 1
 364 659 l 1
 340 635 309 587 282 532 c 1
 304 537 313 538 327 541 c 0
 384 551 404 556 423 563 c 1
 429 560 l 1
 428 551 428 545 428 540 c 0
 428 520 431 500 439 473 c 1
 430 462 l 1
 386 480 338 490 276 496 c 1
 323 417 329 409 356 378 c 1
 354 366 l 1
 333 362 300 349 269 332 c 1
 254 339 l 1
 254 398 251 434 243 484 c 1
 211 461 171 420 142 379 c 1
 123 387 l 1
 114 413 99 440 84 457 c 1
 88 464 l 1
 131 475 176 492 225 517 c 1
 191 540 143 560 87 576 c 1
 84 583 l 1
 107 620 117 638 128 660 c 1
 144 660 l 1
 174 625 190 606 246 546 c 1
 256 597 259 633 259 688 c 1
 267 695 l 1
 299 683 321 678 359 673 c 1
EndSplineSet
EndChar

StartChar: plus
Encoding: 11 43 12
Width: 606
Flags: W
HStem: 0 21G<260 346> 212 86<51 260 346 555>
VStem: 260 86<0 212 298 505>
LayerCount: 2
Fore
SplineSet
260 298 m 1
 260 505 l 1
 346 505 l 1
 346 298 l 1
 555 298 l 1
 555 212 l 1
 346 212 l 1
 346 0 l 1
 260 0 l 1
 260 212 l 1
 51 212 l 1
 51 298 l 1
 260 298 l 1
EndSplineSet
EndChar

StartChar: comma
Encoding: 12 44 13
Width: 250
Flags: W
HStem: -164 311
VStem: -33 241
LayerCount: 2
Fore
SplineSet
-33 -150 m 1
 8 -72 l 2
 30 -29 58 59 66 112 c 1
 127 125 155 133 192 147 c 1
 208 132 l 1
 171 59 157 33 144 11 c 0
 115 -35 45 -128 38 -128 c 2
 -15 -164 l 1
 -33 -150 l 1
EndSplineSet
EndChar

StartChar: hyphen
Encoding: 13 45 14
Width: 389
Flags: W
HStem: 203 91<59.7114 337.739>
VStem: 37 325
LayerCount: 2
Fore
SplineSet
355 297 m 1
 362 288 l 1
 349 268 343 249 332 198 c 1
 259 201 249 201 196 203 c 2
 120 203 l 2
 101 203 82 202 43 199 c 1
 37 208 l 1
 55 253 61 273 66 300 c 1
 93 295 112 294 158 294 c 2
 212 294 l 2
 231 294 272 295 355 297 c 1
EndSplineSet
AlternateSubs2: "'aalt' Access All Alternates lookup 1 subtable" endash emdash minus
EndChar

StartChar: period
Encoding: 14 46 15
Width: 250
Flags: W
HStem: -17 152<72.7769 162.294>
VStem: 48 139<7.875 110.074>
LayerCount: 2
Fore
SplineSet
125 135 m 0
 163 135 187 111 187 71 c 0
 187 20 156 -17 113 -17 c 0
 74 -17 48 9 48 49 c 0
 48 99 80 135 125 135 c 0
EndSplineSet
Substitution2: "'aalt' Access All Alternates lookup 0 subtable" ellipsis
EndChar

StartChar: slash
Encoding: 15 47 16
Width: 315
Flags: W
HStem: -17 21G<1 97.0787> 700 20G<218.921 315>
VStem: 1 314
LayerCount: 2
Fore
SplineSet
225 720 m 1
 315 720 l 1
 91 -17 l 1
 1 -17 l 1
 225 720 l 1
EndSplineSet
Substitution2: "'dnom' Denominators lookup 5 subtable" fraction
Substitution2: "'numr' Numerators lookup 4 subtable" fraction
Substitution2: "'aalt' Access All Alternates lookup 0 subtable" fraction
EndChar

StartChar: zero
Encoding: 16 48 17
Width: 500
Flags: W
HStem: -17 37<178.543 262.332> 646 37<270.549 352.084>
VStem: 42 114<88.5715 320.066> 376 114<353.535 575.52>
LayerCount: 2
Fore
SplineSet
315 683 m 0
 429 683 490 597 490 437 c 0
 490 322 461 204 411 115 c 0
 360 25 299 -17 220 -17 c 0
 103 -17 42 67 42 227 c 0
 42 345 70 460 120 549 c 0
 173 642 232 683 315 683 c 0
208 470 m 1
 204 454 l 1
 199 431 l 2
 175 327 156 185 156 113 c 0
 156 56 180 20 219 20 c 0
 256 20 283 50 303 116 c 0
 338 230 376 456 376 553 c 0
 376 610 352 646 313 646 c 0
 264 646 234 596 208 470 c 1
EndSplineSet
Substitution2: "'sinf' Scientific Inferiors lookup 23-1" zero.infs
Substitution2: "'onum' Oldstyle Figures lookup 22-1" zero.onum
Substitution2: "'sups' Superscript lookup 3 subtable" zerosuperior
Substitution2: "'aalt' Access All Alternates lookup 0 subtable" zerosuperior
EndChar

StartChar: one
Encoding: 17 49 18
Width: 500
Flags: W
HStem: -3 33<46 100 306.745 428> 658 20G<361.5 406>
LayerCount: 2
Fore
SplineSet
41 -3 m 1
 46 30 l 1
 100 33 l 2
 165 38 168 40 178 92 c 2
 266 578 l 1
 83 500 l 1
 74 509 l 1
 90 572 l 1
 286 632 l 2
 311 640 334 650 389 678 c 1
 406 669 l 1
 401 648 397 630 393 606 c 2
 304 100 l 2
 302 86 300 75 300 71 c 0
 300 42 312 35 357 33 c 2
 434 30 l 1
 428 -3 l 1
 329 -1 294 0 256 0 c 2
 234 0 l 1
 203 0 l 1
 113 -1 l 2
 104 -2 76 -2 41 -3 c 1
EndSplineSet
Substitution2: "'sinf' Scientific Inferiors lookup 23-1" one.infs
Substitution2: "'onum' Oldstyle Figures lookup 22-1" one.onum
Substitution2: "'sups' Superscript lookup 3 subtable" onesuperior
Substitution2: "'aalt' Access All Alternates lookup 0 subtable" onesuperior
EndChar

StartChar: two
Encoding: 18 50 19
Width: 500
Flags: W
HStem: 0 98<138 426.669> 593 90<167.942 291.498>
VStem: 328 122<419.193 555.301>
LayerCount: 2
Fore
SplineSet
1 -3 m 1
 1 22 l 1
 98 116 l 2
 250 263 328 391 328 491 c 0
 328 553 286 593 222 593 c 0
 171 593 145 574 108 511 c 2
 94 487 l 1
 64 496 l 1
 120 632 l 1
 171 669 212 683 266 683 c 0
 377 683 450 616 450 513 c 0
 450 447 418 379 359 320 c 2
 138 98 l 1
 364 98 l 2
 392 98 415 100 446 106 c 1
 454 100 l 1
 441 75 436 57 421 -3 c 1
 310 -1 251 0 226 0 c 0
 181 0 80 -1 1 -3 c 1
EndSplineSet
Substitution2: "'sinf' Scientific Inferiors lookup 23-1" two.infs
Substitution2: "'onum' Oldstyle Figures lookup 22-1" two.onum
Substitution2: "'sups' Superscript lookup 3 subtable" twosuperior
Substitution2: "'aalt' Access All Alternates lookup 0 subtable" twosuperior
EndChar

StartChar: three
Encoding: 19 51 20
Width: 500
Flags: W
HStem: -17 37<112.476 240.504> 339 39<148.327 266.421> 603 80<177.356 302.357>
VStem: 38 34<147.433 183.412> 320 128<127.027 297.581> 331 119<473.855 574.397>
LayerCount: 2
Fore
SplineSet
8 24 m 1xf8
 38 185 l 1
 72 183 l 1
 69 164 67 143 67 128 c 0
 67 64 110 20 175 20 c 0
 224 20 262 44 290 93 c 0
 310 127 320 168 320 211 c 0xf8
 320 293 282 339 214 339 c 0
 195 339 178 336 138 325 c 1
 132 331 l 1
 148 382 l 1
 155 379 160 378 175 378 c 0
 220 378 243 383 267 397 c 0
 307 421 331 463 331 512 c 0
 331 570 296 603 236 603 c 0
 179 603 142 577 110 515 c 1
 81 526 l 1
 137 637 l 1
 183 670 224 683 283 683 c 0
 386 683 450 631 450 548 c 0xf4
 450 510 436 477 408 447 c 0
 379 416 354 400 295 375 c 1
 294 371 l 1
 398 358 448 309 448 221 c 0
 448 87 327 -17 170 -17 c 0
 113 -17 71 -7 8 24 c 1xf8
EndSplineSet
Substitution2: "'sinf' Scientific Inferiors lookup 23-1" three.infs
Substitution2: "'onum' Oldstyle Figures lookup 22-1" three.onum
Substitution2: "'sups' Superscript lookup 3 subtable" threesuperior
Substitution2: "'aalt' Access All Alternates lookup 0 subtable" threesuperior
EndChar

StartChar: four
Encoding: 20 52 21
Width: 500
Flags: W
HStem: -3 36<103 221.668 348.469 454> 176 76<86 249 376 469> 663 20G<417 453>
LayerCount: 2
Fore
SplineSet
249 176 m 1
 3 176 l 1
 8 214 l 1
 103 370 198 505 318 652 c 1
 364 656 394 664 440 683 c 1
 453 673 l 1
 376 252 l 1
 483 255 l 1
 487 253 l 1
 469 176 l 1
 362 176 l 1
 349 93 l 2
 347 80 346 70 346 61 c 0
 346 46 360 34 378 33 c 2
 459 30 l 1
 454 -3 l 1
 352 -1 310 0 276 0 c 0
 242 0 200 -1 98 -3 c 1
 103 30 l 1
 166 33 l 2
 220 36 225 41 235 95 c 2
 249 176 l 1
86 252 m 1
 264 252 l 1
 325 597 l 1
 221 464 153 367 86 252 c 1
EndSplineSet
Substitution2: "'sinf' Scientific Inferiors lookup 23-1" four.infs
Substitution2: "'onum' Oldstyle Figures lookup 22-1" four.onum
Substitution2: "'sups' Superscript lookup 3 subtable" foursuperior
Substitution2: "'aalt' Access All Alternates lookup 0 subtable" foursuperior
EndChar

StartChar: five
Encoding: 21 53 22
Width: 500
Flags: W
HStem: -17 37<116.549 242.364> 362 55<173.425 285.253> 566 102<174 435>
VStem: 41 29<144.467 174.207> 328 128<140.546 317.473>
LayerCount: 2
Fore
SplineSet
112 302 m 1
 81 314 l 1
 109 454 121 520 145 667 c 1
 150 675 l 1
 230 670 286 668 382 668 c 2
 475 668 l 1
 481 659 l 1
 435 570 l 1
 355 567 318 566 276 566 c 2
 174 566 l 1
 131 366 l 1
 177 404 212 417 269 417 c 0
 385 417 456 352 456 244 c 0
 456 96 335 -17 178 -17 c 0
 113 -17 65 -3 14 30 c 1
 25 76 31 110 41 178 c 1
 70 173 l 1
 68 161 68 154 68 144 c 0
 68 69 112 20 180 20 c 0
 232 20 271 49 299 108 c 0
 317 146 328 195 328 239 c 0
 328 315 287 362 219 362 c 0
 174 362 147 347 112 302 c 1
EndSplineSet
Substitution2: "'sinf' Scientific Inferiors lookup 23-1" five.infs
Substitution2: "'onum' Oldstyle Figures lookup 22-1" five.onum
Substitution2: "'sups' Superscript lookup 3 subtable" fivesuperior
Substitution2: "'aalt' Access All Alternates lookup 0 subtable" fivesuperior
EndChar

StartChar: six
Encoding: 22 54 23
Width: 500
Flags: W
HStem: -17 46<187.681 296.523> 348 67<247.783 371> 631 52<314.745 442.421>
VStem: 39 120<81.3999 276.854> 351 125<154.027 319.768>
LayerCount: 2
Fore
SplineSet
488 669 m 1
 466 600 l 1
 458 596 l 1
 433 620 406 631 373 631 c 0
 318 631 270 594 234 522 c 0
 210 474 195 425 176 334 c 1
 232 393 273 415 328 415 c 0
 414 415 476 350 476 260 c 0
 476 111 354 -17 213 -17 c 0
 101 -17 39 62 39 206 c 0
 39 342 89 473 175 563 c 0
 247 639 335 683 415 683 c 0
 440 683 467 678 488 669 c 1
273 348 m 0
 202 348 159 273 159 151 c 0
 159 70 188 29 244 29 c 0
 275 29 296 42 315 75 c 0
 336 111 351 176 351 234 c 0
 351 309 324 348 273 348 c 0
EndSplineSet
Substitution2: "'sinf' Scientific Inferiors lookup 23-1" six.infs
Substitution2: "'onum' Oldstyle Figures lookup 22-1" six.onum
Substitution2: "'sups' Superscript lookup 3 subtable" sixsuperior
Substitution2: "'aalt' Access All Alternates lookup 0 subtable" sixsuperior
EndChar

StartChar: seven
Encoding: 23 55 24
Width: 500
Flags: W
HStem: -3 21G<69 92 174 223.5> 557 111<100 439>
LayerCount: 2
Fore
SplineSet
76 -3 m 1
 69 10 l 1
 174 173 312 381 360 448 c 2
 439 557 l 1
 170 557 l 2
 146 557 119 555 81 550 c 1
 73 556 l 1
 81 593 87 619 94 665 c 1
 100 674 l 1
 214 669 248 668 284 668 c 2
 544 668 l 1
 544 629 l 1
 486 548 l 1
 383 394 256 156 191 -3 c 1
 157 -1 144 0 133 0 c 0
 127 0 108 -1 76 -3 c 1
EndSplineSet
Substitution2: "'sinf' Scientific Inferiors lookup 23-1" seven.infs
Substitution2: "'onum' Oldstyle Figures lookup 22-1" seven.onum
Substitution2: "'sups' Superscript lookup 3 subtable" sevensuperior
Substitution2: "'aalt' Access All Alternates lookup 0 subtable" sevensuperior
EndChar

StartChar: eight
Encoding: 24 56 25
Width: 500
Flags: W
HStem: -17 46<150.626 291.973> 637 46<239.136 369.556>
VStem: 26 82<72.7524 211.273> 97 97<458.296 552.706> 348 106<126.552 226.712> 404 80<479.142 601.878>
LayerCount: 2
Fore
SplineSet
191 328 m 1xe8
 177 337 l 2
 121 373 97 413 97 469 c 0
 97 535 132 592 201 640 c 0
 244 669 286 683 331 683 c 0
 425 683 484 633 484 554 c 0xd4
 484 498 455 453 391 409 c 2
 338 373 l 1
 352 365 l 2
 421 325 454 279 454 218 c 0
 454 152 426 97 369 51 c 0
 314 6 254 -17 196 -17 c 0
 93 -17 26 41 26 130 c 0
 26 203 67 259 157 309 c 2
 191 328 l 1xe8
236 300 m 2
 218 309 l 1
 139 257 108 210 108 143 c 0
 108 75 153 29 220 29 c 0
 292 29 348 84 348 155 c 0xe8
 348 215 311 263 236 300 c 2
309 390 m 1
 383 447 404 479 404 533 c 0
 404 598 366 637 305 637 c 0
 240 637 194 590 194 522 c 0xd4
 194 468 220 439 309 390 c 1
EndSplineSet
Substitution2: "'sinf' Scientific Inferiors lookup 23-1" eight.infs
Substitution2: "'onum' Oldstyle Figures lookup 22-1" eight.onum
Substitution2: "'sups' Superscript lookup 3 subtable" eightsuperior
Substitution2: "'aalt' Access All Alternates lookup 0 subtable" eightsuperior
EndChar

StartChar: nine
Encoding: 25 57 26
Width: 500
Flags: W
HStem: -17 49<95.0835 232.69> 246 71<156.5 283.61> 634 49<227.418 333.924>
VStem: 27 23<90.7466 104.043> 56 120<350.33 523.396> 366 125<383.841 577.885>
LayerCount: 2
Fore
SplineSet
348 313 m 2
 352 331 l 1
 302 269 260 246 201 246 c 0
 112 246 56 311 56 417 c 0
 56 511 94 579 175 632 c 0
 229 667 272 683 312 683 c 0
 426 683 491 600 491 456 c 0
 491 217 319 -17 143 -17 c 0
 116 -17 94 -13 52 -2 c 1
 46 25 42 44 27 101 c 1
 50 111 l 1
 74 59 113 32 165 32 c 0
 222 32 267 70 299 146 c 0
 318 191 325 216 348 313 c 2
285 634 m 0
 218 634 176 565 176 452 c 0
 176 363 204 317 259 317 c 0
 326 317 366 386 366 502 c 0
 366 587 337 634 285 634 c 0
EndSplineSet
Substitution2: "'sinf' Scientific Inferiors lookup 23-1" nine.infs
Substitution2: "'onum' Oldstyle Figures lookup 22-1" nine.onum
Substitution2: "'sups' Superscript lookup 3 subtable" ninesuperior
Substitution2: "'aalt' Access All Alternates lookup 0 subtable" ninesuperior
EndChar

StartChar: colon
Encoding: 26 58 27
Width: 250
Flags: W
HStem: -17 152<62.7769 152.294> 300 152<121.777 211.294>
VStem: 38 139<7.875 110.074> 97 139<324.875 427.074>
LayerCount: 2
Fore
SplineSet
174 452 m 0xd0
 212 452 236 428 236 388 c 0
 236 337 205 300 162 300 c 0
 123 300 97 326 97 366 c 0
 97 416 129 452 174 452 c 0xd0
115 135 m 0
 153 135 177 111 177 71 c 0
 177 20 146 -17 103 -17 c 0
 64 -17 38 9 38 49 c 0xe0
 38 99 70 135 115 135 c 0
EndSplineSet
EndChar

StartChar: semicolon
Encoding: 27 59 28
Width: 250
Flags: W
HStem: 300 152<132.777 222.294>
VStem: 108 139<324.875 427.074>
LayerCount: 2
Fore
SplineSet
-33 -150 m 1
 8 -72 l 2
 30 -29 58 59 66 112 c 1
 127 125 155 133 192 147 c 1
 208 132 l 1
 171 59 157 33 144 11 c 0
 115 -35 45 -128 38 -128 c 2
 -15 -164 l 1
 -33 -150 l 1
184 452 m 0
 223 452 247 428 247 388 c 0
 247 337 216 300 173 300 c 0
 134 300 108 326 108 364 c 0
 108 416 140 452 184 452 c 0
EndSplineSet
EndChar

StartChar: less
Encoding: 28 60 29
Width: 606
Flags: W
LayerCount: 2
Fore
SplineSet
170 305 m 1
 558 127 l 1
 558 34 l 1
 49 264 l 1
 49 346 l 1
 558 576 l 1
 558 484 l 1
 170 305 l 1
EndSplineSet
EndChar

StartChar: equal
Encoding: 29 61 30
Width: 606
Flags: W
HStem: 114 86<51 555> 310 86<51 555>
LayerCount: 2
Fore
SplineSet
555 396 m 1
 555 310 l 1
 51 310 l 1
 51 396 l 1
 555 396 l 1
555 200 m 1
 555 114 l 1
 51 114 l 1
 51 200 l 1
 555 200 l 1
EndSplineSet
EndChar

StartChar: greater
Encoding: 30 62 31
Width: 606
Flags: W
LayerCount: 2
Fore
SplineSet
445 305 m 1
 57 484 l 1
 57 576 l 1
 566 346 l 1
 566 264 l 1
 57 34 l 1
 57 127 l 1
 445 305 l 1
EndSplineSet
EndChar

StartChar: question
Encoding: 31 63 32
Width: 444
Flags: W
HStem: -17 152<121.777 211.294> 615 80<175.691 299.513>
VStem: 97 139<7.875 110.074> 159 44<209.084 292.746> 324 126<467.403 591.405>
LayerCount: 2
Fore
SplineSet
223 207 m 1xd8
 201 189 l 1
 171 215 159 237 159 266 c 0
 159 297 175 329 210 365 c 2
 273 431 l 2
 308 468 324 500 324 536 c 0
 324 585 290 615 233 615 c 0
 215 615 198 611 177 601 c 0
 158 591 146 575 131 539 c 2
 124 522 l 1
 91 526 l 1
 111 570 122 600 134 652 c 1
 193 685 225 695 275 695 c 0
 381 695 450 636 450 543 c 0
 450 488 427 446 376 408 c 2
 273 332 l 2
 217 291 203 274 203 249 c 0
 203 234 209 222 223 207 c 1xd8
174 135 m 0
 212 135 236 111 236 71 c 0
 236 20 205 -17 162 -17 c 0
 123 -17 97 9 97 49 c 0xe8
 97 99 129 135 174 135 c 0
EndSplineSet
EndChar

StartChar: at
Encoding: 32 64 33
Width: 833
Flags: W
HStem: -12 56<323.635 549.221> 143 29<323.341 391.282 505.905 588.198> 625 56<317.358 547.908>
VStem: 82 56<225.579 443.721> 210 95<196.992 353.04> 693 51<297.528 490.986>
LayerCount: 2
Fore
SplineSet
675 173 m 1
 739 173 l 1
 710 123 694 102 663 75 c 0
 598 18 519 -12 432 -12 c 0
 234 -12 82 136 82 329 c 0
 82 527 234 681 431 681 c 0
 607 681 744 558 744 399 c 0
 744 329 717 261 671 213 c 0
 626 168 566 137 520 137 c 0
 482 137 458 166 452 219 c 1
 408 159 382 143 334 143 c 0
 260 143 210 198 210 278 c 0
 210 396 307 501 416 501 c 0
 461 501 487 478 497 429 c 1
 513 493 l 1
 607 493 l 1
 533 219 l 2
 531 210 529 200 529 194 c 0
 529 179 537 170 548 170 c 0
 570 170 599 190 628 224 c 0
 669 274 693 340 693 404 c 0
 693 529 581 625 436 625 c 0
 265 625 138 502 138 335 c 0
 138 167 267 44 443 44 c 0
 483 44 517 51 550 66 c 0
 602 89 630 113 675 173 c 1
432 471 m 0
 374 475 305 350 305 242 c 0
 305 201 325 172 354 172 c 0
 382 172 409 195 435 240 c 0
 460 285 478 353 478 403 c 0
 478 443 460 469 432 471 c 0
EndSplineSet
EndChar

StartChar: A
Encoding: 33 65 34
Width: 722
Flags: W
HStem: -3 35<-30 4 160 199 384 426 648 685> 264 43<245 438> 663 20G<402.157 511>
LayerCount: 2
Fore
SplineSet
414 683 m 1
 510 683 l 1
 512 664 514 645 515 640 c 0
 517 621 518 612 518 612 c 1
 594 90 l 2
 600 54 616 38 648 35 c 2
 685 32 l 1
 685 -3 l 1
 597 -1 568 0 539 0 c 0
 507 0 472 -1 384 -3 c 1
 384 32 l 1
 426 35 l 2
 455 37 469 48 468 66 c 2
 443 264 l 1
 406 265 l 2
 373 266 352 267 344 267 c 2
 333 267 l 1
 222 264 l 1
 136 112 l 2
 122 87 117 72 117 55 c 0
 117 43 130 37 160 35 c 2
 204 32 l 1
 199 -3 l 1
 152 -2 124 -1 115 0 c 2
 85 0 l 1
 -35 -3 l 1
 -30 32 l 1
 4 35 l 2
 22 36 37 48 51 70 c 2
 414 683 l 1
400 573 m 1
 245 307 l 1
 438 307 l 1
 400 573 l 1
EndSplineSet
EndChar

StartChar: B
Encoding: 34 66 35
Width: 667
Flags: W
HStem: -3 43<211.601 400.279> -3 32<13 41> 333 42<264 414.434> 639 42<311 458.642> 649 32<91 132>
VStem: 469 132<127.82 286.676> 497 132<465.592 604.218>
LayerCount: 2
Fore
SplineSet
13 29 m 1x64
 41 32 l 2
 72 35 81 47 89 92 c 2
 176 594 l 2
 177 601 178 609 178 615 c 0
 178 637 167 644 132 646 c 2
 86 649 l 1
 91 681 l 1x6c
 181 679 217 678 247 678 c 0
 277 678 296 678 419 681 c 2
 437 681 l 2
 486 681 516 677 544 665 c 0
 598 643 629 598 629 541 c 0x32
 629 501 611 460 582 434 c 0
 545 401 513 385 427 359 c 1
 492 353 520 344 551 322 c 0
 583 298 601 260 601 214 c 0
 601 131 544 55 454 18 c 0
 418 4 381 -3 332 -3 c 0xb4
 322 -3 304 -3 245 -1 c 2
 147 0 l 2
 110 0 78 -1 8 -3 c 1
 13 29 l 1x64
311 635 m 1
 264 375 l 1
 307 375 l 2
 432 375 497 430 497 535 c 0
 497 574 487 598 464 615 c 0
 445 629 404 639 366 639 c 0x32
 364 639 357 639 350 638 c 2
 311 635 l 1
256 332 m 1
 211 51 l 1
 224 49 226 49 236 48 c 0
 274 42 298 40 323 40 c 0
 414 40 469 104 469 209 c 0xa4
 469 249 460 276 439 296 c 0
 414 321 372 335 322 335 c 0
 307 335 292 334 275 333 c 2
 266 333 l 1
 256 332 l 1
EndSplineSet
EndChar

StartChar: C
Encoding: 35 67 36
Width: 685
Flags: W
HStem: -17 65<295.616 472.124> 636 59<371.556 580.909>
VStem: 69 138<144.323 385.594> 622 35<484 572>
LayerCount: 2
Fore
SplineSet
622 484 m 1
 627 572 l 2
 629 605 545 636 454 636 c 0
 302 636 207 495 207 272 c 0
 207 119 268 48 399 48 c 0
 462 48 521 67 597 112 c 2
 619 125 l 1
 629 116 l 1
 616 77 l 1
 506 8 434 -17 340 -17 c 0
 264 -17 196 3 152 39 c 0
 97 84 69 154 69 250 c 0
 69 497 263 695 504 695 c 0
 573 695 630 682 695 652 c 1
 669 560 662 531 657 484 c 1
 622 484 l 1
EndSplineSet
EndChar

StartChar: D
Encoding: 36 68 37
Width: 778
Flags: W
HStem: -3 43<205.922 441.309> -3 32<5 33> 0 51<203 312.693> 640 40<303 503.939> 649 32<83 124>
VStem: 609 138<287.659 536.012>
LayerCount: 2
Fore
SplineSet
5 29 m 1x44
 33 32 l 2
 63 35 73 47 81 92 c 2
 168 594 l 2
 169 601 170 609 170 614 c 0
 170 636 159 644 124 646 c 2
 78 649 l 1
 83 681 l 1x4c
 176 679 209 678 240 678 c 0
 265 678 312 679 363 680 c 0
 412 682 426 682 447 682 c 0
 566 682 633 659 685 601 c 0
 726 555 747 494 747 423 c 0
 747 300 695 179 608 100 c 0
 535 33 438 -3 329 -3 c 0x94
 313 -3 288 -3 258 -2 c 0
 223 -1 171 0 141 0 c 0x24
 102 0 69 -1 0 -3 c 1
 5 29 l 1x44
303 635 m 1
 203 51 l 1x34
 266 42 286 40 314 40 c 0
 430 40 496 73 541 151 c 0
 582 225 609 335 609 434 c 0
 609 521 584 578 533 608 c 0
 499 627 436 640 375 640 c 0x94
 370 640 356 639 342 638 c 2
 303 635 l 1
EndSplineSet
EndChar

StartChar: E
Encoding: 37 69 38
Width: 611
Flags: W
HStem: -3 32<16 44> 0 56<214 488.859> 330 48<270 487> 634 47<315 536.193> 649 32<94 135>
VStem: 520 36<145.727 168> 549 32<520 619.263>
LayerCount: 2
Fore
SplineSet
16 29 m 1xa4
 44 32 l 2
 74 35 84 47 92 92 c 2
 179 594 l 2
 180 601 181 609 181 614 c 0
 181 636 170 644 135 646 c 2
 89 649 l 1
 94 681 l 1xac
 182 679 220 678 251 678 c 0
 282 678 282 678 371 680 c 0
 398 681 424 681 437 681 c 0
 455 681 455 681 596 678 c 1
 606 672 l 1
 594 608 588 574 581 520 c 1
 549 520 l 1
 549 573 l 2x32
 549 606 546 616 537 620 c 0
 521 625 426 634 377 634 c 0
 371 634 361 634 354 633 c 2
 315 630 l 1
 270 378 l 1
 356 378 l 2
 409 378 445 379 496 381 c 1
 501 372 l 1
 487 325 l 1
 383 329 351 330 317 330 c 2
 262 330 l 1
 214 56 l 1
 238 51 249 50 273 50 c 2
 312 50 l 1
 390 53 l 2
 473 56 485 61 498 98 c 2
 520 168 l 1
 556 168 l 1
 545 123 538 88 522 0 c 1x74
 378 -3 378 -3 355 -3 c 0xa4
 335 -3 312 -3 262 -2 c 0
 207 0 177 0 152 0 c 0x64
 113 0 81 -1 11 -3 c 1
 16 29 l 1xa4
EndSplineSet
EndChar

StartChar: F
Encoding: 38 70 39
Width: 556
Flags: W
HStem: -3 38<-1 76.5601 220.189 313> 296 48<267 484> 630 48<317 528.932> 649 32<93 138>
VStem: 536 32<520 616.717>
LayerCount: 2
Fore
SplineSet
317 630 m 1xe8
 267 344 l 1
 353 344 l 2
 406 344 442 345 493 347 c 1
 498 338 l 1
 484 291 l 1
 380 295 348 296 314 296 c 2
 259 296 l 1
 223 100 l 2
 220 84 219 75 219 65 c 0
 219 44 228 36 255 35 c 2
 318 32 l 1
 313 -3 l 1
 216 -1 173 0 148 0 c 0
 121 0 80 -1 -6 -3 c 1
 -1 32 l 1
 42 35 l 2
 74 36 85 54 100 132 c 2
 182 594 l 2
 183 601 184 609 184 614 c 0
 184 637 174 644 138 646 c 2
 88 649 l 1
 93 681 l 1xd8
 188 679 226 678 253 678 c 0xe8
 282 678 317 679 409 681 c 2xd8
 583 678 l 1
 593 672 l 1
 581 611 576 577 568 520 c 1
 536 520 l 1
 536 573 l 2
 536 603 534 611 529 617 c 0
 528 621 498 626 460 628 c 0
 445 629 428 630 410 632 c 0
 390 634 375 635 368 634 c 2
 356 633 l 1
 317 630 l 1xe8
EndSplineSet
EndChar

StartChar: G
Encoding: 39 71 40
Width: 778
Flags: W
HStem: -17 47<304.913 501.196> 253 33<453 548.974 720 745> 633 62<387.036 611.556>
VStem: 72 138<134.348 394.724> 649 35<484 573.905>
LayerCount: 2
Fore
SplineSet
517 59 m 1
 549 200 l 2
 551 208 552 217 552 223 c 0
 552 242 540 250 508 251 c 2
 448 253 l 1
 453 286 l 1
 540 284 575 283 602 283 c 0
 631 283 665 284 750 286 c 1
 745 253 l 1
 720 251 l 2
 693 248 683 238 675 206 c 2
 655 110 l 2
 651 91 649 78 649 64 c 2
 652 48 l 1
 509 -4 453 -17 368 -17 c 0
 269 -17 191 9 140 60 c 0
 94 105 72 169 72 256 c 0
 72 440 177 592 352 661 c 0
 411 684 466 695 523 695 c 0
 597 695 652 683 722 652 c 1
 696 561 690 531 684 484 c 1
 649 484 l 1
 653 562 l 2
 654 568 654 572 654 574 c 0
 654 605 574 633 482 633 c 0
 418 633 354 613 316 580 c 0
 253 526 210 395 210 259 c 0
 210 111 276 30 396 30 c 0
 443 30 482 39 517 59 c 1
EndSplineSet
EndChar

StartChar: H
Encoding: 40 72 41
Width: 778
Flags: W
HStem: -3 35<-7 42 254 298 412 461 638.225 723> 338 48<268 552> 646 35<92 138 321.99 402 511 557 779 821>
LayerCount: 2
Fore
SplineSet
402 646 m 1
 360 643 l 2
 326 642 316 631 307 588 c 2
 268 386 l 1
 562 386 l 1
 587 541 l 2
 592 572 595 601 595 617 c 0
 595 634 585 641 557 643 c 2
 506 646 l 1
 511 681 l 1
 599 679 634 678 661 678 c 0
 686 678 686 678 826 681 c 1
 821 646 l 1
 779 643 l 2
 744 641 735 632 726 588 c 2
 639 102 l 2
 636 88 635 74 635 63 c 0
 635 45 647 36 673 35 c 2
 728 32 l 1
 723 -3 l 1
 630 -1 581 0 555 0 c 0
 530 0 496 -1 407 -3 c 1
 412 32 l 1
 461 35 l 2
 495 39 499 45 515 132 c 2
 552 338 l 1
 261 338 l 1
 220 102 l 2
 217 88 216 73 216 63 c 0
 216 45 227 37 254 35 c 2
 303 32 l 1
 298 -3 l 1
 208 -1 174 0 148 0 c 0
 122 0 80 -1 -12 -3 c 1
 -7 32 l 1
 42 35 l 2
 76 38 80 45 96 132 c 2
 168 541 l 2
 174 573 176 595 176 614 c 0
 176 634 167 641 138 643 c 2
 87 646 l 1
 92 681 l 1
 227 678 227 678 249 678 c 0
 271 678 271 678 407 681 c 1
 402 646 l 1
EndSplineSet
EndChar

StartChar: I
Encoding: 41 73 42
Width: 389
Flags: W
HStem: -3 35<3 52 230.143 319> 646 35<101 183.423 363 408>
LayerCount: 2
Fore
SplineSet
408 646 m 1
 363 643 l 2
 330 641 324 636 317 599 c 2
 230 100 l 2
 228 89 227 77 227 66 c 0
 227 44 237 36 264 35 c 2
 323 32 l 1
 319 -3 l 1
 231 -1 180 0 156 0 c 0
 133 0 94 -1 -1 -3 c 1
 3 32 l 1
 52 35 l 2
 85 37 90 47 106 132 c 2
 178 541 l 2
 184 577 187 598 187 613 c 0
 187 633 175 642 149 643 c 2
 97 646 l 1
 101 681 l 1
 193 679 229 678 253 678 c 0
 276 678 276 678 412 681 c 1
 408 646 l 1
EndSplineSet
EndChar

StartChar: J
Encoding: 42 74 43
Width: 389
Flags: W
HStem: -207 37<-28.1375 49.2588> 646 35<106 186.423 366 412>
LayerCount: 2
Fore
SplineSet
412 646 m 1
 366 643 l 2
 333 641 327 635 320 599 c 2
 222 43 l 2
 199 -88 104 -207 22 -207 c 0
 9 -207 -6 -204 -29 -197 c 1
 -29 -162 l 1
 -15 -168 -6 -170 6 -170 c 0
 32 -170 50 -158 63 -131 c 0
 70 -115 73 -101 84 -35 c 2
 180 541 l 2
 185 572 190 607 190 614 c 0
 190 632 178 642 152 643 c 2
 101 646 l 1
 106 681 l 1
 198 679 235 678 259 678 c 0
 282 678 282 678 417 681 c 1
 412 646 l 1
EndSplineSet
EndChar

StartChar: K
Encoding: 43 75 44
Width: 722
Flags: W
HStem: -3 35<-6 43 255 300 648 684> 646 35<92 140 354 399 668.393 746>
LayerCount: 2
Fore
SplineSet
399 646 m 1
 354 643 l 2
 321 641 315 635 308 599 c 2
 261 334 l 1
 281 345 300 361 370 426 c 2
 510 557 l 1
 581 634 587 642 587 657 c 2
 587 681 l 1
 653 678 653 678 666 678 c 0
 679 678 679 678 746 681 c 1
 746 648 l 1
 711 648 l 2
 692 647 671 634 629 596 c 2
 384 373 l 1
 580 101 l 2
 620 46 627 40 648 36 c 2
 687 30 l 1
 684 -3 l 1
 648 -1 626 0 592 0 c 0
 557 0 534 -1 498 -3 c 1
 490 11 488 14 449 70 c 2
 320 253 l 2
 305 275 286 298 261 328 c 1
 221 100 l 2
 219 89 218 79 218 70 c 0
 218 44 226 37 255 35 c 2
 304 32 l 1
 300 -3 l 1
 210 -1 176 0 150 0 c 0
 124 0 82 -1 -10 -3 c 1
 -6 32 l 1
 43 35 l 2
 76 37 81 47 97 132 c 2
 169 541 l 2
 175 577 178 598 178 613 c 0
 178 632 166 641 140 643 c 2
 88 646 l 1
 92 681 l 1
 184 679 220 678 244 678 c 0
 267 678 267 678 403 681 c 1
 399 646 l 1
EndSplineSet
EndChar

StartChar: L
Encoding: 44 76 45
Width: 611
Flags: W
HStem: -3 32<30 58> 0 56<226 509.886> 646 35<109 191.423 371 416>
VStem: 542 36<150.87 174>
LayerCount: 2
Fore
SplineSet
416 646 m 1xb0
 371 643 l 2
 338 641 332 635 325 599 c 2
 226 56 l 1
 250 51 261 50 288 50 c 0
 337 50 422 53 462 56 c 0
 496 59 510 69 519 98 c 2
 542 174 l 1
 578 174 l 1
 559 81 552 50 544 0 c 1x70
 445 -2 402 -3 372 -3 c 0xb0
 358 -3 350 -3 326 -2 c 0
 262 -1 202 0 171 0 c 0x70
 129 0 96 -1 26 -3 c 1
 30 29 l 1
 58 32 l 2
 87 35 95 46 104 92 c 2
 186 541 l 2
 192 572 195 599 195 615 c 0
 195 632 183 642 157 643 c 2
 105 646 l 1
 109 681 l 1
 201 679 237 678 261 678 c 0
 284 678 284 678 420 681 c 1
 416 646 l 1xb0
EndSplineSet
EndChar

StartChar: M
Encoding: 45 77 46
Width: 944
Flags: W
HStem: -17 21G<366.938 420> -3 35<-21 21 116.563 194 582 631 800.801 884> 649 32<102 142 941 980>
LayerCount: 2
Fore
SplineSet
372 -17 m 1xa0
 229 548 l 1
 122 108 l 2
 114 75 114 75 114 64 c 0
 114 44 123 36 148 35 c 2
 199 32 l 1
 194 -3 l 1
 132 -1 109 0 87 0 c 0
 66 0 40 -1 -23 -3 c 1
 -21 32 l 1
 21 35 l 2
 38 37 51 55 61 91 c 2
 186 552 l 2
 192 574 195 595 195 613 c 0
 195 634 179 644 142 646 c 2
 97 649 l 1
 102 681 l 1
 152 679 189 678 214 678 c 0
 233 678 257 679 323 681 c 1
 450 174 l 1
 620 441 679 538 758 681 c 1
 809 679 848 678 873 678 c 0
 893 678 917 679 985 681 c 1
 980 649 l 1
 941 646 l 2
 904 643 895 632 885 577 c 2
 805 110 l 1
 803 102 l 2
 799 81 798 72 798 64 c 0
 798 44 808 36 834 35 c 2
 889 32 l 1
 884 -3 l 1
 795 -1 760 0 732 0 c 0
 703 0 663 -1 577 -3 c 1
 582 32 l 1x60
 631 35 l 2
 661 40 666 45 673 81 c 2
 674 90 l 2
 676 95 677 100 677 101 c 2
 759 586 l 1
 468 108 l 2
 455 86 443 65 397 -17 c 1
 372 -17 l 1xa0
EndSplineSet
EndChar

StartChar: N
Encoding: 46 78 47
Width: 778
Flags: W
HStem: -3 38<0 76.5893 148.254 226> 649 32<67 103 593 630 786 823>
LayerCount: 2
Fore
SplineSet
620 -3 m 1
 535 -3 l 1
 225 534 l 1
 152 138 l 2
 147 109 144 89 144 76 c 0
 144 50 156 36 180 35 c 2
 231 32 l 1
 226 -3 l 1
 162 -1 136 0 114 0 c 0
 92 0 66 -1 -2 -3 c 1
 0 32 l 1
 48 35 l 2
 70 36 80 50 88 91 c 2
 185 578 l 1
 185 610 147 642 103 646 c 2
 64 649 l 1
 67 681 l 1
 116 679 152 678 176 678 c 0
 195 678 218 679 282 681 c 1
 596 142 l 1
 670 542 l 2
 674 562 676 589 676 612 c 0
 676 633 661 644 630 646 c 2
 588 649 l 1
 593 681 l 1
 659 679 687 678 711 678 c 0
 735 678 763 679 829 681 c 1
 823 649 l 1
 786 646 l 2
 767 644 760 642 752 636 c 0
 744 629 739 611 722 528 c 2
 636 100 l 2
 629 67 625 37 620 -3 c 1
EndSplineSet
EndChar

StartChar: O
Encoding: 47 79 48
Width: 833
Flags: W
HStem: -17 43<298.441 478.856> 652 43<381.976 570.69>
VStem: 76 138<141.151 411.213> 656 138<276.089 535.185>
LayerCount: 2
Fore
SplineSet
493 695 m 0
 588 695 667 666 721 612 c 0
 771 563 794 499 794 415 c 0
 794 170 608 -17 365 -17 c 0
 181 -17 76 87 76 268 c 0
 76 518 249 695 493 695 c 0
480 652 m 0
 393 652 332 616 285 537 c 0
 242 467 214 347 214 239 c 0
 214 99 274 26 388 26 c 0
 474 26 541 69 590 153 c 0
 631 226 656 332 656 435 c 0
 656 579 596 652 480 652 c 0
EndSplineSet
EndChar

StartChar: P
Encoding: 48 80 49
Width: 667
Flags: W
HStem: -3 35<15 64 242.143 331> 281 41<325.959 459.927> 638 43<337 492.581> 649 32<105 156>
VStem: 541 132<424.103 592.549>
LayerCount: 2
Fore
SplineSet
337 635 m 1xe8
 242 100 l 2
 240 89 239 77 239 66 c 0
 239 44 249 36 276 35 c 2
 335 32 l 1
 331 -3 l 1
 243 -1 192 0 168 0 c 0
 145 0 106 -1 11 -3 c 1
 15 32 l 1
 64 35 l 2
 97 37 102 47 118 132 c 2
 200 594 l 2
 201 601 202 609 202 614 c 0
 202 637 192 644 156 646 c 2
 100 649 l 1
 105 681 l 1xd8
 205 679 247 678 272 678 c 2
 372 679 l 2
 418 680 425 681 453 681 c 2
 468 681 l 2
 604 681 673 626 673 518 c 0
 673 386 561 281 422 281 c 0
 389 281 361 286 325 299 c 1
 323 334 l 1
 347 325 366 322 389 322 c 0
 476 322 541 402 541 511 c 0
 541 599 497 638 400 638 c 0
 382 638 369 637 337 635 c 1xe8
EndSplineSet
EndChar

StartChar: Q
Encoding: 49 81 50
Width: 833
Flags: W
HStem: -222 89<565.06 684.049> -70 58<205.534 332.839> -17 43<298.441 478.856> 652 43<381.976 570.69>
VStem: 76 138<141.151 411.213> 150 29<-154 -108.712> 656 138<276.089 535.185> 738 31<-86.9927 -50.7419>
LayerCount: 2
Fore
SplineSet
493 695 m 0xba
 588 695 667 666 721 612 c 0
 771 563 794 499 794 415 c 0
 794 170 608 -17 365 -17 c 0
 181 -17 76 87 76 268 c 0
 76 518 249 695 493 695 c 0xba
480 652 m 0
 393 652 332 616 285 537 c 0
 242 467 214 347 214 239 c 0
 214 99 274 26 388 26 c 0
 474 26 541 69 590 153 c 0
 631 226 656 332 656 435 c 0
 656 579 596 652 480 652 c 0
174 -170 m 1
 150 -154 l 1
 151 -64 199 -12 281 -12 c 0
 315 -12 364 -26 420 -50 c 2
 514 -91 l 2
 574 -117 628 -133 657 -133 c 0
 700 -133 726 -105 738 -43 c 1
 769 -53 l 1
 746 -162 690 -222 610 -222 c 0
 583 -222 566 -217 528 -196 c 2
 329 -89 l 2
 306 -77 281 -70 257 -70 c 0
 210 -70 180 -108 179 -168 c 1xd5
 174 -170 l 1
EndSplineSet
EndChar

StartChar: R
Encoding: 50 82 51
Width: 722
Flags: W
HStem: -3 35<242 269> -3 21G<503.889 599> 638 43<328 487.396> 649 32<107 148>
VStem: 527 132<457.113 601.139>
LayerCount: 2
Fore
SplineSet
8 32 m 1x88
 57 35 l 2
 90 37 95 47 111 132 c 2
 192 594 l 2
 193 601 194 609 194 614 c 0
 194 637 184 644 148 646 c 2
 102 649 l 1
 107 681 l 1x98
 196 679 236 678 272 678 c 0
 307 678 317 678 424 681 c 2
 457 681 l 2
 592 681 659 634 659 538 c 0
 659 480 632 431 582 398 c 0
 548 376 518 365 454 353 c 1
 610 86 l 2
 624 61 649 35 660 34 c 2
 697 27 l 1
 697 -3 l 1
 660 -1 650 -1 599 0 c 2
 515 -3 l 1x68
 370 258 l 2
 359 276 339 307 309 353 c 1
 314 370 l 1
 369 370 l 2
 461 370 527 436 527 529 c 0
 527 606 487 638 391 638 c 0
 373 638 355 637 328 635 c 1
 235 100 l 2
 233 89 232 77 232 66 c 0
 232 44 242 36 269 35 c 2
 328 32 l 1xa8
 324 -3 l 1
 236 -1 185 0 161 0 c 0
 138 0 99 -1 4 -3 c 1x48
 8 32 l 1x88
EndSplineSet
EndChar

StartChar: S
Encoding: 51 83 52
Width: 556
Flags: W
HStem: -17 56<151.038 331.355> 639 56<264.547 424.084>
VStem: 71 27<133.667 189> 104 92<407 544.215> 389 106<144.063 256.5> 465 30<504 598.904>
LayerCount: 2
Fore
SplineSet
465 504 m 1xf4
 465 589 l 1xf4
 424 624 383 639 331 639 c 0
 252 639 196 592 196 526 c 0
 196 467 227 437 324 401 c 0
 407 370 428 359 457 333 c 0
 480 312 495 274 495 239 c 0
 495 163 453 85 385 35 c 0
 336 -1 281 -17 210 -17 c 0
 140 -17 96 -6 50 23 c 1
 71 189 l 1
 98 189 l 1
 98 113 l 1
 124 64 175 39 250 39 c 0
 340 39 389 83 389 162 c 0xf8
 389 192 380 218 364 232 c 0
 345 250 334 255 266 280 c 0
 141 325 104 364 104 450 c 0
 104 583 225 695 370 695 c 0
 424 695 473 680 517 651 c 1
 503 599 495 552 495 504 c 1
 465 504 l 1xf4
EndSplineSet
EndChar

StartChar: T
Encoding: 52 84 53
Width: 611
Flags: W
HStem: -3 38<108 195.197 338.189 427> 630 51<126.073 304 436 607.878>
VStem: 606 38<508 547.2>
LayerCount: 2
Fore
SplineSet
436 630 m 1
 341 100 l 2
 338 83 337 75 337 65 c 0
 337 44 346 36 373 35 c 2
 432 32 l 1
 427 -3 l 1
 331 -1 285 0 259 0 c 0
 233 0 191 -1 103 -3 c 1
 108 32 l 1
 161 35 l 2
 193 36 203 53 219 132 c 2
 304 630 l 1
 180 630 l 1
 135 625 116 609 108 566 c 2
 94 508 l 1
 56 508 l 1
 81 676 l 1
 87 681 l 1
 334 678 334 678 377 678 c 0
 419 678 419 678 667 681 c 1
 674 676 l 1
 644 508 l 1
 606 508 l 1
 610 592 l 2
 610 620 599 627 553 630 c 2
 436 630 l 1
EndSplineSet
EndChar

StartChar: U
Encoding: 53 85 54
Width: 778
Flags: W
HStem: -17 80<261.577 367.043> -3 38<632.094 721> 646 35<88 168.13 514 594.13 774 820>
VStem: 94 130<99.4034 306.695>
LayerCount: 2
Fore
SplineSet
497 -3 m 1x70
 492 5 l 1
 501 45 506 68 519 133 c 1
 461 71 438 50 403 26 c 0
 365 -2 318 -17 271 -17 c 0
 209 -17 155 8 123 51 c 0
 104 77 94 112 94 156 c 0
 94 180 97 205 102 234 c 2
 160 541 l 1
 161 548 l 2
 162 550 162 553 162 555 c 0
 168 583 171 606 171 617 c 0
 171 633 159 642 134 643 c 2
 83 646 l 1
 88 681 l 1
 113 680 133 680 142 680 c 0
 181 679 208 678 220 678 c 0
 246 678 268 679 307 681 c 1
 313 674 l 1
 227 214 l 2
 225 203 224 192 224 178 c 0
 224 150 229 125 238 110 c 0
 254 82 290 63 327 63 c 0xb0
 356 63 385 72 421 93 c 0
 469 121 518 164 521 182 c 2
 586 541 l 2
 586 544 587 546 588 550 c 0
 589 561 591 568 591 571 c 0
 595 590 597 607 597 617 c 0
 597 633 585 642 560 643 c 2
 509 646 l 1
 514 681 l 1
 606 679 642 678 666 678 c 0
 689 678 689 678 825 681 c 1
 820 646 l 1
 774 643 l 2
 739 641 732 635 725 599 c 2
 635 100 l 2
 632 84 631 74 631 64 c 0
 631 44 641 36 667 35 c 2
 726 32 l 1
 721 -3 l 1
 647 -1 622 0 603 0 c 0
 583 0 558 -1 497 -3 c 1x70
EndSplineSet
EndChar

StartChar: V
Encoding: 54 86 55
Width: 667
Flags: W
HStem: -3 21G<245.769 343.115> 646 35<67 110 285.145 363 528 604.737 716 742>
LayerCount: 2
Fore
SplineSet
363 646 m 1
 313 643 l 2
 288 642 283 636 283 607 c 0
 283 602 283 599 284 594 c 2
 352 132 l 1
 585 567 l 2
 602 599 606 609 606 621 c 0
 606 635 596 642 573 643 c 2
 523 646 l 1
 528 681 l 1
 602 678 625 678 637 678 c 2
 745 681 l 1
 742 646 l 1
 716 643 l 2
 695 641 687 633 666 598 c 2
 332 -3 l 1
 249 -3 l 1
 154 585 l 2
 147 627 136 641 110 643 c 2
 67 646 l 1
 67 681 l 1
 150 679 185 678 215 678 c 0
 245 678 280 679 363 681 c 1
 363 646 l 1
EndSplineSet
EndChar

StartChar: W
Encoding: 55 87 56
Width: 1000
Flags: W
HStem: -3 21G<206.081 301.96 663.696 761.037> 646 35<72 108 318 363 855 895 1012.16 1068> 669 20G<571.257 617.324>
LayerCount: 2
Fore
SplineSet
538 491 m 1xc0
 292 -3 l 1
 208 -3 l 1
 158 518 l 2
 157 528 156 535 156 539 c 0
 149 631 146 637 108 643 c 2
 67 646 l 1
 72 681 l 1
 153 679 188 678 217 678 c 0
 245 678 279 679 363 681 c 1
 363 646 l 1xc0
 318 643 l 2
 289 640 281 628 281 593 c 2
 316 145 l 1
 581 689 l 1
 612 689 l 1xa0
 760 133 l 1
 929 579 l 2
 940 607 940 608 940 619 c 0
 940 635 930 641 895 643 c 2
 850 646 l 1
 855 681 l 1
 916 679 942 678 964 678 c 0
 986 678 1012 679 1073 681 c 1
 1068 646 l 1
 1034 643 l 2
 1016 643 1008 629 972 542 c 2
 753 -3 l 1
 669 -3 l 1
 538 491 l 1xc0
EndSplineSet
EndChar

StartChar: X
Encoding: 56 88 57
Width: 722
Flags: W
HStem: -3 35<-4 36 170.315 254 380 460.977 642 684> 646 35<82 122 362 402 512 592.986 726 770>
LayerCount: 2
Fore
SplineSet
330 323 m 1
 178 614 l 2
 171 629 147 641 122 643 c 2
 82 646 l 1
 82 681 l 1
 172 679 210 678 242 678 c 0
 274 678 311 679 402 681 c 1
 402 646 l 1
 362 643 l 2
 330 641 323 637 323 626 c 0
 323 615 326 605 332 593 c 2
 421 418 l 1
 573 590 l 1
 574 591 l 2
 589 607 594 616 594 624 c 0
 594 635 580 642 555 643 c 2
 507 646 l 1
 512 681 l 1
 585 679 616 678 642 678 c 0
 668 678 699 679 772 681 c 1
 770 646 l 1
 726 643 l 2
 712 644 675 619 648 590 c 2
 443 377 l 1
 594 82 l 2
 614 44 622 37 642 35 c 2
 689 32 l 1
 684 -3 l 1
 556 0 549 0 533 0 c 2
 380 -3 l 1
 380 32 l 1
 442 34 l 2
 453 34 461 41 461 50 c 0
 461 59 458 74 454 81 c 2
 353 280 l 1
 185 88 l 2
 175 77 170 65 170 52 c 0
 170 42 182 36 204 35 c 2
 259 32 l 1
 254 -3 l 1
 180 -1 151 0 125 0 c 0
 100 0 69 -1 -9 -3 c 1
 -4 32 l 1
 36 35 l 2
 53 36 76 48 88 61 c 2
 330 323 l 1
EndSplineSet
EndChar

StartChar: Y
Encoding: 57 89 58
Width: 611
Flags: W
HStem: -3 35<143 192 370.26 459> 593 88<615.193 669> 597 98<93 185>
LayerCount: 2
Fore
SplineSet
675 681 m 1xc0
 669 593 l 1xc0
 635 589 588 558 553 517 c 0
 486 443 401 283 392 217 c 2
 391 211 l 1
 390 206 l 1
 370 100 l 2
 368 89 367 78 367 67 c 0
 367 44 376 36 404 35 c 2
 463 32 l 1
 459 -3 l 1
 371 -1 320 0 296 0 c 0
 273 0 234 -1 139 -3 c 1
 143 32 l 1
 192 35 l 2
 226 39 226 39 246 132 c 2
 262 205 l 2
 264 215 266 233 266 244 c 0
 266 264 258 303 243 351 c 2
 211 456 l 2
 185 541 142 597 102 597 c 0
 84 597 67 593 57 587 c 1
 54 620 l 1
 79 637 91 646 144 690 c 1
 160 694 163 695 172 695 c 0xa0
 198 695 225 684 245 666 c 0
 281 634 315 557 334 466 c 2
 370 297 l 1
 460 518 593 686 675 681 c 1xc0
EndSplineSet
EndChar

StartChar: Z
Encoding: 58 90 59
Width: 667
Flags: W
HStem: -2 51<188 550.829> 629 50<171.391 496>
VStem: 94 35<510 532.167> 598 36<147.154 180>
LayerCount: 2
Fore
SplineSet
1 -3 m 1
 1 24 l 1
 496 629 l 1
 332 629 l 2
 271 629 178 622 171 615 c 0
 164 613 159 603 153 586 c 2
 129 510 l 1
 94 510 l 1
 106 563 112 602 120 670 c 1
 127 681 l 1
 257 679 l 2
 311 678 359 678 394 678 c 0
 425 678 454 678 485 679 c 2
 676 681 l 1
 671 646 l 1
 188 49 l 1
 368 49 l 2
 441 49 507 54 553 64 c 1
 574 107 585 135 598 180 c 1
 634 180 l 1
 595 -3 l 1
 437 -1 351 0 289 0 c 0
 246 0 171 -1 70 -2 c 2
 1 -3 l 1
EndSplineSet
EndChar

StartChar: bracketleft
Encoding: 59 91 60
Width: 333
Flags: W
HStem: -99 36<155.626 264> 684 39<259.691 376>
LayerCount: 2
Fore
SplineSet
376 684 m 1
 301 686 l 2
 261 685 261 684 247 603 c 2
 161 56 l 2
 154 13 152 -6 152 -21 c 0
 152 -49 161 -62 182 -63 c 2
 269 -67 l 1
 264 -102 l 1
 195 -100 170 -99 146 -99 c 0
 118 -99 96 -100 50 -102 c 1
 45 -94 l 1
 67 6 75 44 81 86 c 2
 165 645 l 2
 167 660 168 672 170 715 c 1
 177 723 l 1
 222 721 243 720 268 720 c 0
 291 720 317 721 381 723 c 1
 376 684 l 1
EndSplineSet
EndChar

StartChar: backslash
Encoding: 60 92 61
Width: 606
Flags: W
HStem: 0 21G<433.667 534> 700 20G<72 172.333>
LayerCount: 2
Fore
SplineSet
72 720 m 1
 162 720 l 1
 534 0 l 1
 444 0 l 1
 72 720 l 1
EndSplineSet
EndChar

StartChar: bracketright
Encoding: 61 93 62
Width: 333
Flags: W
HStem: -102 39<-16 100.309> 684 36<96 204.374>
LayerCount: 2
Fore
SplineSet
-16 -63 m 1
 59 -65 l 2
 99 -64 99 -63 113 18 c 2
 199 565 l 2
 206 608 208 628 208 643 c 0
 208 670 199 683 178 684 c 2
 91 688 l 1
 96 723 l 1
 165 721 190 720 214 720 c 0
 242 720 264 721 310 723 c 1
 315 715 l 1
 294 621 286 580 279 535 c 2
 195 -24 l 2
 193 -39 192 -56 190 -94 c 1
 183 -102 l 1
 138 -100 117 -99 91 -99 c 0
 69 -99 42 -100 -21 -102 c 1
 -16 -63 l 1
EndSplineSet
EndChar

StartChar: asciicircum
Encoding: 62 94 63
Width: 606
Flags: W
HStem: 658 20G<253.074 351.975>
LayerCount: 2
Fore
SplineSet
160 275 m 1
 63 275 l 1
 263 678 l 1
 342 678 l 1
 543 275 l 1
 446 275 l 1
 303 554 l 1
 160 275 l 1
EndSplineSet
EndChar

StartChar: underscore
Encoding: 63 95 64
Width: 500
Flags: W
HStem: -125 69<-10 490>
LayerCount: 2
Fore
SplineSet
-10 -56 m 1
 490 -56 l 1
 490 -125 l 1
 -10 -125 l 1
 -10 -56 l 1
EndSplineSet
EndChar

StartChar: quoteleft
Encoding: 571 8216 65
Width: 278
Flags: W
HStem: 431 289
VStem: 65 226
LayerCount: 2
Fore
SplineSet
79 431 m 1
 65 445 l 1
 124 559 169 628 225 692 c 1
 275 720 l 1
 291 709 l 1
 243 628 215 552 200 462 c 1
 173 460 170 459 115 442 c 2
 79 431 l 1
EndSplineSet
EndChar

StartChar: a
Encoding: 65 97 66
Width: 556
Flags: W
HStem: -17 84<111.614 180.187> 417 52<255.277 375.899>
VStem: 44 112<27.0589 198.305> 313 105<11.8684 142.164>
LayerCount: 2
Fore
SplineSet
444 443 m 1
 489 470 l 1
 505 458 l 1
 487 409 480 385 473 353 c 2
 428 139 l 2
 422 110 418 91 418 90 c 0
 420 72 423 67 432 67 c 0
 443 67 466 79 487 96 c 2
 507 112 l 1
 519 82 l 1
 443 15 387 -17 345 -17 c 0
 325 -17 313 0 313 28 c 0
 313 45 315 64 320 83 c 2
 357 234 l 1
 265 71 174 -17 98 -17 c 0
 66 -17 44 14 44 58 c 0
 44 138 80 274 115 327 c 0
 131 353 200 411 253 446 c 0
 280 463 303 469 342 469 c 0
 375 469 397 463 444 443 c 1
377 395 m 1
 343 411 322 417 296 417 c 0
 253 417 225 388 203 318 c 0
 178 241 156 139 156 102 c 0
 156 82 164 65 173 65 c 0
 195 65 233 99 274 153 c 0
 330 228 363 305 377 395 c 1
EndSplineSet
Substitution2: "Single Substitution lookup 21 subtable" ordfeminine
Substitution2: "'aalt' Access All Alternates lookup 0 subtable" ordfeminine
EndChar

StartChar: b
Encoding: 66 98 67
Width: 537
Flags: W
HStem: -17 46<127.5 268.52> 449 20G<397 444> 652 28<57 126.848> 706 20G<230.5 265>
VStem: 44 110<48.9997 233.44> 380 114<213.74 395.327>
LayerCount: 2
Fore
SplineSet
255 726 m 1
 265 717 l 1
 257 682 255 670 251 652 c 2
 180 304 l 1
 220 363 242 389 279 416 c 0
 327 451 374 469 420 469 c 0
 468 469 494 428 494 353 c 0
 494 206 436 95 324 31 c 0
 272 1 213 -17 166 -17 c 0
 89 -17 44 24 44 93 c 0
 44 110 45 117 53 165 c 2
 126 596 l 2
 128 608 129 618 129 627 c 0
 129 644 118 652 95 652 c 2
 50 652 l 1
 57 680 l 1
 157 695 206 706 255 726 c 1
342 403 m 0
 302 407 223 340 193 277 c 0
 169 226 154 164 154 118 c 0
 154 63 180 29 222 29 c 0
 263 29 301 61 331 121 c 0
 356 172 380 267 380 320 c 0
 380 370 366 401 342 403 c 0
EndSplineSet
EndChar

StartChar: c
Encoding: 67 99 68
Width: 444
Flags: W
HStem: -17 67<119.5 257.768> 407 62<238.669 352.229>
VStem: 32 114<75.0016 256.889> 368 33<304 360>
LayerCount: 2
Fore
SplineSet
391 120 m 1
 401 90 l 1
 283 8 227 -17 158 -17 c 0
 81 -17 32 36 32 119 c 0
 32 191 56 286 85 332 c 0
 103 360 138 389 190 420 c 0
 255 459 282 469 322 469 c 0
 358 469 383 464 436 445 c 1
 421 406 418 391 401 304 c 1
 368 304 l 1
 374 360 l 1
 370 374 l 1
 338 397 309 407 278 407 c 0
 238 407 206 383 186 339 c 0
 165 292 146 198 146 140 c 0
 146 85 177 50 225 50 c 0
 273 50 312 67 391 120 c 1
EndSplineSet
EndChar

StartChar: d
Encoding: 68 100 69
Width: 556
Flags: W
HStem: -17 21G<82.5 116.5 340 361> 419 50<246.899 382.984> 652 28<342 411.848> 706 20G<515.5 550>
VStem: 38 114<34.3149 222.738> 315 109<13.2909 131.117>
LayerCount: 2
Fore
SplineSet
396 460 m 1
 414 572 l 2
 418 594 418 598 418 610 c 0
 418 640 407 652 380 652 c 2
 335 652 l 1
 342 680 l 1
 442 695 491 706 540 726 c 1
 550 717 l 1
 547 704 546 699 544 693 c 0
 544 692 541 678 536 652 c 2
 429 121 l 2
 426 105 424 91 424 81 c 0
 424 72 430 65 437 65 c 0
 443 65 451 70 487 93 c 2
 513 110 l 1
 522 82 l 1
 486 56 l 2
 428 13 372 -17 350 -17 c 0
 330 -17 315 1 315 24 c 0
 315 38 317 55 322 74 c 2
 362 238 l 1
 297 130 264 86 217 45 c 0
 168 3 132 -17 101 -17 c 0
 64 -17 38 20 38 70 c 0
 38 169 72 297 112 348 c 0
 137 382 198 425 256 452 c 0
 283 464 303 469 331 469 c 0
 352 469 368 467 396 460 c 1
360 306 m 2
 384 401 l 1
 347 415 328 419 299 419 c 0
 249 419 231 406 208 353 c 0
 179 287 152 160 152 92 c 0
 152 76 161 65 176 65 c 0
 196 65 225 87 254 124 c 0
 307 190 349 262 360 306 c 2
EndSplineSet
EndChar

StartChar: e
Encoding: 69 101 70
Width: 444
Flags: W
HStem: -17 64<111.5 246.01> 421 48<234.6 353.5>
VStem: 28 114<66.6566 213.405> 324 94<310.621 414.046>
LayerCount: 2
Fore
SplineSet
387 86 m 1
 358 68 l 2
 258 3 210 -17 149 -17 c 0
 74 -17 28 27 28 99 c 0
 28 169 55 273 88 331 c 0
 127 400 246 469 325 469 c 0
 382 469 418 435 418 382 c 0
 418 323 383 277 311 243 c 0
 269 223 233 212 147 193 c 1
 143 164 142 149 142 129 c 0
 142 77 168 47 215 47 c 0
 256 47 302 66 377 114 c 1
 387 86 l 1
151 219 m 1
 192 231 l 2
 274 255 324 307 324 368 c 0
 324 401 306 421 276 421 c 0
 227 421 187 370 165 277 c 2
 151 219 l 1
EndSplineSet
EndChar

StartChar: f
Encoding: 70 102 71
Width: 333
Flags: W
HStem: -271 75<-102.88 -18> 403 59<251.959 367.641> 403 51<250 365.835> 403 25<39 60.875> 646 80<323.5 409>
LayerCount: 2
Fore
SplineSet
362 403 m 1xc8
 239 403 l 1
 184 168 l 2
 136 -36 106 -112 44 -184 c 0
 4 -232 -58 -271 -92 -271 c 0
 -105 -271 -121 -267 -130 -262 c 1
 -119 -238 -103 -183 -98 -155 c 1
 -81 -152 l 1
 -67 -183 -52 -196 -30 -196 c 0
 -6 -196 7 -180 20 -135 c 0
 28 -106 30 -97 54 29 c 2
 125 403 l 1
 34 403 l 1
 39 428 l 1x98
 89 444 l 2
 114 452 129 458 139 463 c 1
 140 469 141 472 143 483 c 0
 155 542 166 561 210 602 c 2
 266 651 l 2
 281 664 316 689 345 707 c 0
 370 722 381 726 402 726 c 0
 416 726 427 724 449 718 c 1
 436 670 429 640 421 593 c 1
 406 590 l 1
 374 635 359 646 333 646 c 0
 314 646 300 637 289 615 c 0
 278 595 278 595 250 454 c 1xa8
 292 455 321 457 373 462 c 1xc8
 378 454 l 1xa8
 372 439 368 428 362 403 c 1xc8
EndSplineSet
EndChar

StartChar: g
Encoding: 71 103 72
Width: 500
Flags: W
HStem: -271 36<96.4338 256.212> 137 35<182.131 212> 394 52<431.603 519> 425 44<207.028 316.355>
VStem: -50 89<-189.183 -83.3636> 54 103<192.555 353.739> 309 104<-175.579 -93.5644> 334 108<249.982 392.797>
LayerCount: 2
Fore
SplineSet
519 390 m 1xee
 431 394 l 1
 439 370 442 356 442 335 c 0xed
 442 264 405 206 339 173 c 0
 320 163 312 160 275 146 c 0
 244 134 227 119 227 103 c 0
 227 92 236 79 250 69 c 2
 335 9 l 2
 391 -30 413 -63 413 -105 c 0
 413 -201 306 -271 159 -271 c 0
 33 -271 -50 -222 -50 -147 c 0
 -50 -109 -30 -75 9 -47 c 0
 39 -25 73 -10 142 12 c 1
 127 24 117 42 116 61 c 1
 120 81 l 1
 212 137 l 1
 149 138 117 146 90 169 c 0
 65 191 54 220 54 265 c 0
 54 326 76 371 120 404 c 0
 169 440 245 469 290 469 c 0xde
 318 469 352 461 380 449 c 1
 399 447 417 446 434 446 c 2
 453 446 l 1
 524 449 l 1
 529 440 l 1
 519 390 l 1xee
266 425 m 0xdd
 232 425 205 409 187 379 c 0
 170 352 157 296 157 256 c 0
 157 204 185 172 230 172 c 0
 292 172 334 240 334 340 c 0
 334 395 310 425 266 425 c 0xdd
163 -5 m 1
 135 -18 l 2
 69 -49 39 -84 39 -131 c 0
 39 -193 95 -235 178 -235 c 0
 253 -235 309 -196 309 -144 c 0xce
 309 -113 293 -92 245 -60 c 2
 163 -5 l 1
EndSplineSet
EndChar

StartChar: h
Encoding: 72 104 73
Width: 556
Flags: W
HStem: -17 82<323.282 441> 381 88<337 474.5> 652 28<78 147.808> 706 20G<251.5 286>
VStem: 306 118<14.5905 140.02> 379 122<319.151 440.13>
LayerCount: 2
Fore
SplineSet
269 652 m 2xf4
 180 244 l 1
 265 379 378 469 463 469 c 0
 486 469 501 451 501 425 c 0xf4
 501 401 496 374 481 325 c 0
 474 303 474 303 470 288 c 2
 432 144 l 2
 427 124 424 103 424 81 c 0
 424 70 428 65 436 65 c 0
 446 65 460 72 497 95 c 2
 513 105 l 1
 522 79 l 1
 419 8 371 -17 337 -17 c 0
 319 -17 306 0 306 25 c 0xf8
 306 55 322 124 354 237 c 0
 371 295 379 332 379 352 c 0
 379 370 372 381 359 381 c 0
 315 381 240 302 194 208 c 0
 167 153 147 80 138 4 c 1
 102 2 54 -6 32 -13 c 1
 22 -2 l 1
 40 35 69 158 102 334 c 0
 131 488 150 603 150 626 c 0
 150 644 140 652 116 652 c 2
 71 652 l 1
 78 680 l 1
 178 695 227 706 276 726 c 1
 286 717 l 1
 283 704 280 694 279 689 c 0
 274 671 270 658 269 652 c 2xf4
EndSplineSet
EndChar

StartChar: i
Encoding: 73 105 74
Width: 333
Flags: W
HStem: -17 82<89.5 198> 449 20G<224.5 246.5> 564 131<208.75 293.654>
VStem: 67 114<12.2499 142.079> 140 124<319.035 436.422> 189 123<582.866 674.977>
LayerCount: 2
Fore
SplineSet
26 346 m 1xe8
 89 393 l 2
 150 439 210 469 239 469 c 0
 254 469 264 454 264 432 c 0xe8
 264 412 260 384 255 365 c 2
 201 169 l 2
 188 122 181 89 181 76 c 0
 181 70 186 65 193 65 c 0
 203 65 219 73 254 95 c 2
 281 112 l 1
 293 84 l 1
 282 76 278 74 265 64 c 0
 184 6 137 -17 99 -17 c 0
 80 -17 67 0 67 26 c 0xf0
 67 42 70 64 73 78 c 2
 132 319 l 2
 138 345 140 353 140 359 c 0
 140 366 136 370 130 370 c 0
 121 370 80 350 61 336 c 2
 39 320 l 1
 26 346 l 1xe8
257 695 m 0
 289 695 312 670 312 636 c 0
 312 595 283 564 244 564 c 0
 209 564 189 585 189 621 c 0xe4
 189 663 219 695 257 695 c 0
EndSplineSet
EndChar

StartChar: j
Encoding: 74 106 75
Width: 333
Flags: W
HStem: -271 54<-32.3125 30.7933> 449 20G<234 256> 564 131<219.896 304.634>
VStem: 150 124<312.812 434.484> 200 123<582.866 674.977>
LayerCount: 2
Fore
SplineSet
49 320 m 1xf0
 36 346 l 1
 99 393 l 2
 160 439 220 469 248 469 c 0
 264 469 274 454 274 429 c 0
 274 410 271 390 265 365 c 2
 198 91 l 2
 165 -44 134 -123 91 -185 c 0
 50 -243 11 -271 -30 -271 c 0
 -39 -271 -47 -270 -64 -266 c 1
 -59 -238 -56 -218 -54 -187 c 1
 -40 -184 l 1
 -26 -207 -12 -217 4 -217 c 0
 24 -217 39 -193 50 -139 c 2
 136 269 l 2
 146 316 150 342 150 357 c 0
 150 366 147 370 140 370 c 0
 131 370 90 350 71 336 c 2
 49 320 l 1xf0
268 695 m 0
 300 695 323 670 323 636 c 0
 323 595 294 564 254 564 c 0
 220 564 200 585 200 621 c 0xe8
 200 663 230 695 268 695 c 0
EndSplineSet
EndChar

StartChar: k
Encoding: 75 107 76
Width: 556
Flags: W
HStem: -17 82<342.5 442.5> 398 71<411.396 511.69> 652 28<88 157.808> 706 20G<261.5 296>
VStem: 34 115<2.02591 67.6477>
LayerCount: 2
Fore
SplineSet
286 726 m 1
 296 717 l 1
 294 708 290 694 289 689 c 0
 284 671 280 659 279 652 c 2
 184 221 l 1
 224 276 273 330 331 385 c 0
 394 445 438 469 485 469 c 0
 498 469 512 466 528 460 c 1
 508 390 l 1
 487 396 474 398 459 398 c 0
 406 398 360 373 313 318 c 1
 378 145 l 2
 396 97 420 65 437 65 c 0
 448 65 459 70 483 85 c 2
 510 102 l 1
 520 73 l 1
 476 42 l 2
 421 3 379 -17 354 -17 c 0
 331 -17 315 6 288 80 c 2
 231 235 l 1
 200 201 l 2
 179 176 177 170 165 110 c 0
 153 53 151 37 149 4 c 1
 120 2 104 -1 44 -14 c 1
 34 -5 l 1
 51 38 80 166 112 334 c 0
 141 488 160 603 160 626 c 0
 160 644 150 652 126 652 c 2
 81 652 l 1
 88 680 l 1
 188 695 237 706 286 726 c 1
EndSplineSet
EndChar

StartChar: l
Encoding: 76 108 77
Width: 333
Flags: W
HStem: -17 82<85 199.5> 652 28<110 179.848> 706 20G<283.5 318>
VStem: 64 118<18.2161 168.542>
LayerCount: 2
Fore
SplineSet
277 114 m 1
 291 87 l 1
 174 2 139 -17 96 -17 c 0
 74 -17 64 0 64 36 c 0
 64 70 65 78 80 146 c 2
 179 596 l 2
 182 608 183 618 183 627 c 0
 183 644 171 652 148 652 c 2
 103 652 l 1
 110 680 l 1
 210 695 259 706 308 726 c 1
 318 717 l 1
 315 705 312 695 311 689 c 0
 306 671 302 659 301 652 c 2
 194 170 l 2
 186 136 182 102 182 79 c 0
 182 70 186 65 194 65 c 0
 205 65 228 76 247 91 c 2
 277 114 l 1
EndSplineSet
EndChar

StartChar: m
Encoding: 77 109 78
Width: 833
Flags: W
HStem: -13 17G<41 61.5 305 325.5 603 624.5> 449 20G<199.5 220.5 449.5 475 718.5 749.5>
VStem: 41 114<2.28833 62.6146> 124 113<324.31 442.372> 389 113<317.291 438.377> 577 118<11.3984 145.176> 652 123<309.524 436.266>
LayerCount: 2
Fore
SplineSet
19 348 m 1xd8
 103 416 l 2
 142 448 186 469 213 469 c 0
 228 469 237 458 237 439 c 0
 237 422 233 400 218 336 c 2
 189 212 l 1
 243 313 291 370 367 426 c 0
 411 458 436 469 463 469 c 0
 487 469 502 452 502 423 c 0
 502 401 497 378 483 327 c 2
 449 207 l 1
 485 284 525 338 582 389 c 0
 638 437 699 469 738 469 c 0
 761 469 775 451 775 422 c 0xda
 775 401 772 377 765 353 c 2
 715 169 l 2
 702 122 695 89 695 76 c 0
 695 70 700 65 706 65 c 0
 717 65 737 76 767 97 c 2
 791 114 l 1
 803 89 l 1
 750 45 728 30 695 11 c 0
 658 -9 635 -17 614 -17 c 0
 592 -17 577 -1 577 23 c 0xcc
 577 62 591 123 631 263 c 0
 644 306 652 342 652 354 c 0
 652 363 645 370 636 370 c 0
 599 370 526 299 482 220 c 0
 446 157 425 85 419 4 c 1
 383 2 336 -6 315 -13 c 1
 305 -2 l 1
 347 126 389 298 389 343 c 0
 389 360 382 370 370 370 c 0
 333 370 292 333 242 255 c 0
 196 184 171 110 155 4 c 1
 119 2 72 -6 51 -13 c 1
 41 -2 l 1xea
 85 132 124 298 124 354 c 0
 124 364 119 370 112 370 c 0
 102 370 87 363 70 350 c 2
 33 322 l 1
 19 348 l 1xd8
EndSplineSet
EndChar

StartChar: n
Encoding: 78 110 79
Width: 556
Flags: W
HStem: -17 82<330.5 438.5> 449 20G<190.5 211.5 437.5 472.5>
VStem: 305 118<12.4508 137.929> 378 122<322.852 438.086>
LayerCount: 2
Fore
SplineSet
30 331 m 1xd0
 17 358 l 1
 101 420 l 2
 146 454 178 469 203 469 c 0
 220 469 230 458 230 439 c 0
 230 410 224 384 196 282 c 2
 179 222 l 1
 214 282 231 307 266 344 c 0
 334 418 414 469 461 469 c 0
 484 469 500 452 500 426 c 0xd0
 500 413 494 384 484 344 c 2
 436 160 l 2
 427 127 423 101 423 81 c 0
 423 70 426 65 433 65 c 0
 444 65 454 70 479 87 c 2
 508 107 l 1
 521 80 l 1
 511 73 506 69 492 59 c 0
 417 3 377 -17 341 -17 c 0
 320 -17 305 0 305 25 c 0xe0
 305 54 322 126 353 237 c 0
 369 289 378 333 378 349 c 0
 378 363 371 370 358 370 c 0
 310 370 219 260 181 154 c 0
 168 120 151 50 145 4 c 1
 109 2 61 -6 39 -13 c 1
 29 -2 l 1
 75 137 114 298 114 353 c 0
 114 365 111 370 103 370 c 0
 92 370 78 364 62 353 c 2
 30 331 l 1xd0
EndSplineSet
Substitution2: "'sups' Superscript lookup 3 subtable" nsuperior
Substitution2: "'aalt' Access All Alternates lookup 0 subtable" nsuperior
EndChar

StartChar: o
Encoding: 79 111 80
Width: 556
Flags: W
HStem: -17 44<190.366 300.628> 425 44<250.14 359.677>
VStem: 48 114<54.9332 263.951> 388 114<185.262 395.725>
LayerCount: 2
Fore
SplineSet
350 469 m 0
 446 469 502 414 502 319 c 0
 502 256 483 174 456 126 c 0
 435 86 377 37 321 10 c 0
 281 -9 242 -17 196 -17 c 0
 98 -17 48 34 48 135 c 0
 48 176 56 222 72 272 c 0
 93 337 127 380 189 419 c 0
 241 452 296 469 350 469 c 0
308 425 m 0
 275 425 247 408 223 374 c 0
 188 324 162 220 162 130 c 0
 162 67 193 27 243 27 c 0
 275 27 303 44 327 78 c 0
 362 128 388 232 388 323 c 0
 388 385 356 425 308 425 c 0
EndSplineSet
Substitution2: "Single Substitution lookup 21 subtable" ordmasculine
Substitution2: "'aalt' Access All Alternates lookup 0 subtable" ordmasculine
EndChar

StartChar: p
Encoding: 80 112 81
Width: 556
Flags: W
HStem: -17 49<170.411 299.56> 391 78<357.066 447.41>
VStem: -21 122<-252.936 -184.697> 114 116<312.107 441.118> 402 114<226.016 388.88>
LayerCount: 2
Fore
SplineSet
-11 -271 m 1
 -21 -264 l 1
 -9 -224 -2 -197 11 -142 c 2
 90 198 l 2
 102 249 114 328 114 354 c 0
 114 365 110 370 103 370 c 0
 92 370 78 364 62 353 c 2
 30 331 l 1
 17 358 l 1
 101 420 l 2
 146 454 178 469 203 469 c 0
 221 469 230 458 230 438 c 0
 230 420 227 402 219 359 c 0
 218 354 213 333 204 294 c 2
 195 253 l 1
 242 332 269 366 312 403 c 0
 366 448 413 469 460 469 c 0
 497 469 516 436 516 370 c 0
 516 251 474 138 409 82 c 0
 371 50 318 13 291 0 c 0
 266 -11 238 -17 205 -17 c 0
 184 -17 170 -15 149 -10 c 1
 113 -152 105 -189 101 -250 c 1
 83 -252 64 -255 21 -264 c 0
 6 -268 2 -269 -11 -271 c 1
175 121 m 2
 161 59 l 1
 195 40 223 32 255 32 c 0
 287 32 316 52 335 86 c 0
 373 154 402 263 402 334 c 0
 402 371 393 391 374 391 c 0
 337 391 284 346 237 274 c 0
 203 222 191 191 175 121 c 2
EndSplineSet
EndChar

StartChar: q
Encoding: 81 113 82
Width: 537
Flags: W
HStem: -17 82<68.5 180.5> 417 52<254.55 381.059>
VStem: 32 114<25.9993 197.443> 260 99<-235.978 -113>
LayerCount: 2
Fore
SplineSet
448 443 m 1
 495 469 l 1
 513 458 l 1
 498 427 490 397 472 315 c 2
 380 -113 l 1
 379 -117 l 1
 378 -123 l 2
 366 -176 359 -218 359 -241 c 0
 359 -242 359 -246 360 -252 c 1
 315 -255 283 -259 228 -271 c 1
 219 -253 l 1
 234 -241 l 2
 242 -234 251 -211 260 -173 c 0
 260 -171 261 -168 262 -165 c 2
 345 194 l 1
 237 50 154 -17 83 -17 c 0
 54 -17 32 14 32 56 c 0
 32 137 68 276 103 328 c 0
 120 353 171 395 236 436 c 0
 281 464 294 469 332 469 c 0
 377 469 409 462 448 443 c 1
374 357 m 2
 382 396 l 1
 347 412 326 417 298 417 c 0
 261 417 240 406 223 379 c 0
 190 326 146 164 146 98 c 0
 146 78 155 65 168 65 c 0
 193 65 229 94 279 154 c 0
 331 217 356 271 374 357 c 2
EndSplineSet
EndChar

StartChar: r
Encoding: 82 114 83
Width: 389
Flags: W
HStem: -17 21G<44 68.5> 339 130<324.457 388.135>
VStem: 121 113<327.843 441.132>
LayerCount: 2
Fore
SplineSet
20 352 m 1
 101 416 l 2
 146 451 182 469 209 469 c 0
 225 469 234 458 234 437 c 0
 234 422 230 401 219 359 c 0
 215 339 211 324 203 290 c 2
 187 219 l 1
 264 376 280 404 307 432 c 0
 331 457 356 469 384 469 c 0
 394 469 401 468 411 463 c 1
 396 397 391 368 391 326 c 1
 379 320 l 1
 357 334 344 339 327 339 c 0
 281 339 242 292 204 188 c 0
 188 143 177 93 163 2 c 1
 105 -4 82 -8 55 -17 c 1
 44 -5 l 1
 58 38 65 62 71 87 c 2
 95 194 l 2
 121 327 121 327 121 354 c 0
 121 364 117 370 109 370 c 0
 100 370 85 363 67 350 c 2
 33 326 l 1
 20 352 l 1
EndSplineSet
EndChar

StartChar: s
Encoding: 83 115 84
Width: 444
Flags: W
HStem: -17 55<121.157 259.723> 414 55<198.698 320.165>
VStem: 46 30<81.5038 141> 68 93<268.359 366.403> 294 100<92.563 186> 359 30<322 370>
LayerCount: 2
Fore
SplineSet
76 141 m 1xe8
 76 94 l 1
 110 58 156 38 206 38 c 0
 260 38 294 66 294 110 c 0xe8
 294 146 272 168 226 177 c 2
 182 186 l 2
 106 201 68 239 68 298 c 0
 68 343 85 372 131 405 c 0
 198 453 236 469 284 469 c 0
 330 469 365 460 406 438 c 1
 404 427 403 422 400 405 c 0
 391 357 389 346 389 322 c 1
 359 322 l 1
 353 370 l 1
 314 401 282 414 243 414 c 0
 194 414 161 385 161 341 c 0xd4
 161 306 180 291 237 278 c 2
 296 265 l 2
 357 252 394 212 394 160 c 0
 394 123 381 97 348 66 c 0
 289 10 227 -17 162 -17 c 0
 124 -17 92 -11 25 10 c 1
 38 72 42 100 46 141 c 1
 76 141 l 1xe8
EndSplineSet
Substitution2: "'hist' Historical Forms lookup 18 subtable" longs
Substitution2: "'aalt' Access All Alternates lookup 0 subtable" longs
EndChar

StartChar: t
Encoding: 84 116 85
Width: 389
Flags: W
HStem: -17 81<115.5 230> 401 51<269 395.549> 401 27<49 74.1562>
VStem: 79 117<17.877 163.464>
LayerCount: 2
Fore
SplineSet
151 401 m 1xb0
 42 401 l 1
 49 428 l 1xb0
 164 460 l 1
 177 532 180 555 180 582 c 2
 180 598 l 1
 202 601 217 605 237 612 c 2
 303 636 l 1
 313 624 l 1
 297 566 289 538 282 508 c 2
 269 452 l 1
 403 457 l 1
 409 452 l 1
 395 396 l 1
 366 400 346 401 303 401 c 2xd0
 256 401 l 1
 205 164 l 2
 199 135 196 113 196 92 c 0
 196 71 202 64 221 64 c 0
 239 64 252 69 274 85 c 2
 330 125 l 1
 343 99 l 1
 266 42 l 2
 210 1 170 -17 133 -17 c 0
 98 -17 79 4 79 44 c 0
 79 60 79 63 89 108 c 2
 151 401 l 1xb0
EndSplineSet
EndChar

StartChar: u
Encoding: 85 117 86
Width: 556
Flags: W
HStem: -17 21G<84 132.5 336 356.5> 449 20G<204 225.5 485.5 516>
VStem: 53 117<18.0254 130.013> 312 108<14.7979 127.44> 397 119<383.371 447>
LayerCount: 2
Fore
SplineSet
22 365 m 1xf0
 101 419 l 2
 146 450 191 469 217 469 c 0
 234 469 244 456 244 434 c 0
 244 405 241 387 215 287 c 2
 180 150 l 2
 174 125 170 101 170 84 c 0
 170 76 176 71 186 71 c 0
 215 71 268 124 317 202 c 0
 365 280 395 370 397 447 c 1
 430 446 464 452 507 465 c 1
 516 454 l 1xe8
 492 375 483 346 474 313 c 0
 465 275 439 174 438 171 c 0
 436 164 435 160 434 158 c 0
 425 125 420 98 420 86 c 0
 420 79 426 74 434 74 c 0
 448 74 469 83 489 99 c 2
 511 116 l 1
 521 88 l 1
 507 78 492 67 486 62 c 0
 427 17 367 -17 346 -17 c 0
 326 -17 312 0 312 26 c 0
 312 42 317 67 328 107 c 2
 360 224 l 1
 261 68 168 -17 97 -17 c 0
 71 -17 53 6 53 40 c 0
 53 57 57 80 66 114 c 0
 69 122 70 128 71 130 c 2
 72 136 l 2
 78 158 82 177 87 193 c 0
 110 283 121 333 121 354 c 0
 121 364 115 370 104 370 c 0
 94 370 82 366 71 360 c 2
 35 339 l 1
 22 365 l 1xf0
EndSplineSet
EndChar

StartChar: v
Encoding: 86 118 87
Width: 556
Flags: W
HStem: -17 63<168 289.631> 392 69<75.1004 252.405> 449 20G<304 324 438.5 462>
VStem: 87 110<66.5132 225.524> 436 77<261.439 383.064>
LayerCount: 2
Fore
SplineSet
19 324 m 1xd8
 60 456 l 1
 82 460 95 461 111 461 c 0xd8
 128 461 159 460 195 457 c 0
 217 456 240 455 245 455 c 0
 271 455 298 461 310 469 c 1
 324 450 l 1
 264 380 240 338 217 269 c 0
 204 227 197 187 197 147 c 0
 197 81 220 46 263 46 c 0
 306 46 344 76 378 135 c 0
 412 195 436 278 436 334 c 0
 436 366 420 389 397 389 c 0
 382 389 370 385 361 377 c 1
 351 398 l 1
 370 412 385 428 417 465 c 1
 429 468 434 469 443 469 c 0xb8
 481 469 513 423 513 370 c 0
 513 279 452 149 368 63 c 0
 319 12 260 -17 205 -17 c 0
 131 -17 87 35 87 123 c 0
 87 207 119 268 213 362 c 2
 254 403 l 1
 220 395 184 392 116 392 c 0
 88 392 77 390 75 384 c 2
 47 324 l 1
 19 324 l 1xd8
EndSplineSet
EndChar

StartChar: w
Encoding: 87 119 88
Width: 833
Flags: W
HStem: -17 63<161 264.05 463.5 575.45> 392 69<83.1004 260.405> 449 20G<312 332 531 564 727.5 750.5>
VStem: 91 114<59.941 222.051> 399 97<61.0433 226.339> 725 77<263.564 383.371>
LayerCount: 2
Fore
SplineSet
27 324 m 1xdc
 68 456 l 1
 90 460 103 461 119 461 c 0xdc
 136 461 167 460 203 457 c 0
 225 456 248 455 253 455 c 0
 279 455 306 461 318 469 c 1
 332 450 l 1
 272 380 247 338 225 269 c 0
 212 227 205 186 205 145 c 0
 205 85 224 46 253 46 c 0
 309 46 385 154 411 269 c 2
 435 378 l 2
 440 403 442 414 445 442 c 1
 484 447 510 453 552 469 c 1
 564 460 l 1
 518 299 496 189 496 127 c 0
 496 79 519 46 553 46 c 0
 593 46 631 76 665 137 c 0
 700 198 725 281 725 335 c 0
 725 368 709 389 683 389 c 0
 669 389 658 387 647 381 c 1
 635 404 l 1
 669 427 685 441 706 465 c 1
 718 468 723 469 732 469 c 0xbc
 769 469 802 423 802 371 c 0
 802 280 741 153 657 65 c 0
 606 13 546 -17 492 -17 c 0
 435 -17 399 24 399 90 c 0
 399 115 401 133 408 177 c 1
 365 94 333 53 282 16 c 0
 250 -7 222 -17 192 -17 c 0
 130 -17 91 35 91 120 c 0
 91 204 124 265 221 362 c 2
 262 403 l 1
 228 395 192 392 124 392 c 0
 96 392 85 390 83 384 c 2
 55 324 l 1
 27 324 l 1xdc
EndSplineSet
EndChar

StartChar: x
Encoding: 88 120 89
Width: 500
Flags: W
HStem: -17 80<28.5 88.2092 293.5 376.5> 384 85<95.5003 187 408.151 472.331>
VStem: 8 24<69 98> 456 21<353 369.778>
LayerCount: 2
Fore
SplineSet
8 98 m 1
 32 100 l 1
 38 69 l 1
 49 65 57 63 66 63 c 0
 96 63 125 83 154 124 c 2
 206 197 l 1
 190 285 l 2
 179 346 156 384 131 384 c 0
 107 384 74 362 59 335 c 1
 36 348 l 1
 50 366 64 389 85 429 c 0
 89 439 90 440 95 449 c 1
 136 465 150 469 171 469 c 0
 203 469 231 456 248 433 c 0
 264 412 274 381 284 322 c 2
 288 299 l 1
 351 386 l 2
 391 441 428 469 461 469 c 0
 473 469 488 465 500 459 c 1
 488 436 484 417 477 353 c 1
 456 348 l 1
 447 376 l 1
 438 380 433 381 427 381 c 0
 402 381 365 353 334 312 c 2
 296 261 l 1
 307 197 l 2
 315 152 328 107 339 84 c 0
 346 72 358 64 371 64 c 0
 382 64 389 68 418 88 c 2
 448 109 l 1
 464 86 l 1
 446 70 l 2
 369 5 333 -17 303 -17 c 0
 284 -17 266 -7 254 10 c 0
 240 28 233 53 224 102 c 2
 214 160 l 1
 129 46 l 2
 100 7 64 -17 35 -17 c 0
 22 -17 11 -13 -8 -3 c 1
 1 36 5 61 8 98 c 1
EndSplineSet
EndChar

StartChar: y
Encoding: 89 121 90
Width: 556
Flags: W
HStem: -271 46<112.955 205.322> -17 84<133.5 239> 449 20G<184.5 208 507.5 541>
VStem: 100 107<31.6164 306.945> 126 109<180.711 430.053>
LayerCount: 2
Fore
SplineSet
27 329 m 1xe8
 13 357 l 1
 93 419 l 2
 131 449 173 469 196 469 c 0
 220 469 235 445 235 406 c 0xe8
 235 382 233 354 230 326 c 2
 211 163 l 2
 208 136 207 124 207 108 c 0
 207 82 213 67 224 67 c 0
 254 67 305 123 347 202 c 0
 388 279 417 378 419 447 c 1
 452 446 486 452 529 465 c 1
 541 453 l 1
 522 413 499 338 457 185 c 0
 407 -3 391 -43 341 -122 c 0
 283 -214 198 -271 120 -271 c 0
 84 -271 51 -254 36 -227 c 0
 27 -212 24 -200 21 -174 c 1
 83 -134 l 1
 101 -140 l 1
 100 -147 100 -156 100 -159 c 0
 100 -201 123 -225 162 -225 c 0
 228 -225 275 -154 314 4 c 2
 355 170 l 1
 316 102 294 73 255 39 c 0
 215 3 175 -17 147 -17 c 0
 120 -17 100 20 100 70 c 0xf0
 100 90 102 114 106 155 c 2
 125 337 l 2
 126 343 126 348 126 351 c 0
 126 363 119 370 108 370 c 0
 88 370 61 356 27 329 c 1xe8
EndSplineSet
EndChar

StartChar: z
Encoding: 90 122 91
Width: 500
Flags: W
HStem: -17 98<226.884 399.616> -5 21G<36.3333 59.5> 22 75<102.481 243.741> 356 76<257.052 403.204> 367 102<126.557 281.978>
LayerCount: 2
Fore
SplineSet
31 25 m 1x60
 377 379 l 1
 341 362 318 356 288 356 c 0x70
 257 356 208 360 148 367 c 0
 142 367 138 368 126 369 c 1
 103 317 l 1
 74 320 l 1
 119 459 l 1
 140 466 159 469 175 469 c 0x08
 194 469 216 465 271 450 c 0
 320 437 353 432 383 432 c 0x10
 409 432 431 441 441 456 c 2
 450 469 l 1
 470 461 l 1
 456 411 l 1
 128 74 l 1
 177 92 199 97 226 97 c 0x28
 255 97 289 94 328 87 c 0
 351 83 367 81 382 81 c 0
 384 81 388 81 395 82 c 1
 423 140 l 1
 451 138 l 1
 440 108 424 51 422 33 c 0
 416 -9 407 -17 365 -17 c 0x80
 323 -17 272 -8 209 9 c 0
 174 19 152 22 124 22 c 0
 93 22 72 15 47 -5 c 1
 31 25 l 1x60
EndSplineSet
EndChar

StartChar: braceleft
Encoding: 91 123 92
Width: 333
Flags: W
HStem: -105 2<189.051 191> 718 2<331.262 334>
VStem: 40 94<-75.8679 110.836> 78 93<162.097 283.84>
LayerCount: 2
Fore
SplineSet
242 609 m 2xd0
 211 429 l 2
 197 349 171 319 104 306 c 1
 152 293 171 271 171 228 c 0xd0
 171 208 170 191 166 171 c 2
 137 3 l 2
 135 -9 134 -20 134 -31 c 0
 134 -72 149 -91 191 -103 c 1
 191 -105 l 1
 117 -105 l 2
 79 -105 40 -63 40 -23 c 0xe0
 40 -9 42 13 47 39 c 2
 75 198 l 2
 77 212 78 219 78 238 c 0
 78 275 64 291 18 305 c 1
 18 307 l 1
 76 317 101 344 112 411 c 2
 143 591 l 2
 153 643 162 664 187 686 c 0
 206 704 247 721 266 720 c 2
 334 720 l 1
 334 718 l 1
 275 701 254 675 242 609 c 2xd0
EndSplineSet
EndChar

StartChar: bar
Encoding: 92 124 93
Width: 606
Flags: W
VStem: 260 86<-244 750>
LayerCount: 2
Fore
SplineSet
260 -244 m 1
 260 750 l 1
 346 750 l 1
 346 -244 l 1
 260 -244 l 1
EndSplineSet
EndChar

StartChar: braceright
Encoding: 93 125 94
Width: 333
Flags: W
HStem: -105 2<-1 1.7379> 718 2<142 143.949>
VStem: 161 93<331.137 518.18> 199 94<504.375 690.587>
LayerCount: 2
Fore
SplineSet
91 6 m 2xe0
 122 186 l 2
 136 266 162 296 229 309 c 1
 180 322 161 344 161 387 c 0xe0
 161 401 163 422 167 444 c 2
 196 612 l 2
 198 623 199 635 199 646 c 0
 199 687 184 706 142 718 c 1
 142 720 l 1
 216 720 l 2
 255 720 293 678 293 635 c 0xd0
 293 623 292 615 287 585 c 0
 287 582 287 580 286 576 c 2
 258 417 l 2
 256 403 254 388 254 377 c 0
 254 340 269 324 315 310 c 1
 315 308 l 1
 257 298 232 270 221 204 c 2
 190 24 l 2
 180 -28 171 -49 146 -71 c 0
 126 -89 87 -106 67 -105 c 2
 -1 -105 l 1
 -1 -103 l 1
 58 -86 79 -60 91 6 c 2xe0
EndSplineSet
EndChar

StartChar: asciitilde
Encoding: 94 126 95
Width: 606
Flags: W
HStem: 174 86<342.009 466.474> 243 86<151.526 275.991>
LayerCount: 2
Fore
SplineSet
500 326 m 1x80
 561 287 l 1
 514 207 473 174 419 174 c 0x80
 391 174 371 180 310 207 c 0
 242 236 222 243 201 243 c 0
 169 243 148 226 118 177 c 1
 57 216 l 1
 104 297 145 329 199 329 c 0x40
 227 329 247 323 308 296 c 0
 376 267 396 260 417 260 c 0
 449 260 470 277 500 326 c 1x80
EndSplineSet
EndChar

StartChar: exclamdown
Encoding: 96 161 96
Width: 333
Flags: W
HStem: 327 152<144.777 234.294>
VStem: 120 139<351.875 454.074>
LayerCount: 2
Fore
SplineSet
196 479 m 0
 235 479 259 455 259 415 c 0
 259 364 228 327 185 327 c 0
 146 327 120 353 120 391 c 0
 120 443 152 479 196 479 c 0
145 252 m 1
 184 276 l 1
 197 267 l 1
 154 -163 l 1
 154 -196 l 1
 141 -196 l 1
 14 -225 l 1
 2 -216 l 1
 112 130 l 2
 123 164 131 196 145 252 c 1
EndSplineSet
EndChar

StartChar: cent
Encoding: 97 162 97
Width: 500
Flags: W
VStem: 52 115<73.6697 258.668> 391 29<305 330.028>
LayerCount: 2
Fore
SplineSet
369 547 m 1
 411 547 l 1
 381 465 l 1
 415 461 432 456 456 442 c 1
 420 303 l 1
 391 305 l 1
 391 367 l 2
 391 376 379 385 353 394 c 1
 222 50 l 1
 298 51 347 69 410 121 c 1
 421 90 l 1
 361 48 l 2
 307 11 262 -7 196 -17 c 1
 163 -105 l 1
 123 -105 l 1
 157 -15 l 1
 79 7 52 44 52 129 c 0
 52 226 94 339 143 374 c 2
 221 430 l 2
 254 453 292 465 340 469 c 1
 369 547 l 1
190 71 m 1
 317 405 l 1
 266 404 246 397 227 373 c 0
 195 331 167 228 167 151 c 0
 167 120 173 99 190 71 c 1
EndSplineSet
EndChar

StartChar: sterling
Encoding: 98 163 98
Width: 500
Flags: W
HStem: -5 59<27.8786 58.8475> -4 107<256.938 437.376> 42 70<103.179 245.113> 315 40<45 127 244 387> 627 56<326.541 431.524>
VStem: 444 23<535 555.559>
LayerCount: 2
Fore
SplineSet
387 315 m 1x9c
 236 315 l 1
 204 195 185 157 129 99 c 1
 167 109 191 112 242 112 c 0x3c
 268 112 287 111 318 107 c 0
 337 105 363 103 382 103 c 0
 417 103 433 111 442 134 c 2
 465 192 l 1
 496 192 l 1
 449 18 l 2
 445 4 427 -4 400 -4 c 0x5c
 361 -4 337 0 234 23 c 0
 161 39 143 42 126 42 c 0x3c
 111 42 94 33 71 13 c 0
 58 2 45 -6 41 -5 c 2
 30 -5 l 1
 23 17 21 32 21 54 c 1
 107 97 115 115 127 315 c 1
 39 315 l 1
 45 355 l 1
 130 355 l 1
 146 492 170 551 229 601 c 0
 283 646 361 683 403 683 c 0
 433 683 463 675 501 658 c 1
 467 529 l 1
 444 535 l 1
 444 574 l 2
 444 606 415 627 373 627 c 0
 324 627 291 598 281 544 c 2
 244 355 l 1
 393 355 l 1
 387 315 l 1x9c
EndSplineSet
EndChar

StartChar: fraction
Encoding: 589 8260 99
Width: 167
Flags: W
HStem: 0 21G<-170 -88.1449> 663 20G<256.145 338>
LayerCount: 2
Fore
SplineSet
-101 0 m 1
 -170 0 l 1
 269 683 l 1
 338 683 l 1
 -101 0 l 1
EndSplineSet
EndChar

StartChar: yen
Encoding: 100 165 100
Width: 500
Flags: W
HStem: -3 35<85 127 278.831 354> 195 40<76 184 300 412> 310 40<88 171 344 424> 593 88<490.502 533> 597 98<44.5 127>
LayerCount: 2
Fore
SplineSet
538 681 m 1xf0
 533 593 l 1xf0
 471 581 397 485 344 350 c 1
 431 350 l 1
 424 310 l 1
 325 310 l 1
 300 235 l 1
 419 235 l 1
 412 195 l 1
 293 195 l 1
 278 100 l 2
 277 94 276 76 276 67 c 0
 276 44 284 36 307 35 c 2
 357 32 l 1
 354 -3 l 1
 272 -1 237 0 217 0 c 0
 196 0 162 -1 82 -3 c 1
 85 32 l 1
 127 35 l 2
 155 38 158 44 174 132 c 2
 184 195 l 1
 68 195 l 1
 76 235 l 1
 191 235 l 1
 190 258 189 266 182 310 c 1
 80 310 l 1
 88 350 l 1
 171 350 l 1
 144 456 l 2
 123 539 85 597 52 597 c 0
 37 597 22 593 13 587 c 1
 11 620 l 1
 32 637 49 652 87 690 c 1
 100 694 104 695 110 695 c 0xe8
 144 695 175 673 197 633 c 0
 216 598 239 524 249 466 c 2
 279 296 l 1
 357 521 467 684 538 681 c 1xf0
EndSplineSet
EndChar

StartChar: florin
Encoding: 319 402 101
Width: 500
Flags: W
HStem: -242 65<25.6152 105.887> 368 40<110 206 331 433> 627 63<386.011 456.058>
LayerCount: 2
Fore
SplineSet
110 408 m 1
 216 408 l 1
 234 478 l 2
 259 574 376 690 448 690 c 0
 454 690 460 689 479 686 c 1
 471 604 l 1
 460 601 l 1
 446 618 427 627 405 627 c 0
 380 627 360 604 355 570 c 2
 331 408 l 1
 443 408 l 1
 433 368 l 1
 325 368 l 1
 294 105 263 -14 199 -117 c 0
 148 -201 94 -242 36 -242 c 0
 27 -242 20 -241 8 -239 c 1
 14 -214 17 -195 17 -159 c 1
 34 -150 l 1
 51 -170 64 -177 83 -177 c 0
 118 -177 141 -133 152 -46 c 2
 206 368 l 1
 97 368 l 1
 110 408 l 1
EndSplineSet
EndChar

StartChar: section
Encoding: 102 167 102
Width: 556
Flags: W
HStem: -151 44<156.29 300.746> 646 49<245.04 392.423>
VStem: 76 33<15.4138 48> 81 83<268.843 361.592> 136 79<498.5 587.057> 354 84<-29.2574 51.2193> 411 75<210.688 297.886> 436 34<518 551.185>
LayerCount: 2
Fore
SplineSet
109 48 m 1xe4
 104 -37 l 1
 143 -85 183 -107 230 -107 c 0
 295 -107 354 -56 354 -1 c 0
 354 28 331 62 298 81 c 2
 163 159 l 2
 106 192 81 231 81 286 c 0xd4
 81 343 105 380 177 435 c 1
 149 461 136 485 136 512 c 0
 136 563 172 625 221 659 c 0
 257 683 294 695 336 695 c 0
 394 695 440 681 497 646 c 1
 470 518 l 1
 436 518 l 1xc9
 439 591 l 1
 393 631 357 646 311 646 c 0
 255 646 215 614 215 569 c 0
 215 536 235 511 286 481 c 2
 403 412 l 2
 457 380 486 338 486 291 c 0xca
 486 230 456 182 392 138 c 1
 424 110 438 80 438 44 c 0
 438 -2 409 -54 360 -96 c 0
 319 -131 263 -151 207 -151 c 0
 147 -151 99 -132 47 -87 c 1
 76 48 l 1
 109 48 l 1xe4
238 227 m 2
 355 161 l 1
 387 173 411 208 411 243 c 0xd2
 411 266 399 291 379 309 c 0
 372 315 354 326 327 342 c 2
 211 409 l 1
 178 379 164 355 164 325 c 0
 164 288 190 254 238 227 c 2
EndSplineSet
EndChar

StartChar: currency
Encoding: 99 164 103
Width: 500
Flags: W
HStem: 102 76<178.215 321.918> 447 77<178.052 322.99>
VStem: 39 77<240.161 384.472> 384 77<240.258 385.604>
LayerCount: 2
Fore
SplineSet
32 141 m 1
 81 190 l 1
 51 228 39 263 39 313 c 0
 39 365 51 401 81 435 c 1
 32 484 l 1
 79 531 l 1
 127 483 l 1
 164 511 204 524 251 524 c 0
 297 524 334 512 371 484 c 1
 419 533 l 1
 468 484 l 1
 422 436 l 1
 449 401 461 364 461 314 c 0
 461 265 449 228 421 189 c 1
 467 141 l 1
 422 96 l 1
 375 145 l 1
 338 115 302 102 250 102 c 0
 199 102 162 114 125 144 c 1
 77 96 l 1
 32 141 l 1
251 447 m 0
 177 447 116 386 116 312 c 0
 116 240 177 178 249 178 c 0
 324 178 384 238 384 314 c 0
 384 386 324 447 251 447 c 0
EndSplineSet
EndChar

StartChar: quotesingle
Encoding: 7 39 104
Width: 250
Flags: W
HStem: 467 253
VStem: 127 166
LayerCount: 2
Fore
SplineSet
161 467 m 1
 127 467 l 1
 197 677 l 2
 206 705 224 720 247 720 c 0
 274 720 293 701 293 675 c 0
 293 662 289 647 283 639 c 2
 161 467 l 1
EndSplineSet
EndChar

StartChar: quotedblleft
Encoding: 575 8220 105
Width: 500
Flags: W
HStem: 431 289
LayerCount: 2
Fore
SplineSet
79 431 m 1
 65 445 l 1
 124 559 169 628 225 692 c 1
 275 720 l 1
 291 709 l 1
 243 628 215 552 200 462 c 1
 173 460 170 459 115 442 c 2
 79 431 l 1
299 431 m 1
 285 445 l 1
 345 560 389 628 445 692 c 1
 495 720 l 1
 511 709 l 1
 463 628 435 552 420 462 c 1
 393 460 390 459 335 442 c 2
 299 431 l 1
EndSplineSet
EndChar

StartChar: guillemotleft
Encoding: 106 171 106
Width: 500
Flags: W
LayerCount: 2
Fore
SplineSet
267 426 m 1
 141 243 l 1
 228 57 l 1
 203 43 l 1
 179 71 l 1
 134 124 l 1
 119 142 l 2
 112 150 107 156 104 159 c 2
 35 235 l 1
 35 256 l 1
 84 299 94 308 126 337 c 2
 245 446 l 1
 267 426 l 1
458 426 m 1
 332 243 l 1
 419 57 l 1
 394 43 l 1
 370 71 l 1
 325 124 l 1
 310 142 l 2
 303 150 298 156 295 159 c 2
 226 235 l 1
 226 256 l 1
 275 299 285 308 317 337 c 2
 436 446 l 1
 458 426 l 1
EndSplineSet
EndChar

StartChar: guilsinglleft
Encoding: 585 8249 107
Width: 333
Flags: W
VStem: 60 232
LayerCount: 2
Fore
SplineSet
292 426 m 1
 166 243 l 1
 253 57 l 1
 228 43 l 1
 204 71 l 1
 159 124 l 1
 144 142 l 2
 137 150 132 156 129 159 c 2
 60 235 l 1
 60 256 l 1
 109 299 119 308 151 337 c 2
 270 446 l 1
 292 426 l 1
EndSplineSet
EndChar

StartChar: guilsinglright
Encoding: 586 8250 108
Width: 333
Flags: W
VStem: 35 232
LayerCount: 2
Fore
SplineSet
35 60 m 1
 161 243 l 1
 74 429 l 1
 99 443 l 1
 105 436 111 429 117 423 c 2
 198 327 l 1
 267 251 l 1
 267 230 l 1
 218 187 208 178 176 149 c 2
 57 40 l 1
 35 60 l 1
EndSplineSet
EndChar

StartChar: fi
Encoding: 850 64257 109
Width: 611
Flags: W
HStem: -271 75<-102.88 -18> -17 82<358.5 467> 403 51<248 416.997> 403 25<39 60.875> 413 41<249.974 416.997> 449 20G<494.5 510.5> 572 132<485.696 570.814> 646 80<316 410.5>
VStem: 336 114<12.2499 140.999> 417 118<326.727 444.062> 466 122<588.5 684.385>
LayerCount: 2
Fore
SplineSet
533 704 m 0xc220
 565 704 588 678 588 642 c 0
 588 601 561 572 523 572 c 0
 489 572 466 596 466 632 c 0
 466 672 496 704 533 704 c 0xc220
408 454 m 1xe140
 468 465 l 2
 486 468 491 469 498 469 c 0
 523 469 535 456 535 429 c 0xc440
 535 411 532 394 524 365 c 2
 470 169 l 2
 457 123 450 89 450 76 c 0
 450 70 455 65 462 65 c 0
 472 65 488 73 523 95 c 2
 550 112 l 1
 562 84 l 1
 551 76 547 74 534 64 c 0
 453 6 406 -17 368 -17 c 0
 349 -17 336 0 336 26 c 0xc480
 336 42 339 64 342 78 c 2
 411 359 l 2
 416 381 417 385 417 396 c 0
 417 407 413 413 406 413 c 2
 342 413 l 2xc840
 308 413 288 411 239 403 c 1
 184 168 l 2
 136 -36 106 -112 44 -184 c 0
 4 -232 -58 -271 -92 -271 c 0
 -105 -271 -121 -267 -130 -262 c 1
 -119 -238 -103 -183 -98 -155 c 1
 -81 -152 l 1
 -67 -183 -52 -196 -30 -196 c 0
 -6 -196 7 -180 20 -135 c 0
 26 -116 37 -61 54 29 c 2
 125 403 l 1
 34 403 l 1
 39 428 l 1xd040
 89 444 l 2
 115 452 129 458 139 463 c 1
 141 470 141 473 143 483 c 0
 157 553 172 574 262 647 c 0
 340 710 368 726 404 726 c 0
 417 726 427 724 448 718 c 1
 435 670 429 639 421 593 c 1
 406 590 l 1
 381 625 352 646 329 646 c 0
 303 646 284 621 273 569 c 2
 248 454 l 1
 408 454 l 1xe140
EndSplineSet
Ligature2: "'liga' Standard Ligatures in Latin lookup 15 subtable" f i
EndChar

StartChar: fl
Encoding: 851 64258 110
Width: 611
Flags: W
HStem: -271 75<-102.88 -18> -26 82<398 512.5> 403 59<251.959 367.641> 403 51<250 365.835> 403 25<39 60.875> 646 80<320.388 396.204> 652 33<440 496.268>
VStem: 377 118<9.21605 159.753>
LayerCount: 2
Fore
SplineSet
125 403 m 1xc9
 34 403 l 1
 39 428 l 1
 89 444 l 2
 114 452 129 458 139 463 c 1
 151 535 161 553 205 599 c 0
 230 624 283 667 325 695 c 0
 360 719 377 726 404 726 c 0xcd
 417 726 427 724 448 718 c 1
 444 708 443 700 440 685 c 1
 485 686 578 704 619 720 c 1
 631 708 l 1
 623 677 621 669 614 643 c 2
 507 161 l 2
 500 127 495 93 495 70 c 0
 495 61 499 56 507 56 c 0
 518 56 541 67 560 82 c 2
 590 105 l 1
 604 78 l 1
 487 -7 452 -26 409 -26 c 0
 387 -26 377 -9 377 27 c 0
 377 61 378 71 393 137 c 2
 494 596 l 2
 497 608 498 618 498 627 c 0
 498 644 486 652 463 652 c 2
 433 652 l 1xc3
 421 593 l 1
 406 590 l 1
 381 625 352 646 328 646 c 0
 302 646 285 622 274 569 c 2
 250 454 l 1xd5
 292 455 321 457 373 462 c 1xe1
 378 454 l 1xd1
 372 439 368 428 362 403 c 1xe1
 239 403 l 1
 184 168 l 2
 136 -36 106 -112 44 -184 c 0
 4 -232 -58 -271 -92 -271 c 0
 -105 -271 -121 -267 -130 -262 c 1
 -119 -238 -103 -183 -98 -155 c 1
 -81 -152 l 1
 -67 -183 -52 -196 -30 -196 c 0
 -6 -196 7 -180 20 -135 c 0
 29 -106 30 -97 54 29 c 2
 125 403 l 1xc9
EndSplineSet
Ligature2: "'liga' Standard Ligatures in Latin lookup 16 subtable" f l
EndChar

StartChar: endash
Encoding: 567 8211 111
Width: 500
Flags: W
HStem: 214 68<0 500>
LayerCount: 2
Fore
SplineSet
512 282 m 1
 500 214 l 1
 -12 214 l 1
 0 282 l 1
 512 282 l 1
EndSplineSet
EndChar

StartChar: dagger
Encoding: 578 8224 112
Width: 556
Flags: W
HStem: -3 21G<148 167 247 270> 387 78<85.707 228 334 476.065> 665 20G<265 288 360 381>
VStem: 265 116<604.205 681>
LayerCount: 2
Fore
SplineSet
242 465 m 1
 257 576 l 2
 261 606 264 651 265 681 c 1
 271 685 l 1
 305 683 315 682 324 682 c 0
 333 682 344 683 376 685 c 1
 381 682 l 1
 367 636 354 587 349 556 c 2
 334 465 l 1
 403 465 l 2
 439 465 464 467 495 473 c 1
 499 469 l 1
 489 428 485 408 485 386 c 1
 479 382 l 1
 416 386 378 387 322 387 c 1
 292 222 278 119 270 2 c 1
 265 -3 l 1
 229 -1 217 0 207 0 c 0
 197 0 185 -1 149 -3 c 1
 148 10 l 1
 184 150 208 263 228 387 c 1
 161 387 125 384 74 377 c 1
 67 381 l 1
 74 417 77 442 77 469 c 1
 85 474 l 1
 100 467 120 466 193 465 c 2
 242 465 l 1
EndSplineSet
EndChar

StartChar: daggerdbl
Encoding: 579 8225 113
Width: 556
Flags: W
HStem: 45 77<48.5381 194 301 448.442> 418 77<118.538 264 370 517.442> 673 20G<299 319.5 393 414>
LayerCount: 2
Fore
SplineSet
112 500 m 1
 117 506 l 1
 150 498 171 495 192 495 c 2
 277 495 l 1
 291 574 l 2
 298 611 300 633 300 658 c 0
 300 664 300 674 299 687 c 1
 304 693 l 1
 335 691 346 690 357 690 c 0
 367 690 378 691 408 693 c 1
 414 687 l 1
 401 654 396 637 387 586 c 2
 370 495 l 1
 417 495 l 2
 455 495 487 497 530 503 c 1
 537 501 l 1
 527 469 523 446 524 417 c 1
 520 412 l 1
 465 416 437 418 409 418 c 2
 356 418 l 1
 345 362 l 2
 343 358 339 301 339 273 c 1
 325 237 317 209 311 177 c 2
 301 122 l 1
 348 122 l 2
 386 122 418 124 461 130 c 1
 468 128 l 1
 458 95 454 74 455 44 c 1
 451 39 l 1
 396 43 368 45 340 45 c 2
 287 45 l 1
 273 -34 l 2
 266 -71 264 -93 264 -117 c 0
 264 -124 264 -134 265 -147 c 1
 260 -153 l 1
 225 -151 215 -150 206 -150 c 0
 197 -150 189 -151 156 -153 c 1
 150 -147 l 1
 163 -114 168 -96 177 -46 c 2
 194 45 l 1
 148 45 l 2
 128 45 95 43 57 38 c 0
 48 37 47 37 39 36 c 1
 33 40 l 1
 41 70 43 85 43 106 c 0
 43 110 43 118 42 127 c 1
 47 133 l 1
 80 125 101 122 122 122 c 2
 207 122 l 1
 221 189 l 2
 227 217 229 242 229 270 c 1
 241 304 248 330 253 358 c 2
 264 418 l 1
 218 418 l 2
 198 418 165 416 127 411 c 0
 118 410 117 410 109 409 c 1
 103 413 l 1
 111 443 113 458 113 479 c 0
 113 483 113 491 112 500 c 1
EndSplineSet
EndChar

StartChar: periodcentered
Encoding: 118 183 114
Width: 250
Flags: W
HStem: 172 152<91.7769 181.294>
VStem: 67 139<196.875 299.074>
LayerCount: 2
Fore
SplineSet
144 324 m 0
 182 324 206 300 206 260 c 0
 206 209 175 172 132 172 c 0
 93 172 67 198 67 238 c 0
 67 288 99 324 144 324 c 0
EndSplineSet
EndChar

StartChar: paragraph
Encoding: 117 182 115
Width: 556
Flags: W
HStem: -204 35<83 166.271 405.677 492> -201 42<249 317> 634 44<389 457> 647 34<205.418 314 535.032 622>
VStem: 14 143<394.13 597.477> 317 82<-158.84 -119.35>
LayerCount: 2
Fore
SplineSet
80 -204 m 1x8c
 83 -169 l 1
 116 -169 l 2
 170 -166 176 -157 192 -59 c 2
 244 239 l 1
 192 246 166 255 130 279 c 0
 57 328 14 412 14 505 c 0
 14 621 76 681 198 681 c 0x9c
 206 681 224 681 251 680 c 0
 281 679 363 678 400 678 c 2
 419 678 l 1x2c
 629 681 l 1
 622 645 l 1
 558 642 l 2
 539 641 533 634 528 606 c 2
 402 -103 l 1
 402 -105 l 1
 401 -108 l 2
 400 -118 399 -126 399 -133 c 0
 399 -157 422 -169 466 -169 c 2
 495 -169 l 1
 492 -204 l 1x9c
 394 -202 326 -201 303 -201 c 0x4c
 258 -201 175 -202 80 -204 c 1x8c
457 634 m 1x6c
 389 634 l 1
 249 -159 l 1
 317 -159 l 1
 457 634 l 1x6c
251 278 m 1
 314 642 l 1
 290 646 278 647 261 647 c 0x1c
 190 647 157 593 157 480 c 0
 157 374 192 298 251 278 c 1
EndSplineSet
EndChar

StartChar: bullet
Encoding: 580 8226 116
Width: 606
Flags: W
HStem: 206 285<231.122 378.726>
VStem: 162 285<274.839 422.444>
LayerCount: 2
Fore
SplineSet
305 491 m 0
 384 491 447 428 447 349 c 0
 447 270 383 206 306 206 c 0
 226 206 162 270 162 349 c 0
 162 427 226 491 305 491 c 0
EndSplineSet
EndChar

StartChar: quotesinglbase
Encoding: 573 8218 117
Width: 250
Flags: W
HStem: -144 289
VStem: -3 223
LayerCount: 2
Fore
SplineSet
220 132 m 1
 168 36 l 2
 139 -18 81 -103 68 -110 c 2
 12 -144 l 1
 -3 -126 l 1
 42 -55 78 45 85 115 c 1
 113 121 139 128 148 130 c 0
 158 133 167 135 178 138 c 2
 207 145 l 1
 220 132 l 1
EndSplineSet
EndChar

StartChar: quotedblbase
Encoding: 577 8222 118
Width: 500
Flags: W
HStem: -144 289
LayerCount: 2
Fore
SplineSet
205 132 m 1
 153 36 l 2
 124 -18 66 -103 53 -110 c 2
 -3 -144 l 1
 -18 -126 l 1
 27 -55 63 45 70 115 c 1
 98 121 124 128 133 130 c 0
 143 133 152 135 163 138 c 2
 192 145 l 1
 205 132 l 1
424 132 m 1
 372 36 l 2
 343 -18 285 -103 272 -110 c 2
 216 -144 l 1
 201 -126 l 1
 246 -55 282 45 289 115 c 1
 317 121 343 128 352 130 c 0
 362 133 371 135 382 138 c 2
 411 145 l 1
 424 132 l 1
EndSplineSet
EndChar

StartChar: quotedblright
Encoding: 576 8221 119
Width: 500
Flags: W
HStem: 431 289
LayerCount: 2
Fore
SplineSet
285 720 m 1
 299 706 l 1
 239 591 196 524 139 459 c 1
 89 431 l 1
 73 442 l 1
 120 522 148 599 164 689 c 1
 191 691 194 692 249 709 c 2
 285 720 l 1
505 720 m 1
 519 706 l 1
 459 591 416 524 359 459 c 1
 309 431 l 1
 293 442 l 1
 340 521 369 600 384 689 c 1
 411 691 414 692 469 709 c 2
 505 720 l 1
EndSplineSet
EndChar

StartChar: guillemotright
Encoding: 122 187 120
Width: 500
Flags: W
LayerCount: 2
Fore
SplineSet
35 60 m 1
 161 243 l 1
 74 429 l 1
 99 443 l 1
 105 436 111 430 116 423 c 0
 184 343 195 330 198 327 c 2
 267 251 l 1
 267 230 l 1
 218 187 208 178 176 149 c 2
 57 40 l 1
 35 60 l 1
226 60 m 1
 352 243 l 1
 265 429 l 1
 290 443 l 1
 296 436 302 430 307 423 c 0
 377 340 385 331 389 327 c 2
 458 251 l 1
 458 230 l 1
 409 187 399 178 367 149 c 2
 248 40 l 1
 226 60 l 1
EndSplineSet
EndChar

StartChar: ellipsis
Encoding: 581 8230 121
Width: 1000
Flags: W
HStem: -17 152<115.777 205.294 448.777 538.294 781.777 871.294>
VStem: 91 139<7.875 110.074> 424 139<7.875 110.074> 757 139<7.875 110.074>
CounterMasks: 1 70
LayerCount: 2
Fore
SplineSet
168 135 m 0
 206 135 230 111 230 71 c 0
 230 20 199 -17 156 -17 c 0
 117 -17 91 9 91 49 c 0
 91 99 123 135 168 135 c 0
501 135 m 0
 539 135 563 111 563 71 c 0
 563 20 532 -17 489 -17 c 0
 450 -17 424 9 424 49 c 0
 424 99 456 135 501 135 c 0
834 135 m 0
 872 135 896 111 896 71 c 0
 896 20 865 -17 822 -17 c 0
 783 -17 757 9 757 49 c 0
 757 99 789 135 834 135 c 0
EndSplineSet
EndChar

StartChar: perthousand
Encoding: 582 8240 122
Width: 1000
Flags: W
HStem: -17 21G<74 142.853> -7 27<402.935 464.104 720.924 785.426> 268 25<444.299 503.823 767.654 821.619> 372 25<152.837 212.727> 647 25<193.33 252.904> 671 20G<519.062 585>
VStem: 65 76<413.508 583.645> 265 76<461.577 630.293> 316 76<34.3771 204.643> 516 76<81.8281 251.293> 636 76<34.6827 201.775> 836 76<81.853 251.613>
LayerCount: 2
Fore
SplineSet
482 293 m 0x72f0
 552 293 592 249 592 170 c 0
 592 71 518 -7 426 -7 c 0
 356 -7 316 37 316 116 c 0
 316 215 390 293 482 293 c 0x72f0
476 268 m 0
 456 268 440 257 426 233 c 0
 407 201 392 129 392 73 c 0
 392 38 405 20 431 20 c 0
 455 20 473 35 488 66 c 0
 504 101 516 164 516 214 c 0
 516 248 502 268 476 268 c 0
802 293 m 0
 872 293 912 249 912 170 c 0
 912 71 838 -7 746 -7 c 0
 676 -7 636 37 636 116 c 0
 636 215 710 293 802 293 c 0
796 266 m 0
 776 266 761 255 746 231 c 0
 727 199 712 127 712 71 c 0
 712 36 725 18 752 18 c 0
 775 18 793 33 808 64 c 0
 824 99 836 163 836 212 c 0
 836 246 822 266 796 266 c 0
231 672 m 0x3b70
 301 672 341 628 341 549 c 0
 341 451 267 372 175 372 c 0
 105 372 65 416 65 495 c 0
 65 594 139 672 231 672 c 0x3b70
226 647 m 0
 202 647 184 632 169 600 c 0
 153 565 141 501 141 451 c 0
 141 416 155 397 181 397 c 0
 204 397 222 412 237 444 c 0
 253 479 265 543 265 593 c 0
 265 627 251 647 226 647 c 0
130 -17 m 1xb670
 74 -17 l 1
 532 691 l 1
 585 691 l 1
 130 -17 l 1xb670
EndSplineSet
Ligature2: "'frac' Diagonal Fractions lookup 7 subtable" percent zerosuperior
Ligature2: "'frac' Diagonal Fractions lookup 7 subtable" percent zero
EndChar

StartChar: questiondown
Encoding: 126 191 123
Width: 444
Flags: W
HStem: -226 80<138.779 263.735> 327 152<228.777 318.294>
VStem: -12 126<-122.405 1.59683> 204 139<351.875 454.074> 235 44<176.254 259.916>
LayerCount: 2
Fore
SplineSet
215 262 m 1xe8
 237 280 l 1
 267 254 279 232 279 203 c 0
 279 172 263 140 228 104 c 2
 165 38 l 2
 130 1 114 -31 114 -67 c 0
 114 -116 148 -146 205 -146 c 0
 223 -146 240 -142 261 -132 c 0
 280 -122 292 -106 307 -70 c 2
 314 -53 l 1
 347 -57 l 1
 327 -101 316 -131 304 -183 c 1
 244 -217 214 -226 164 -226 c 0
 56 -226 -12 -167 -12 -74 c 0
 -12 -19 11 23 62 61 c 2
 165 137 l 2
 221 178 235 195 235 220 c 0
 235 235 229 247 215 262 c 1xe8
280 479 m 0
 319 479 343 455 343 415 c 0
 343 364 312 327 269 327 c 0
 230 327 204 353 204 391 c 0xf0
 204 443 236 479 280 479 c 0
EndSplineSet
EndChar

StartChar: grave
Encoding: 64 96 124
Width: 333
Flags: W
HStem: 518 181
VStem: 110 212
LayerCount: 2
Fore
SplineSet
277 518 m 1
 154 600 l 2
 119 623 110 635 110 656 c 0
 110 678 133 699 157 699 c 0
 176 699 194 686 218 655 c 2
 322 518 l 1
 277 518 l 1
EndSplineSet
EndChar

StartChar: acute
Encoding: 115 180 125
Width: 333
Flags: W
HStem: 518 181
VStem: 153 239
LayerCount: 2
Fore
SplineSet
153 518 m 1
 294 669 l 2
 314 691 328 699 345 699 c 0
 371 699 392 679 392 655 c 0
 392 634 384 623 356 607 c 2
 202 518 l 1
 153 518 l 1
EndSplineSet
EndChar

StartChar: circumflex
Encoding: 330 710 126
Width: 333
Flags: W
HStem: 510 174
VStem: 88 327
LayerCount: 2
Fore
SplineSet
329 684 m 1
 415 510 l 1
 364 510 l 1
 276 605 l 1
 145 510 l 1
 88 510 l 1
 248 684 l 1
 329 684 l 1
EndSplineSet
EndChar

StartChar: tilde
Encoding: 337 732 127
Width: 333
Flags: W
HStem: 535 77<278.718 388.315> 579 75<134.232 242.201>
VStem: 82 40<535 566.012>
LayerCount: 2
Fore
SplineSet
122 535 m 1xa0
 82 535 l 1xa0
 100 614 139 654 200 654 c 0x60
 226 654 243 650 276 635 c 0
 309 619 334 612 351 612 c 0xa0
 373 612 386 623 400 654 c 1
 441 654 l 1x60
 420 573 383 535 326 535 c 0xa0
 300 535 296 536 226 564 c 0
 202 574 182 579 168 579 c 0x60
 148 579 137 569 122 535 c 1xa0
EndSplineSet
EndChar

StartChar: macron
Encoding: 110 175 128
Width: 333
Flags: W
HStem: 538 70<93 402>
LayerCount: 2
Fore
SplineSet
418 608 m 1
 402 538 l 1
 76 538 l 1
 93 608 l 1
 418 608 l 1
EndSplineSet
EndChar

StartChar: breve
Encoding: 333 728 129
Width: 333
Flags: W
HStem: 519 72<168 321.442> 661 20G<96 141.5 358.5 412>
VStem: 96 43<619.812 681>
LayerCount: 2
Fore
SplineSet
96 681 m 1
 139 681 l 1
 144 618 176 591 243 591 c 0
 307 591 344 617 373 681 c 1
 412 681 l 1
 402 633 393 610 374 585 c 0
 342 542 291 519 229 519 c 0
 181 519 149 532 127 560 c 0
 105 589 97 620 96 681 c 1
EndSplineSet
EndChar

StartChar: dotaccent
Encoding: 334 729 130
Width: 333
Flags: W
HStem: 537 131<222.326 306.49>
VStem: 202 123<555.103 648.429>
LayerCount: 2
Fore
SplineSet
269 668 m 0
 302 668 325 644 325 608 c 0
 325 567 296 537 256 537 c 0
 223 537 202 559 202 593 c 0
 202 635 232 668 269 668 c 0
EndSplineSet
EndChar

StartChar: dieresis
Encoding: 103 168 131
Width: 333
Flags: W
HStem: 537 131<110.326 194.49 323.326 407.49>
VStem: 90 123<555.103 648.429> 303 123<555.103 648.429>
LayerCount: 2
Fore
SplineSet
370 668 m 0
 403 668 426 644 426 608 c 0
 426 567 397 537 357 537 c 0
 324 537 303 559 303 593 c 0
 303 635 333 668 370 668 c 0
157 668 m 0
 190 668 213 644 213 608 c 0
 213 567 184 537 144 537 c 0
 111 537 90 559 90 593 c 0
 90 635 120 668 157 668 c 0
EndSplineSet
EndChar

StartChar: ring
Encoding: 335 730 132
Width: 556
Flags: W
HStem: 514 50<335.691 418.309> 664 50<336.113 417.307>
VStem: 277 50<572.889 654.277> 427 50<572.691 654.962>
LayerCount: 2
Fore
SplineSet
379 714 m 0
 432 714 477 668 477 614 c 0
 477 559 432 514 377 514 c 0
 322 514 277 559 277 615 c 0
 277 670 322 714 379 714 c 0
378 664 m 0
 349 664 327 642 327 614 c 0
 327 586 349 564 377 564 c 0
 405 564 427 586 427 614 c 0
 427 641 405 664 378 664 c 0
EndSplineSet
EndChar

StartChar: cedilla
Encoding: 119 184 133
Width: 333
Flags: W
HStem: -218 41<29.8029 148.962>
VStem: 156 92<-170.218 -104.738>
LayerCount: 2
Fore
SplineSet
12 -193 m 1
 34 -160 l 1
 63 -173 79 -177 101 -177 c 0
 135 -177 156 -162 156 -137 c 0
 156 -113 139 -100 108 -100 c 0
 98 -100 91 -101 79 -104 c 1
 66 -92 l 1
 134 5 l 1
 178 5 l 1
 132 -62 l 1
 142 -60 149 -59 158 -59 c 0
 211 -59 248 -88 248 -131 c 0
 248 -182 197 -218 125 -218 c 0
 86 -218 57 -212 12 -193 c 1
EndSplineSet
EndChar

StartChar: hungarumlaut
Encoding: 338 733 134
Width: 333
Flags: W
HStem: 518 181<169 190>
LayerCount: 2
Fore
SplineSet
-28 518 m 1
 109 665 l 2
 131 688 149 699 168 699 c 0
 190 699 212 676 212 652 c 0
 212 635 197 618 163 599 c 2
 21 518 l 1
 -28 518 l 1
169 518 m 1
 306 665 l 2
 328 688 346 699 365 699 c 0
 387 699 409 676 409 652 c 0
 409 635 394 618 360 599 c 2
 218 518 l 1
 169 518 l 1
EndSplineSet
EndChar

StartChar: ogonek
Encoding: 336 731 135
Width: 333
Flags: W
HStem: -206 56<78.5 172.438> -37 20G<86.5 165>
VStem: 32 71<-143.006 -82.8035>
LayerCount: 2
Fore
SplineSet
214 -116 m 1
 238 -129 l 1
 184 -185 145 -206 99 -206 c 0
 58 -206 32 -181 32 -141 c 0
 32 -102 51 -76 122 -17 c 1
 165 -17 l 1
 114 -63 103 -78 103 -104 c 0
 103 -131 123 -150 151 -150 c 0
 173 -150 189 -141 214 -116 c 1
EndSplineSet
EndChar

StartChar: caron
Encoding: 331 711 136
Width: 333
Flags: W
HStem: 510 174
VStem: 113 332
LayerCount: 2
Fore
SplineSet
201 510 m 1
 113 684 l 1
 163 684 l 1
 254 587 l 1
 389 684 l 1
 445 684 l 1
 283 510 l 1
 201 510 l 1
EndSplineSet
EndChar

StartChar: emdash
Encoding: 568 8212 137
Width: 1000
Flags: W
HStem: 214 68<0 1000>
LayerCount: 2
Fore
SplineSet
1000 214 m 1
 -12 214 l 1
 0 282 l 1
 1012 282 l 1
 1000 214 l 1
EndSplineSet
EndChar

StartChar: AE
Encoding: 133 198 138
Width: 944
Flags: W
HStem: -3 32<-24 2 160 205 354 416.125> 0 56<547 821.727> 262 46<270 460> 330 48<602 819> 634 47<647 862.892> 639 42<472.749 520.996> 646 35<316 413.443>
VStem: 853 36<145.727 168> 870 32<520 615.763>
LayerCount: 2
Fore
SplineSet
594 330 m 1x3880
 547 56 l 1
 572 51 582 50 607 50 c 2
 645 50 l 2
 663 51 675 51 677 51 c 0
 805 54 817 58 831 98 c 2
 853 168 l 1
 889 168 l 1
 877 121 873 100 855 0 c 1x79
 760 -2 711 -3 683 -3 c 0xb1
 665 -3 653 -3 596 -2 c 0
 555 -1 502 0 480 0 c 0x71
 447 0 418 -1 348 -3 c 1
 354 29 l 1
 394 32 l 2
 414 33 421 45 430 91 c 2
 460 262 l 1
 423 263 l 2
 390 264 369 265 361 265 c 2
 350 265 l 1
 239 262 l 1
 139 92 l 1
 138 90 l 1
 136 88 l 1
 126 71 124 67 124 57 c 0
 124 40 133 34 160 32 c 2
 210 29 l 1
 205 -3 l 1xb1
 181 -2 l 2
 130 -1 109 0 95 0 c 2
 91 0 l 1
 88 0 l 1x71
 -29 -3 l 1
 -24 29 l 1
 2 34 l 2
 31 40 59 66 96 122 c 2
 387 573 l 2
 409 607 414 617 414 624 c 0
 414 637 402 645 381 646 c 2
 311 649 l 1
 316 681 l 1xb3
 543 678 543 678 572 678 c 0
 613 678 621 678 703 680 c 0
 745 681 750 681 767 681 c 0
 795 681 830 680 917 678 c 1
 927 672 l 1
 914 603 909 571 902 520 c 1
 870 520 l 1
 870 573 l 2
 870 603 868 611 863 616 c 0
 861 621 839 625 809 627 c 0
 789 629 771 630 755 631 c 0
 731 633 720 634 701 634 c 0
 699 634 693 634 686 633 c 2
 647 630 l 1
 602 378 l 1
 688 378 l 2
 741 378 777 379 828 381 c 1
 833 372 l 1
 819 325 l 1
 714 329 684 330 649 330 c 2
 594 330 l 1x3880
270 308 m 1
 467 308 l 1
 517 589 l 2
 520 603 521 617 521 625 c 0
 521 634 516 639 508 639 c 0x34
 489 639 466 618 436 570 c 2
 270 308 l 1
EndSplineSet
EndChar

StartChar: ordfeminine
Encoding: 105 170 139
Width: 333
Flags: W
HStem: 391 50<90.0018 139.919 299 303.066> 449 20G<335 355> 652 31<181.193 262.321>
VStem: 47 73<417.208 550.746> 222 68<454 482>
LayerCount: 2
Fore
SplineSet
307 667 m 1
 336 684 l 1
 346 676 l 1
 337 651 l 2
 334 642 331 634 330 630 c 0
 330 629 328 622 326 613 c 2
 296 485 l 1
 295 482 l 2
 295 480 294 477 293 473 c 0
 291 463 290 459 290 454 c 2
 299 441 l 1
 305 441 323 450 335 459 c 2
 348 469 l 1
 355 451 l 1
 306 410 270 391 242 391 c 0
 229 391 222 401 222 418 c 0
 222 428 224 443 226 451 c 2
 252 548 l 1
 191 444 133 391 80 391 c 0
 60 391 47 411 47 443 c 0
 47 495 76 589 100 613 c 0
 113 626 141 645 186 671 c 0
 201 679 216 683 239 683 c 0
 262 683 277 680 307 667 c 1
263 639 m 1
 240 649 227 652 211 652 c 0
 185 652 170 639 155 604 c 0
 139 569 120 489 120 462 c 0
 120 450 125 441 131 441 c 0
 149 441 188 478 216 521 c 0
 242 561 255 594 263 639 c 1
EndSplineSet
EndChar

StartChar: Lslash
Encoding: 256 321 140
Width: 611
Flags: W
HStem: -3 32<30 58> 0 56<226 509.27> 646 35<109 191.423 371 416>
VStem: 542 36<150.87 174>
LayerCount: 2
Fore
SplineSet
281 357 m 1xb0
 226 56 l 1
 250 51 261 50 288 50 c 0
 337 50 423 53 462 56 c 0
 496 59 510 70 519 98 c 2
 542 174 l 1
 578 174 l 1
 559 81 552 50 544 0 c 1x70
 444 -2 402 -3 372 -3 c 0xb0
 358 -3 350 -3 326 -2 c 0
 263 -1 202 0 171 0 c 0x70
 129 0 97 -1 26 -3 c 1
 30 29 l 1
 58 32 l 2
 87 35 95 46 104 92 c 2
 140 287 l 1
 24 230 l 1
 6 266 l 1
 149 337 l 1
 186 541 l 2
 192 572 195 599 195 615 c 0
 195 632 183 642 157 643 c 2
 105 646 l 1
 109 681 l 1
 201 679 237 678 261 678 c 0
 284 678 284 678 420 681 c 1
 416 646 l 1
 371 643 l 2
 338 641 332 635 325 599 c 2
 290 407 l 1
 424 473 l 1
 442 437 l 1
 281 357 l 1xb0
EndSplineSet
EndChar

StartChar: Oslash
Encoding: 151 216 141
Width: 833
Flags: W
HStem: -17 43<308.934 483.039> 652 43<383.148 567.598>
VStem: 76 138<153.705 410.815> 656 138<275.773 533.19>
LayerCount: 2
Fore
SplineSet
763 730 m 1
 797 699 l 1
 718 615 l 1
 771 561 794 501 794 416 c 0
 794 168 608 -17 360 -17 c 0
 291 -17 248 -4 177 39 c 1
 89 -54 l 1
 57 -20 l 1
 141 70 l 1
 94 118 76 172 76 261 c 0
 76 521 245 695 498 695 c 0
 571 695 612 683 680 643 c 1
 763 730 l 1
643 535 m 1
 240 106 l 1
 291 48 333 26 391 26 c 0
 474 26 542 70 589 153 c 0
 631 226 656 331 656 435 c 0
 656 473 653 497 643 535 c 1
219 153 m 1
 623 583 l 1
 580 633 540 652 476 652 c 0
 417 652 366 632 328 592 c 0
 256 519 214 387 214 234 c 0
 214 203 215 183 219 153 c 1
EndSplineSet
EndChar

StartChar: OE
Encoding: 273 338 142
Width: 944
Flags: W
HStem: -17 47<248.217 407.536> 0 50<599.025 816.154> 330 48<656 843> 630 48<703 896.931> 648 47<315.435 488.792>
VStem: 39 123<146.195 424.653> 878 36<145.727 168> 904 32<520 616.672>
LayerCount: 2
Fore
SplineSet
648 330 m 1x35
 598 56 l 1
 620 51 634 50 656 50 c 0
 716 50 800 55 817 59 c 0
 838 64 849 75 856 98 c 2
 878 168 l 1
 914 168 l 1
 901 115 894 80 880 -3 c 1
 762 -1 l 2
 702 0 655 0 636 0 c 0x76
 612 0 566 -1 480 -3 c 1
 495 63 l 1
 430 5 377 -17 298 -17 c 0
 208 -17 139 15 95 76 c 0
 60 125 39 201 39 281 c 0
 39 515 196 695 400 695 c 0xae
 439 695 476 689 508 676 c 0
 544 662 563 647 594 608 c 1
 606 681 l 1
 658 679 689 678 731 678 c 0
 747 678 794 679 864 680 c 2
 951 681 l 1
 961 672 l 1
 949 610 944 577 936 520 c 1
 904 520 l 1
 904 573 l 2
 904 603 903 610 897 617 c 0
 896 621 865 627 831 629 c 0
 812 630 794 632 787 632 c 0
 770 634 758 635 752 634 c 2
 742 633 l 1
 703 630 l 1
 656 378 l 1
 712 378 l 2
 765 378 801 379 852 381 c 1
 857 372 l 1
 843 325 l 1
 740 329 707 330 673 330 c 2
 648 330 l 1x35
515 228 m 2
 556 450 l 2
 559 464 560 479 560 493 c 0
 560 587 498 648 403 648 c 0
 336 648 280 618 239 559 c 0
 191 491 162 378 162 263 c 0
 162 114 222 30 330 30 c 0xac
 427 30 491 99 515 228 c 2
EndSplineSet
EndChar

StartChar: ordmasculine
Encoding: 121 186 143
Width: 333
Flags: W
HStem: 391 26<143.289 214.494> 657 26<181.825 252.948>
VStem: 51 74<426.745 579.779> 272 74<493.274 646.832>
LayerCount: 2
Fore
SplineSet
247 683 m 0
 310 683 346 650 346 593 c 0
 346 563 339 531 327 499 c 0
 303 437 225 391 146 391 c 0
 83 391 51 422 51 482 c 0
 51 520 65 571 83 600 c 0
 110 644 187 683 247 683 c 0
220 657 m 0
 194 657 173 643 157 615 c 0
 139 585 125 526 125 480 c 0
 125 441 145 417 177 417 c 0
 206 417 230 436 247 472 c 0
 261 503 272 556 272 595 c 0
 272 632 251 657 220 657 c 0
EndSplineSet
EndChar

StartChar: ae
Encoding: 165 230 144
Width: 738
Flags: W
HStem: -17 73<117 232.713> -17 64<411 539.458> 222 29<218.266 335 443 526.822> 408 61<169.334 300.163> 421 48<524.789 645.5>
VStem: 44 105<65.9859 161.318> 335 100<127.076 216.831> 617 94<314.412 414.886>
LayerCount: 2
Fore
SplineSet
680 86 m 1x6f
 651 68 l 2
 553 4 503 -17 443 -17 c 0x6f
 379 -17 342 9 322 69 c 1
 237 -1 204 -17 149 -17 c 0
 85 -17 44 21 44 80 c 0
 44 131 70 184 109 210 c 0
 145 234 206 251 259 251 c 2
 339 251 l 1
 339 295 l 2
 339 369 300 408 226 408 c 0
 218 408 214 408 197 405 c 0
 186 404 180 403 166 402 c 1
 142 335 l 1
 123 339 l 1
 116 413 l 1
 171 455 208 469 266 469 c 0xb7
 343 469 386 440 409 372 c 1
 501 443 556 469 617 469 c 0
 674 469 711 435 711 383 c 0
 711 291 627 240 439 218 c 1
 436 193 435 172 435 141 c 0
 435 76 458 47 508 47 c 0
 549 47 595 66 670 114 c 1
 680 86 l 1x6f
335 222 m 1
 291 222 l 2
 207 222 149 177 149 113 c 0
 149 75 169 56 208 56 c 0xa7
 282 56 330 118 335 222 c 1
443 248 m 1
 499 253 538 265 567 285 c 0
 595 305 617 344 617 373 c 0
 617 403 600 421 571 421 c 0x2f
 536 421 508 400 486 358 c 0
 474 335 467 318 443 248 c 1
EndSplineSet
EndChar

StartChar: dotlessi
Encoding: 240 305 145
Width: 333
Flags: W
HStem: -17 82<89.5 198> 449 20G<224.5 246.5>
VStem: 67 114<12.2499 142.079> 140 124<319.035 436.422>
LayerCount: 2
Fore
SplineSet
26 346 m 1xd0
 89 393 l 2
 150 439 210 469 239 469 c 0
 254 469 264 454 264 432 c 0xd0
 264 412 260 384 255 365 c 2
 201 169 l 2
 188 122 181 89 181 76 c 0
 181 70 186 65 193 65 c 0
 203 65 219 73 254 95 c 2
 281 112 l 1
 293 84 l 1
 282 76 278 74 265 64 c 0
 184 6 137 -17 99 -17 c 0
 80 -17 67 0 67 26 c 0xe0
 67 42 70 64 73 78 c 2
 132 319 l 2
 138 345 140 353 140 359 c 0
 140 366 136 370 130 370 c 0
 121 370 80 350 61 336 c 2
 39 320 l 1
 26 346 l 1xd0
EndSplineSet
EndChar

StartChar: lslash
Encoding: 257 322 146
Width: 333
Flags: W
HStem: -17 82<85 199.5> 266 21G<17.2857 60.6> 652 28<110 179.848> 706 20G<283.5 318>
VStem: 64 118<18.2161 172.93>
LayerCount: 2
Fore
SplineSet
127 362 m 1
 179 596 l 2
 182 608 183 618 183 627 c 0
 183 644 171 652 148 652 c 2
 103 652 l 1
 110 680 l 1
 210 695 259 706 308 726 c 1
 318 717 l 1
 315 706 312 694 311 689 c 0
 306 671 302 659 301 652 c 2
 251 427 l 1
 355 482 l 1
 365 447 l 1
 241 381 l 1
 194 170 l 2
 186 136 182 102 182 79 c 0
 182 70 186 65 194 65 c 0
 205 65 228 76 247 91 c 2
 277 114 l 1
 291 87 l 1
 174 2 139 -17 96 -17 c 0
 74 -17 64 0 64 36 c 0
 64 70 65 80 80 146 c 2
 117 316 l 1
 23 266 l 1
 13 301 l 1
 127 362 l 1
EndSplineSet
EndChar

StartChar: oslash
Encoding: 183 248 147
Width: 556
Flags: W
HStem: -17 44<192.935 301.063> 425 44<248.258 358.44>
VStem: 388 114<186.024 332>
LayerCount: 2
Fore
SplineSet
522 481 m 1
 472 426 l 1
 491 394 502 355 502 314 c 0
 502 254 481 169 455 123 c 0
 436 90 391 49 345 23 c 0
 299 -4 251 -17 201 -17 c 0
 156 -17 122 -7 99 13 c 1
 42 -50 l 1
 14 -28 l 1
 75 40 l 1
 56 72 48 100 48 141 c 0
 48 177 57 225 72 272 c 0
 93 337 127 379 189 419 c 0
 240 452 295 469 349 469 c 0
 385 469 409 463 442 447 c 1
 495 506 l 1
 522 481 l 1
388 332 m 1
 168 90 l 1
 187 46 209 27 242 27 c 0
 277 27 306 45 330 82 c 0
 367 139 383 209 388 332 c 1
164 136 m 1
 377 375 l 1
 358 412 340 425 307 425 c 0
 225 425 176 327 164 136 c 1
EndSplineSet
EndChar

StartChar: oe
Encoding: 274 339 148
Width: 778
Flags: W
HStem: -17 64<464.5 584.17> -17 44<192.912 302.358> 425 44<242.09 358.803 568.119 687>
VStem: 48 114<60.1643 274.276> 388 89<158.348 197.792> 661 94<312.578 414.107>
LayerCount: 2
Fore
SplineSet
712 117 m 1xbc
 725 89 l 1
 610 9 552 -17 489 -17 c 0xbc
 440 -17 398 5 376 44 c 1
 300 -2 257 -17 198 -17 c 0x7c
 100 -17 48 35 48 133 c 0
 48 217 72 307 107 350 c 0
 162 419 262 469 343 469 c 0
 390 469 434 455 462 430 c 0
 472 421 477 414 487 398 c 1
 563 451 606 469 656 469 c 0
 718 469 755 437 755 385 c 0
 755 329 721 280 660 247 c 0
 616 223 569 210 483 195 c 1
 479 176 477 159 477 136 c 0
 477 79 503 47 551 47 c 0
 583 47 622 59 654 80 c 2
 712 117 l 1xbc
303 425 m 0
 253 425 226 401 200 333 c 0
 177 269 162 195 162 139 c 0
 162 70 195 27 247 27 c 0x7c
 285 27 313 46 338 88 c 0
 367 136 388 231 388 307 c 0
 388 385 359 425 303 425 c 0
487 223 m 1
 542 236 l 2
 607 252 661 314 661 374 c 0
 661 402 642 421 612 421 c 0
 562 421 528 378 502 280 c 2
 487 223 l 1
EndSplineSet
EndChar

StartChar: germandbls
Encoding: 158 223 149
Width: 556
Flags: W
HStem: -271 77<-105.713 -17.5> -13 54<289.379 393.643> 667 59<350.033 435.984>
VStem: 255 25<96.4667 124> 325 90<307.5 395.5> 429 90<89.5 200> 457 92<539.706 645.653>
LayerCount: 2
Fore
SplineSet
128 404 m 1xfa
 36 404 l 1
 40 430 l 1
 140 463 l 1
 156 553 168 572 234 624 c 0
 336 705 377 726 432 726 c 0
 503 726 549 685 549 622 c 0xfa
 549 568 530 531 475 474 c 0
 428 427 415 407 415 384 c 0
 415 363 434 329 468 290 c 0
 506 246 519 218 519 182 c 0
 519 148 504 115 471 76 c 0
 417 13 371 -13 311 -13 c 0
 291 -13 274 -10 243 0 c 2
 225 6 l 1
 255 124 l 1
 280 124 l 1
 280 72 l 1
 298 51 323 41 354 41 c 0
 398 41 429 69 429 110 c 0xfc
 429 137 415 165 378 215 c 0
 337 270 325 294 325 321 c 0
 325 348 334 365 377 417 c 0
 407 454 423 475 430 487 c 0
 446 515 457 558 457 592 c 0
 457 638 426 667 377 667 c 0
 324 667 293 631 274 549 c 2
 197 210 l 2
 182 145 145 12 126 -45 c 0
 104 -109 60 -176 14 -216 c 0
 -25 -250 -67 -271 -96 -271 c 0
 -106 -271 -120 -268 -131 -262 c 1
 -117 -223 -109 -196 -100 -154 c 1
 -85 -154 l 1
 -65 -184 -51 -194 -31 -194 c 0
 -4 -194 14 -167 26 -106 c 2
 128 404 l 1xfa
EndSplineSet
EndChar

StartChar: onesuperior
Encoding: 120 185 150
Width: 300
Flags: W
HStem: 271 28<47 74 217.184 292> 565 51<70 84.8298> 660 20G<253.5 282>
VStem: 41 257
LayerCount: 2
Fore
SplineSet
41 271 m 1
 47 299 l 1
 74 301 l 2
 115 305 119 307 129 336 c 1
 181 612 l 1
 68 565 l 1
 59 578 l 1
 70 616 l 1
 200 654 l 2
 219 660 240 668 267 680 c 1
 282 675 l 1
 277 653 275 645 274 637 c 2
 218 341 l 2
 216 331 215 324 215 323 c 0
 217 305 222 302 252 301 c 2
 298 299 l 1
 292 271 l 1
 245 272 193 273 167 273 c 0
 141 273 89 272 41 271 c 1
EndSplineSet
EndChar

StartChar: logicalnot
Encoding: 107 172 151
Width: 606
Flags: W
HStem: 335 80<51 475>
VStem: 475 80<122 335>
LayerCount: 2
Fore
SplineSet
51 415 m 1
 555 415 l 1
 555 122 l 1
 475 122 l 1
 475 335 l 1
 51 335 l 1
 51 415 l 1
EndSplineSet
EndChar

StartChar: mu
Encoding: 116 181 152
Width: 556
Flags: W
HStem: -17 21G<336 356.5> 449 20G<204.5 226 484.5 516>
VStem: 312 108<14.7979 127.516> 397 119<383.202 447>
LayerCount: 2
Fore
SplineSet
35 339 m 1xe0
 22 365 l 1
 101 419 l 2
 146 450 191 469 218 469 c 0
 234 469 244 456 244 434 c 0
 244 404 241 390 215 287 c 2
 180 150 l 2
 174 125 170 101 170 84 c 0
 170 76 177 71 186 71 c 0
 215 71 268 124 317 202 c 0
 365 279 395 370 397 447 c 1
 432 447 462 452 507 465 c 1
 516 454 l 1xd0
 489 366 472 306 464 273 c 0
 420 101 420 101 420 88 c 0
 420 79 425 74 433 74 c 0
 448 74 468 83 489 99 c 2
 511 116 l 1
 521 88 l 1
 507 78 495 69 486 62 c 0
 427 17 367 -17 346 -17 c 0
 326 -17 312 0 312 26 c 0
 312 42 317 69 328 107 c 2
 360 224 l 1
 267 71 189 0 96 -18 c 1
 80 -184 l 2
 78 -203 50 -219 -6 -232 c 1
 -15 -223 l 1
 72 136 l 2
 73 142 77 157 83 178 c 0
 108 275 121 335 121 353 c 0
 121 365 114 376 107 376 c 0
 102 376 85 368 71 360 c 2
 35 339 l 1xe0
EndSplineSet
EndChar

StartChar: trademark
Encoding: 614 8482 153
Width: 1000
Flags: W
HStem: 274 26<122 172.404 268.02 319 453 499.27 537.58 584 789 834.681 918.337 962> 576 102<39 69 376 406> 646 32<85.25 186 259 360.762> 654 24<461 502.418 914.446 962>
VStem: 39 30<576 628.804> 186 73<307.461 646> 376 30<576 629.201> 503 31<303.856 630.581> 840 73<303.225 630.979>
LayerCount: 2
Fore
SplineSet
962 654 m 1x9f80
 943 654 l 2
 915 653 912 650 913 618 c 2
 913 349 l 2
 914 306 917 303 962 300 c 1
 962 274 l 1
 789 274 l 1
 789 300 l 1
 835 301 839 305 840 348 c 2
 840 631 l 1
 695 274 l 1
 685 274 l 1
 534 631 l 1
 534 332 l 2
 535 305 542 301 584 300 c 1
 584 274 l 1
 453 274 l 1
 453 300 l 1
 496 301 502 305 503 334 c 2
 503 622 l 2
 504 651 502 653 476 654 c 2
 461 654 l 1
 461 678 l 1
 593 678 l 1
 711 399 l 1
 829 678 l 1
 962 678 l 1
 962 654 l 1x9f80
319 274 m 1
 122 274 l 1
 122 300 l 1
 166 300 186 314 186 345 c 2
 186 646 l 1
 142 646 l 2xaf80
 86 645 71 630 69 576 c 1
 39 576 l 1
 39 678 l 1
 406 678 l 1
 406 576 l 1
 376 576 l 1xcf80
 374 631 359 645 303 646 c 2
 259 646 l 1xaf80
 259 336 l 2
 259 311 276 301 319 300 c 1
 319 274 l 1
EndSplineSet
EndChar

StartChar: Eth
Encoding: 143 208 154
Width: 778
Flags: W
HStem: -3 43<205.922 441.309> -3 32<5 33> 0 51<203 312.693> 342 40<30 124 260 436> 640 40<303 503.939> 649 32<83 124>
VStem: 609 138<287.659 536.012>
LayerCount: 2
Fore
SplineSet
131 382 m 1x52
 168 594 l 2
 169 601 170 609 170 614 c 0
 170 636 159 644 124 646 c 2
 78 649 l 1
 83 681 l 1x56
 176 679 209 678 240 678 c 0
 265 678 312 679 363 680 c 0
 412 682 426 682 447 682 c 0
 566 682 633 659 685 601 c 0
 726 555 747 494 747 423 c 0
 747 300 695 179 608 100 c 0
 535 33 438 -3 329 -3 c 0x9a
 313 -3 288 -3 258 -2 c 0
 223 -1 171 0 141 0 c 0x32
 102 0 69 -1 0 -3 c 1
 5 29 l 1
 33 32 l 2
 63 35 73 47 81 92 c 2
 124 342 l 1
 24 342 l 1
 30 382 l 1
 131 382 l 1x52
260 382 m 1
 442 382 l 1
 436 342 l 1
 253 342 l 1
 203 51 l 1x3a
 266 42 286 40 314 40 c 0
 430 40 496 73 541 151 c 0
 582 225 609 335 609 434 c 0
 609 521 584 578 533 608 c 0
 499 627 436 640 375 640 c 0x9a
 370 640 356 639 342 638 c 2
 303 635 l 1
 260 382 l 1
EndSplineSet
EndChar

StartChar: onehalf
Encoding: 124 189 155
Width: 750
Flags: W
HStem: 0 63<542 719.758> 271 28<20 47 190.184 265> 350 60<534.149 633.695> 565 51<43 57.8298> 663 20G<226.5 255 570.145 652>
VStem: 646 87<233.318 337.905>
LayerCount: 2
Fore
SplineSet
213 0 m 1
 144 0 l 1
 583 683 l 1
 652 683 l 1
 213 0 l 1
14 271 m 1
 20 299 l 1
 47 301 l 2
 88 305 92 307 102 336 c 1
 154 612 l 1
 41 565 l 1
 32 578 l 1
 43 616 l 1
 173 654 l 2
 192 660 213 668 240 680 c 1
 255 675 l 1
 251 657 250 654 247 637 c 2
 191 341 l 2
 189 331 188 324 188 323 c 0
 190 305 195 302 225 301 c 2
 271 299 l 1
 265 271 l 1
 218 272 166 273 140 273 c 0
 114 273 62 272 14 271 c 1
441 -2 m 1
 441 21 l 1
 526 102 l 2
 605 177 646 243 646 294 c 0
 646 327 621 350 585 350 c 0
 559 350 538 338 524 315 c 2
 506 285 l 1
 476 294 l 1
 516 379 l 1
 553 402 578 410 613 410 c 0
 686 410 733 370 733 308 c 0
 733 263 713 225 670 184 c 2
 542 63 l 1
 677 63 l 2
 695 63 710 64 730 68 c 1
 736 60 l 1
 727 45 721 29 714 -2 c 1
 647 0 616 0 580 0 c 0
 544 0 512 0 441 -2 c 1
EndSplineSet
Ligature2: "'frac' Diagonal Fractions lookup 8 subtable" onesuperior fraction twosuperior
Ligature2: "'frac' Diagonal Fractions lookup 8 subtable" onesuperior slash twosuperior
Ligature2: "'frac' Diagonal Fractions lookup 8 subtable" one fraction two
Ligature2: "'frac' Diagonal Fractions lookup 8 subtable" one slash two
EndChar

StartChar: plusminus
Encoding: 112 177 156
Width: 606
Flags: W
HStem: 0 86<51 555> 272 86<51 260 346 555>
VStem: 260 86<125 272 358 568>
LayerCount: 2
Fore
SplineSet
260 358 m 1
 260 568 l 1
 346 568 l 1
 346 358 l 1
 555 358 l 1
 555 272 l 1
 346 272 l 1
 346 125 l 1
 260 125 l 1
 260 272 l 1
 51 272 l 1
 51 358 l 1
 260 358 l 1
51 0 m 1
 51 86 l 1
 555 86 l 1
 555 0 l 1
 51 0 l 1
EndSplineSet
EndChar

StartChar: Thorn
Encoding: 157 222 157
Width: 667
Flags: W
HStem: -3 35<15 64 242.143 331> 143 41<304.936 434.305> 497 43<317 468.603> 646 35<113 195.423 375 420>
VStem: 512 132<299.405 457.92>
LayerCount: 2
Fore
SplineSet
15 32 m 1
 64 35 l 2
 97 37 102 47 118 132 c 2
 190 541 l 2
 196 577 199 598 199 613 c 0
 199 633 187 642 161 643 c 2
 109 646 l 1
 113 681 l 1
 205 679 241 678 265 678 c 0
 288 678 288 678 424 681 c 1
 420 646 l 1
 375 643 l 2
 342 640 338 636 329 599 c 2
 317 540 l 1
 431 543 l 2
 571 547 644 496 644 394 c 0
 644 264 525 143 397 143 c 0
 368 143 339 149 304 161 c 1
 302 196 l 1
 326 187 345 184 368 184 c 0
 407 184 437 198 463 229 c 0
 493 267 512 322 512 376 c 0
 512 464 470 500 371 500 c 0
 351 500 335 499 308 497 c 1
 242 100 l 2
 240 88 239 76 239 65 c 0
 239 45 249 36 276 35 c 2
 335 32 l 1
 331 -3 l 1
 243 -1 192 0 168 0 c 0
 145 0 106 -1 11 -3 c 1
 15 32 l 1
EndSplineSet
EndChar

StartChar: onequarter
Encoding: 123 188 158
Width: 750
Flags: W
HStem: -2 30<485 560.417 647.525 711> 104 49<471 575 662 720> 271 28<24 51 194.406 269> 565 51<47 61.8298> 660 23G<230.5 259 590.145 672>
LayerCount: 2
Fore
SplineSet
18 271 m 1
 24 299 l 1
 51 301 l 2
 92 305 96 307 106 336 c 1
 158 612 l 1
 45 565 l 1
 36 578 l 1
 47 616 l 1
 177 654 l 2
 196 660 217 668 244 680 c 1
 259 675 l 1
 255 658 254 654 251 637 c 2
 195 341 l 2
 193 331 192 324 192 324 c 1
 194 305 199 302 229 301 c 2
 275 299 l 1
 269 271 l 1
 222 272 170 273 144 273 c 0
 118 273 66 272 18 271 c 1
233 0 m 1
 164 0 l 1
 603 683 l 1
 672 683 l 1
 233 0 l 1
575 104 m 1
 416 104 l 1
 416 128 l 1
 622 391 l 1
 648 395 666 399 702 410 c 1
 712 404 l 1
 662 153 l 1
 730 153 l 1
 732 146 l 1
 720 104 l 1
 653 104 l 1
 646 64 l 2
 645 38 650 30 667 28 c 2
 716 26 l 1
 711 -2 l 1
 652 0 625 0 595 0 c 0
 564 0 538 0 479 -2 c 1
 485 26 l 1
 522 28 l 2
 555 29 559 32 568 65 c 2
 575 104 l 1
471 153 m 1
 585 153 l 1
 625 355 l 1
 471 153 l 1
EndSplineSet
Ligature2: "'frac' Diagonal Fractions lookup 9 subtable" onesuperior fraction foursuperior
Ligature2: "'frac' Diagonal Fractions lookup 9 subtable" onesuperior slash foursuperior
Ligature2: "'frac' Diagonal Fractions lookup 9 subtable" one fraction four
Ligature2: "'frac' Diagonal Fractions lookup 9 subtable" one slash four
EndChar

StartChar: divide
Encoding: 182 247 159
Width: 606
Flags: W
HStem: 0 134<254.388 351.498> 212 86<51 555> 376 134<254.388 351.498>
VStem: 236 134<18.0253 115.498 394.025 491.498>
CounterMasks: 1 e0
LayerCount: 2
Fore
SplineSet
51 212 m 1
 51 298 l 1
 555 298 l 1
 555 212 l 1
 51 212 l 1
303 510 m 0
 340 510 370 480 370 442 c 0
 370 405 340 376 302 376 c 0
 266 376 236 406 236 443 c 0
 236 480 266 510 303 510 c 0
303 134 m 0
 340 134 370 104 370 66 c 0
 370 29 340 0 302 0 c 0
 266 0 236 30 236 67 c 0
 236 104 266 134 303 134 c 0
EndSplineSet
EndChar

StartChar: brokenbar
Encoding: 101 166 160
Width: 606
Flags: W
HStem: 0 21G<259 347> 700 20G<259 347>
VStem: 259 88<0 288 432 720>
LayerCount: 2
Fore
SplineSet
259 720 m 1
 347 720 l 1
 347 432 l 1
 259 432 l 1
 259 720 l 1
259 0 m 1
 259 288 l 1
 347 288 l 1
 347 0 l 1
 259 0 l 1
EndSplineSet
EndChar

StartChar: degree
Encoding: 111 176 161
Width: 400
Flags: W
HStem: 383 61<141.479 258.317> 622 61<141.901 255.842>
VStem: 50 61<474.764 591.813> 289 61<474.683 589.871>
LayerCount: 2
Fore
SplineSet
202 683 m 0
 282 683 350 614 350 533 c 0
 350 450 283 383 200 383 c 0
 117 383 50 450 50 533 c 0
 50 617 117 683 202 683 c 0
200 622 m 0
 150 622 111 583 111 534 c 0
 111 484 150 444 200 444 c 0
 249 444 289 484 289 533 c 0
 289 581 248 622 200 622 c 0
EndSplineSet
EndChar

StartChar: thorn
Encoding: 189 254 162
Width: 556
Flags: W
HStem: -17 49<170.411 299.56> 391 78<355.5 477.5> 652 28<91 157.234> 706 20G<264.5 299>
VStem: 402 114<226.016 388.996>
LayerCount: 2
Fore
SplineSet
-11 -271 m 1
 -21 -264 l 1
 13 -152 26 -103 36 -52 c 2
 160 596 l 2
 162 607 163 616 163 626 c 0
 163 644 152 652 129 652 c 2
 84 652 l 1
 91 680 l 1
 191 695 240 706 289 726 c 1
 299 717 l 1
 196 252 l 1
 262 352 307 401 363 437 c 0
 398 459 429 469 458 469 c 0
 497 469 516 437 516 370 c 0
 516 251 474 138 409 82 c 0
 371 50 318 13 291 0 c 0
 266 -11 238 -17 205 -17 c 0
 184 -17 170 -15 149 -10 c 1
 113 -152 105 -189 101 -250 c 1
 83 -252 64 -255 21 -264 c 0
 6 -268 2 -269 -11 -271 c 1
175 121 m 2
 161 59 l 1
 195 40 223 32 255 32 c 0
 287 32 316 52 335 86 c 0
 373 154 402 263 402 334 c 0
 402 371 393 391 374 391 c 0
 337 391 284 346 237 274 c 0
 203 222 191 191 175 121 c 2
EndSplineSet
EndChar

StartChar: threequarters
Encoding: 125 190 163
Width: 750
Flags: W
HStem: -2 30<485 560.417 647.525 711> 104 49<471 575 662 720> 263 30<82.5393 170.888> 471 33<104.143 192.483> 631 52<114.111 215.497>
VStem: 37 27<353.375 383> 213 91<336.642 458.563> 224 81<546.801 622.031>
LayerCount: 2
Fore
SplineSet
18 288 m 1xfe
 37 384 l 1
 65 383 l 2
 65 381 65 381 64 377 c 0
 63 369 62 361 62 353 c 0
 62 317 88 293 127 293 c 0
 176 293 213 338 213 398 c 0xfe
 213 447 193 471 151 471 c 0
 136 471 127 469 102 462 c 1
 93 469 l 1
 106 506 l 1
 112 504 117 504 128 504 c 0
 156 504 171 507 186 516 c 0
 210 530 224 555 224 582 c 0
 224 612 202 631 166 631 c 0
 132 631 111 615 89 572 c 1
 61 586 l 1
 102 655 l 1
 131 675 158 683 197 683 c 0
 264 683 305 652 305 602 c 0xfd
 305 557 272 523 200 497 c 1
 271 489 304 460 304 406 c 0
 304 325 225 263 124 263 c 0
 86 263 59 269 18 288 c 1xfe
233 0 m 1
 164 0 l 1
 603 683 l 1
 672 683 l 1
 233 0 l 1
575 104 m 1
 416 104 l 1
 416 128 l 1
 622 391 l 1
 648 395 666 399 702 410 c 1
 712 404 l 1
 662 153 l 1
 730 153 l 1
 732 146 l 1
 720 104 l 1
 653 104 l 1
 646 64 l 2
 645 38 650 30 667 28 c 2
 716 26 l 1
 711 -2 l 1
 652 0 625 0 595 0 c 0
 564 0 538 0 479 -2 c 1
 485 26 l 1
 522 28 l 2
 555 29 559 32 568 65 c 2
 575 104 l 1
471 153 m 1
 585 153 l 1
 625 355 l 1
 471 153 l 1
EndSplineSet
Ligature2: "'frac' Diagonal Fractions lookup 11 subtable" threesuperior fraction foursuperior
Ligature2: "'frac' Diagonal Fractions lookup 11 subtable" threesuperior slash foursuperior
Ligature2: "'frac' Diagonal Fractions lookup 11 subtable" three fraction four
Ligature2: "'frac' Diagonal Fractions lookup 11 subtable" three slash four
EndChar

StartChar: twosuperior
Encoding: 113 178 164
Width: 300
Flags: W
HStem: 273 63<127 304.758> 623 60<119.009 218.695>
VStem: 231 87<506.318 610.905>
LayerCount: 2
Fore
SplineSet
26 271 m 1
 26 294 l 1
 111 375 l 2
 190 450 231 516 231 567 c 0
 231 600 206 623 170 623 c 0
 144 623 123 611 109 588 c 2
 91 558 l 1
 61 567 l 1
 101 652 l 1
 137 674 164 683 198 683 c 0
 271 683 318 643 318 581 c 0
 318 536 298 498 255 457 c 2
 127 336 l 1
 262 336 l 2
 280 336 295 337 315 341 c 1
 321 333 l 1
 312 318 306 302 299 271 c 1
 227 272 192 273 162 273 c 0
 132 273 75 272 26 271 c 1
EndSplineSet
EndChar

StartChar: registered
Encoding: 109 174 165
Width: 747
Flags: W
HStem: -17 56<266.86 477.371> 158 20<211 252.628 350 367 529.233 557> 331 24<324 383.586> 519 21<212 253.132 326.5 406.784> 639 56<264.038 480.123>
VStem: 26 56<227.949 449.638> 255 69<179.514 331 356 517.097> 443 70<384.408 498.315> 664 56<231.361 450.462>
LayerCount: 2
Fore
SplineSet
324 331 m 1
 324 209 l 2
 324 185 328 181 350 179 c 2
 367 178 l 1
 367 158 l 1
 211 158 l 1
 211 178 l 1
 225 178 l 2
 251 178 254 181 255 205 c 2
 255 490 l 2
 254 517 253 518 227 519 c 2
 212 519 l 1
 212 540 l 1
 364 540 l 2
 420 540 441 538 461 529 c 0
 491 516 513 481 513 445 c 0
 513 392 479 357 412 344 c 1
 448 336 462 321 493 255 c 0
 526 183 531 178 557 178 c 1
 557 158 l 1
 489 158 l 2
 464 160 456 170 430 230 c 0
 428 235 425 241 422 248 c 0
 418 257 415 263 414 266 c 0
 387 328 382 332 339 331 c 2
 324 331 l 1
324 356 m 1
 343 355 l 1
 353 355 l 2
 413 355 443 383 443 438 c 0
 443 490 413 520 362 518 c 2
 341 517 l 2
 326 515 323 509 324 479 c 2
 324 356 l 1
378 695 m 0
 564 695 720 533 720 339 c 0
 720 142 565 -17 372 -17 c 0
 179 -17 26 142 26 341 c 0
 26 538 182 695 378 695 c 0
377 639 m 0
 289 639 217 607 159 543 c 0
 110 488 82 415 82 342 c 0
 82 173 211 39 372 39 c 0
 533 39 664 174 664 340 c 0
 664 503 534 639 377 639 c 0
EndSplineSet
EndChar

StartChar: minus
Encoding: 659 8722 166
Width: 606
Flags: W
HStem: 240 74<64 537>
LayerCount: 2
Fore
SplineSet
64 240 m 1
 64 314 l 1
 537 314 l 1
 537 240 l 1
 64 240 l 1
EndSplineSet
EndChar

StartChar: eth
Encoding: 175 240 167
Width: 556
Flags: W
HStem: -17 44<189.896 299.769> 425 44<250.141 360.486> 706 20G<259.333 298>
VStem: 48 114<56.364 263.003> 388 114<185.315 432.344>
LayerCount: 2
Fore
SplineSet
546 665 m 1
 417 601 l 1
 478 507 502 426 502 319 c 0
 502 199 459 103 380 44 c 0
 326 5 262 -17 200 -17 c 0
 97 -17 48 33 48 135 c 0
 48 215 78 313 117 356 c 0
 177 426 266 469 349 469 c 0
 366 469 375 467 392 460 c 1
 387 506 377 533 353 570 c 1
 215 501 l 1
 196 536 l 1
 327 601 l 1
 299 635 277 654 236 678 c 1
 276 726 l 1
 320 704 354 677 392 633 c 1
 528 700 l 1
 546 665 l 1
308 425 m 0
 275 425 247 408 223 374 c 0
 188 324 162 220 162 130 c 0
 162 67 193 27 243 27 c 0
 275 27 303 44 327 78 c 0
 362 128 388 232 388 323 c 0
 388 385 356 425 308 425 c 0
EndSplineSet
EndChar

StartChar: multiply
Encoding: 150 215 168
Width: 606
Flags: W
LayerCount: 2
Fore
SplineSet
241 253 m 1
 73 422 l 1
 134 483 l 1
 302 314 l 1
 471 483 l 1
 532 422 l 1
 363 253 l 1
 534 82 l 1
 473 21 l 1
 302 192 l 1
 133 21 l 1
 72 82 l 1
 241 253 l 1
EndSplineSet
EndChar

StartChar: threesuperior
Encoding: 114 179 169
Width: 300
Flags: W
HStem: 263 30<87.5393 175.888> 471 33<109.143 197.483> 631 52<119.111 220.497>
VStem: 42 27<353.375 383> 218 91<336.642 458.563> 229 81<546.801 622.031>
LayerCount: 2
Fore
SplineSet
23 288 m 1xf8
 42 384 l 1
 70 383 l 2
 70 381 70 381 69 377 c 0
 68 369 67 361 67 353 c 0
 67 317 93 293 132 293 c 0
 181 293 218 338 218 398 c 0xf8
 218 447 198 471 156 471 c 0
 141 471 132 469 107 462 c 1
 98 469 l 1
 111 506 l 1
 117 504 122 504 133 504 c 0
 161 504 176 507 191 516 c 0
 215 530 229 555 229 582 c 0
 229 612 207 631 171 631 c 0
 137 631 116 615 94 572 c 1
 66 586 l 1
 107 655 l 1
 136 675 163 683 202 683 c 0
 269 683 310 652 310 602 c 0xf4
 310 557 277 523 205 497 c 1
 276 489 309 460 309 406 c 0
 309 325 230 263 129 263 c 0
 91 263 64 269 23 288 c 1xf8
EndSplineSet
EndChar

StartChar: copyright
Encoding: 104 169 170
Width: 747
Flags: W
HStem: -17 56<266.86 477.371> 137 39<341.553 459.075> 500 35<332.738 446.027> 639 56<264.038 480.123>
VStem: 26 56<227.949 449.638> 188 85<248.978 429.172> 487 32<403 450.471> 664 56<231.361 450.462>
LayerCount: 2
Fore
SplineSet
519 507 m 1
 519 403 l 1
 487 403 l 1
 474 469 443 500 390 500 c 0
 320 500 273 439 273 347 c 0
 273 247 326 176 401 176 c 0
 441 176 480 196 497 226 c 2
 505 240 l 1
 531 229 l 1
 521 208 515 199 503 187 c 0
 471 155 423 137 372 137 c 0
 263 137 188 217 188 333 c 0
 188 453 268 535 386 535 c 0
 404 535 420 533 444 527 c 2
 449 526 l 1
 451 526 l 1
 480 518 503 512 519 507 c 1
378 695 m 0
 564 695 720 533 720 339 c 0
 720 142 565 -17 372 -17 c 0
 179 -17 26 142 26 341 c 0
 26 538 182 695 378 695 c 0
377 639 m 0
 289 639 217 607 159 543 c 0
 110 488 82 415 82 342 c 0
 82 173 211 39 372 39 c 0
 533 39 664 174 664 340 c 0
 664 503 534 639 377 639 c 0
EndSplineSet
EndChar

StartChar: Aacute
Encoding: 128 193 171
Width: 722
Flags: W
HStem: -3 35<-30 4 160 199 384 426 648 685> 264 43<245 438> 663 20G<402.157 511>
LayerCount: 2
Fore
SplineSet
414 683 m 1
 510 683 l 1
 512 664 514 645 515 640 c 0
 517 621 518 612 518 612 c 1
 594 90 l 2
 600 54 616 38 648 35 c 2
 685 32 l 1
 685 -3 l 1
 597 -1 568 0 539 0 c 0
 507 0 472 -1 384 -3 c 1
 384 32 l 1
 426 35 l 2
 455 37 469 48 468 66 c 2
 443 264 l 1
 406 265 l 2
 373 266 352 267 344 267 c 2
 333 267 l 1
 222 264 l 1
 136 112 l 2
 122 87 117 72 117 55 c 0
 117 43 130 37 160 35 c 2
 204 32 l 1
 199 -3 l 1
 152 -2 124 -1 115 0 c 2
 85 0 l 1
 -35 -3 l 1
 -30 32 l 1
 4 35 l 2
 22 36 37 48 51 70 c 2
 414 683 l 1
400 573 m 1
 245 307 l 1
 438 307 l 1
 400 573 l 1
369 730 m 1
 510 881 l 2
 530 902 545 911 561 911 c 0
 587 911 608 891 608 866 c 0
 608 846 600 835 572 819 c 2
 418 730 l 1
 369 730 l 1
EndSplineSet
EndChar

StartChar: Acircumflex
Encoding: 129 194 172
Width: 722
Flags: W
HStem: -3 35<-30 4 160 199 384 426 648 685> 264 43<245 438> 663 20G<402.157 511> 722 21G<295 379.579 552.474 622>
LayerCount: 2
Fore
SplineSet
414 683 m 1
 510 683 l 1
 512 664 514 645 515 640 c 0
 517 621 518 612 518 612 c 1
 594 90 l 2
 600 54 616 38 648 35 c 2
 685 32 l 1
 685 -3 l 1
 597 -1 568 0 539 0 c 0
 507 0 472 -1 384 -3 c 1
 384 32 l 1
 426 35 l 2
 455 37 469 48 468 66 c 2
 443 264 l 1
 406 265 l 2
 373 266 352 267 344 267 c 2
 333 267 l 1
 222 264 l 1
 136 112 l 2
 122 87 117 72 117 55 c 0
 117 43 130 37 160 35 c 2
 204 32 l 1
 199 -3 l 1
 152 -2 124 -1 115 0 c 2
 85 0 l 1
 -35 -3 l 1
 -30 32 l 1
 4 35 l 2
 22 36 37 48 51 70 c 2
 414 683 l 1
400 573 m 1
 245 307 l 1
 438 307 l 1
 400 573 l 1
536 896 m 1
 622 722 l 1
 571 722 l 1
 483 817 l 1
 352 722 l 1
 295 722 l 1
 455 896 l 1
 536 896 l 1
EndSplineSet
EndChar

StartChar: Adieresis
Encoding: 131 196 173
Width: 722
Flags: W
HStem: -3 35<-30 4 160 199 384 426 648 685> 264 43<245 438> 663 20G<402.157 511> 749 131<333.326 417.49 545.625 630.49>
VStem: 313 123<767.103 860.429> 526 123<767.267 860.429>
LayerCount: 2
Fore
SplineSet
414 683 m 1
 510 683 l 1
 512 664 514 645 515 640 c 0
 517 621 518 612 518 612 c 1
 594 90 l 2
 600 54 616 38 648 35 c 2
 685 32 l 1
 685 -3 l 1
 597 -1 568 0 539 0 c 0
 507 0 472 -1 384 -3 c 1
 384 32 l 1
 426 35 l 2
 455 37 469 48 468 66 c 2
 443 264 l 1
 406 265 l 2
 373 266 352 267 344 267 c 2
 333 267 l 1
 222 264 l 1
 136 112 l 2
 122 87 117 72 117 55 c 0
 117 43 130 37 160 35 c 2
 204 32 l 1
 199 -3 l 1
 152 -2 124 -1 115 0 c 2
 85 0 l 1
 -35 -3 l 1
 -30 32 l 1
 4 35 l 2
 22 36 37 48 51 70 c 2
 414 683 l 1
400 573 m 1
 245 307 l 1
 438 307 l 1
 400 573 l 1
593 880 m 0
 626 880 649 856 649 820 c 0
 649 779 620 749 580 749 c 0
 547 749 526 771 526 806 c 0
 526 847 556 880 593 880 c 0
380 880 m 0
 413 880 436 856 436 820 c 0
 436 779 407 749 367 749 c 0
 334 749 313 771 313 805 c 0
 313 847 343 880 380 880 c 0
EndSplineSet
EndChar

StartChar: Agrave
Encoding: 127 192 174
Width: 722
Flags: W
HStem: -3 35<-30 4 160 199 384 426 648 685> 264 43<245 438> 663 20G<402.157 511>
LayerCount: 2
Fore
SplineSet
414 683 m 1
 510 683 l 1
 512 664 514 645 515 640 c 0
 517 621 518 612 518 612 c 1
 594 90 l 2
 600 54 616 38 648 35 c 2
 685 32 l 1
 685 -3 l 1
 597 -1 568 0 539 0 c 0
 507 0 472 -1 384 -3 c 1
 384 32 l 1
 426 35 l 2
 455 37 469 48 468 66 c 2
 443 264 l 1
 406 265 l 2
 373 266 352 267 344 267 c 2
 333 267 l 1
 222 264 l 1
 136 112 l 2
 122 87 117 72 117 55 c 0
 117 43 130 37 160 35 c 2
 204 32 l 1
 199 -3 l 1
 152 -2 124 -1 115 0 c 2
 85 0 l 1
 -35 -3 l 1
 -30 32 l 1
 4 35 l 2
 22 36 37 48 51 70 c 2
 414 683 l 1
400 573 m 1
 245 307 l 1
 438 307 l 1
 400 573 l 1
500 730 m 1
 377 812 l 2
 342 835 333 847 333 868 c 0
 333 890 356 911 380 911 c 0
 399 911 418 898 441 867 c 2
 545 730 l 1
 500 730 l 1
EndSplineSet
EndChar

StartChar: Aring
Encoding: 132 197 175
Width: 722
Flags: W
HStem: -3 35<-30 4 160 199 384 426 648 685> 264 43<245 438> 663 20G<402.157 511> 735 50<430.476 513.309> 885 50<431.113 512.307>
VStem: 372 50<793.889 875.277> 522 50<793.691 875.962>
LayerCount: 2
Fore
SplineSet
414 683 m 1
 510 683 l 1
 512 664 514 645 515 640 c 0
 517 621 518 612 518 612 c 1
 594 90 l 2
 600 54 616 38 648 35 c 2
 685 32 l 1
 685 -3 l 1
 597 -1 568 0 539 0 c 0
 507 0 472 -1 384 -3 c 1
 384 32 l 1
 426 35 l 2
 455 37 469 48 468 66 c 2
 443 264 l 1
 406 265 l 2
 373 266 352 267 344 267 c 2
 333 267 l 1
 222 264 l 1
 136 112 l 2
 122 87 117 72 117 55 c 0
 117 43 130 37 160 35 c 2
 204 32 l 1
 199 -3 l 1
 152 -2 124 -1 115 0 c 2
 85 0 l 1
 -35 -3 l 1
 -30 32 l 1
 4 35 l 2
 22 36 37 48 51 70 c 2
 414 683 l 1
400 573 m 1
 245 307 l 1
 438 307 l 1
 400 573 l 1
474 935 m 0
 527 935 572 889 572 835 c 0
 572 780 527 735 472 735 c 0
 416 735 372 780 372 836 c 0
 372 891 417 935 474 935 c 0
473 885 m 0
 444 885 422 863 422 835 c 0
 422 807 444 785 472 785 c 0
 500 785 522 807 522 835 c 0
 522 862 500 885 473 885 c 0
EndSplineSet
EndChar

StartChar: Atilde
Encoding: 130 195 176
Width: 722
Flags: W
HStem: -3 35<-30 4 160 199 384 426 648 685> 264 43<245 438> 663 20G<402.157 511> 747 77<486.264 595.315> 791 75<341.455 450.575>
VStem: 289 40<747 778.012>
LayerCount: 2
Fore
SplineSet
414 683 m 1xe4
 510 683 l 1
 512 664 514 645 515 640 c 0
 517 621 518 612 518 612 c 1
 594 90 l 2
 600 54 616 38 648 35 c 2
 685 32 l 1
 685 -3 l 1
 597 -1 568 0 539 0 c 0
 507 0 472 -1 384 -3 c 1
 384 32 l 1
 426 35 l 2
 455 37 469 48 468 66 c 2
 443 264 l 1
 406 265 l 2
 373 266 352 267 344 267 c 2
 333 267 l 1
 222 264 l 1
 136 112 l 2
 122 87 117 72 117 55 c 0
 117 43 130 37 160 35 c 2
 204 32 l 1
 199 -3 l 1
 152 -2 124 -1 115 0 c 2
 85 0 l 1
 -35 -3 l 1
 -30 32 l 1
 4 35 l 2
 22 36 37 48 51 70 c 2
 414 683 l 1xe4
400 573 m 1
 245 307 l 1
 438 307 l 1
 400 573 l 1
329 747 m 1xf4
 289 747 l 1xf4
 307 826 347 866 407 866 c 0xec
 433 866 450 862 483 847 c 0
 516 832 542 824 558 824 c 0xf4
 580 824 593 835 607 866 c 1
 648 866 l 1xec
 627 785 590 747 533 747 c 0xf4
 509 747 499 750 451 769 c 0
 410 786 393 791 376 791 c 0xec
 355 791 344 781 329 747 c 1xf4
EndSplineSet
EndChar

StartChar: Ccedilla
Encoding: 134 199 177
Width: 685
Flags: W
HStem: -218 41<205.803 324.962> -17 65<339 469.921> 636 59<371.556 580.909>
VStem: 69 138<143.233 385.594> 332 92<-170.218 -104.738> 622 35<484 572>
LayerCount: 2
Fore
SplineSet
339 -17 m 1
 308 -62 l 1
 318 -60 325 -59 334 -59 c 0
 387 -59 424 -88 424 -131 c 0
 424 -182 373 -218 301 -218 c 0
 262 -218 233 -212 188 -193 c 1
 210 -160 l 1
 239 -173 255 -177 277 -177 c 0
 311 -177 332 -162 332 -137 c 0
 332 -113 315 -100 284 -100 c 0
 274 -100 267 -101 255 -104 c 1
 242 -92 l 1
 296 -15 l 1
 147 0 69 91 69 250 c 0
 69 497 263 695 504 695 c 0
 573 695 630 682 695 652 c 1
 669 560 662 531 657 484 c 1
 622 484 l 1
 627 572 l 2
 629 605 545 636 454 636 c 0
 302 636 207 495 207 272 c 0
 207 119 268 48 399 48 c 0
 462 48 521 67 597 112 c 2
 619 125 l 1
 629 116 l 1
 616 77 l 1
 514 11 432 -17 339 -17 c 1
EndSplineSet
EndChar

StartChar: Eacute
Encoding: 136 201 178
Width: 611
Flags: W
HStem: -3 32<16 44> 0 56<214 488.859> 330 48<270 487> 634 47<315 536.193> 649 32<94 135>
VStem: 520 36<145.727 168> 549 32<520 619.263>
LayerCount: 2
Fore
SplineSet
270 730 m 1x20
 411 881 l 2
 431 902 445 911 462 911 c 0
 488 911 509 891 509 866 c 0
 509 846 501 836 473 819 c 2
 319 730 l 1
 270 730 l 1x20
16 29 m 1xa4
 44 32 l 2
 74 35 84 47 92 92 c 2
 179 594 l 2
 180 601 181 609 181 614 c 0
 181 636 170 644 135 646 c 2
 89 649 l 1
 94 681 l 1xac
 182 679 220 678 251 678 c 0
 282 678 282 678 371 680 c 0
 398 681 424 681 437 681 c 0
 455 681 455 681 596 678 c 1
 606 672 l 1
 594 608 588 574 581 520 c 1
 549 520 l 1
 549 573 l 2x32
 549 606 546 616 537 620 c 0
 521 625 426 634 377 634 c 0
 371 634 361 634 354 633 c 2
 315 630 l 1
 270 378 l 1
 356 378 l 2
 409 378 445 379 496 381 c 1
 501 372 l 1
 487 325 l 1
 383 329 351 330 317 330 c 2
 262 330 l 1
 214 56 l 1
 238 51 249 50 273 50 c 2
 312 50 l 1
 390 53 l 2
 473 56 485 61 498 98 c 2
 520 168 l 1
 556 168 l 1
 545 123 538 88 522 0 c 1x74
 378 -3 378 -3 355 -3 c 0xa4
 335 -3 312 -3 262 -2 c 0
 207 0 177 0 152 0 c 0x64
 113 0 81 -1 11 -3 c 1
 16 29 l 1xa4
EndSplineSet
EndChar

StartChar: Ecircumflex
Encoding: 137 202 179
Width: 611
Flags: W
HStem: -3 32<16 44> 0 56<214 488.859> 330 48<270 487> 634 47<315 536.193> 649 32<94 135> 722 21G<201 285.579 458.474 528>
VStem: 520 36<145.727 168> 549 32<520 619.263>
LayerCount: 2
Fore
SplineSet
442 896 m 1x24
 528 722 l 1
 477 722 l 1
 389 817 l 1
 258 722 l 1
 201 722 l 1
 361 896 l 1
 442 896 l 1x24
16 29 m 1xa6
 44 32 l 2
 74 35 84 47 92 92 c 2
 179 594 l 2
 180 601 181 609 181 614 c 0
 181 636 170 644 135 646 c 2
 89 649 l 1
 94 681 l 1xae
 182 679 220 678 251 678 c 0
 282 678 282 678 371 680 c 0
 398 681 424 681 437 681 c 0
 455 681 455 681 596 678 c 1
 606 672 l 1
 594 608 588 574 581 520 c 1
 549 520 l 1
 549 573 l 2x35
 549 606 546 616 537 620 c 0
 521 625 426 634 377 634 c 0
 371 634 361 634 354 633 c 2
 315 630 l 1
 270 378 l 1
 356 378 l 2
 409 378 445 379 496 381 c 1
 501 372 l 1
 487 325 l 1
 383 329 351 330 317 330 c 2
 262 330 l 1
 214 56 l 1
 238 51 249 50 273 50 c 2
 312 50 l 1
 390 53 l 2
 473 56 485 61 498 98 c 2
 520 168 l 1
 556 168 l 1
 545 123 538 88 522 0 c 1x76
 378 -3 378 -3 355 -3 c 0xa6
 335 -3 312 -3 262 -2 c 0
 207 0 177 0 152 0 c 0x66
 113 0 81 -1 11 -3 c 1
 16 29 l 1xa6
EndSplineSet
EndChar

StartChar: Edieresis
Encoding: 138 203 180
Width: 611
Flags: W
HStem: -3 32<16 44> 0 56<214 488.859> 330 48<270 487> 634 47<315 536.193> 649 32<94 135> 749 131<226.625 311.49 440.326 524.49>
VStem: 207 123<767.267 860.429> 420 123<767.103 860.429> 520 36<145.727 168> 549 32<520 619.263>
LayerCount: 2
Fore
SplineSet
487 880 m 0x27
 520 880 543 856 543 820 c 0
 543 779 514 749 474 749 c 0
 441 749 420 771 420 805 c 0
 420 847 450 880 487 880 c 0x27
274 880 m 0
 307 880 330 856 330 820 c 0
 330 779 301 749 261 749 c 0
 228 749 207 771 207 806 c 0
 207 847 237 880 274 880 c 0
16 29 m 1xa680
 44 32 l 2
 74 35 84 47 92 92 c 2
 179 594 l 2
 180 601 181 609 181 614 c 0
 181 636 170 644 135 646 c 2
 89 649 l 1
 94 681 l 1xae80
 182 679 220 678 251 678 c 0
 282 678 282 678 371 680 c 0
 398 681 424 681 437 681 c 0
 455 681 455 681 596 678 c 1
 606 672 l 1
 594 608 588 574 581 520 c 1
 549 520 l 1
 549 573 l 2x3640
 549 606 546 616 537 620 c 0
 521 625 426 634 377 634 c 0
 371 634 361 634 354 633 c 2
 315 630 l 1
 270 378 l 1
 356 378 l 2
 409 378 445 379 496 381 c 1
 501 372 l 1
 487 325 l 1
 383 329 351 330 317 330 c 2
 262 330 l 1
 214 56 l 1
 238 51 249 50 273 50 c 2
 312 50 l 1
 390 53 l 2
 473 56 485 61 498 98 c 2
 520 168 l 1
 556 168 l 1
 545 123 538 88 522 0 c 1x7680
 378 -3 378 -3 355 -3 c 0xa680
 335 -3 312 -3 262 -2 c 0
 207 0 177 0 152 0 c 0x6680
 113 0 81 -1 11 -3 c 1
 16 29 l 1xa680
EndSplineSet
EndChar

StartChar: Egrave
Encoding: 135 200 181
Width: 611
Flags: W
HStem: -3 32<16 44> 0 56<214 488.859> 330 48<270 487> 634 47<315 536.193> 649 32<94 135>
VStem: 520 36<145.727 168> 549 32<520 619.263>
LayerCount: 2
Fore
SplineSet
411 730 m 1x20
 288 812 l 2
 253 836 244 847 244 868 c 0
 244 890 267 911 291 911 c 0
 310 911 329 898 352 867 c 2
 456 730 l 1
 411 730 l 1x20
16 29 m 1xa4
 44 32 l 2
 74 35 84 47 92 92 c 2
 179 594 l 2
 180 601 181 609 181 614 c 0
 181 636 170 644 135 646 c 2
 89 649 l 1
 94 681 l 1xac
 182 679 220 678 251 678 c 0
 282 678 282 678 371 680 c 0
 398 681 424 681 437 681 c 0
 455 681 455 681 596 678 c 1
 606 672 l 1
 594 608 588 574 581 520 c 1
 549 520 l 1
 549 573 l 2x32
 549 606 546 616 537 620 c 0
 521 625 426 634 377 634 c 0
 371 634 361 634 354 633 c 2
 315 630 l 1
 270 378 l 1
 356 378 l 2
 409 378 445 379 496 381 c 1
 501 372 l 1
 487 325 l 1
 383 329 351 330 317 330 c 2
 262 330 l 1
 214 56 l 1
 238 51 249 50 273 50 c 2
 312 50 l 1
 390 53 l 2
 473 56 485 61 498 98 c 2
 520 168 l 1
 556 168 l 1
 545 123 538 88 522 0 c 1x74
 378 -3 378 -3 355 -3 c 0xa4
 335 -3 312 -3 262 -2 c 0
 207 0 177 0 152 0 c 0x64
 113 0 81 -1 11 -3 c 1
 16 29 l 1xa4
EndSplineSet
EndChar

StartChar: Iacute
Encoding: 140 205 182
Width: 389
Flags: W
HStem: -3 35<3 52 230.143 319> 646 35<101 183.423 363 408>
LayerCount: 2
Fore
SplineSet
408 646 m 1
 363 643 l 2
 330 641 324 636 317 599 c 2
 230 100 l 2
 228 89 227 77 227 66 c 0
 227 44 237 36 264 35 c 2
 323 32 l 1
 319 -3 l 1
 231 -1 180 0 156 0 c 0
 133 0 94 -1 -1 -3 c 1
 3 32 l 1
 52 35 l 2
 85 37 90 47 106 132 c 2
 178 541 l 2
 184 577 187 598 187 613 c 0
 187 633 175 642 149 643 c 2
 97 646 l 1
 101 681 l 1
 193 679 229 678 253 678 c 0
 276 678 276 678 412 681 c 1
 408 646 l 1
181 730 m 1
 322 881 l 2
 342 902 357 911 373 911 c 0
 399 911 420 891 420 866 c 0
 420 846 412 835 384 819 c 2
 230 730 l 1
 181 730 l 1
EndSplineSet
EndChar

StartChar: Icircumflex
Encoding: 141 206 183
Width: 389
Flags: W
HStem: -3 35<3 52 230.143 319> 646 35<101 183.423 363 408> 722 21G<116 200.579 373.474 443>
LayerCount: 2
Fore
SplineSet
408 646 m 1
 363 643 l 2
 330 641 324 636 317 599 c 2
 230 100 l 2
 228 89 227 77 227 66 c 0
 227 44 237 36 264 35 c 2
 323 32 l 1
 319 -3 l 1
 231 -1 180 0 156 0 c 0
 133 0 94 -1 -1 -3 c 1
 3 32 l 1
 52 35 l 2
 85 37 90 47 106 132 c 2
 178 541 l 2
 184 577 187 598 187 613 c 0
 187 633 175 642 149 643 c 2
 97 646 l 1
 101 681 l 1
 193 679 229 678 253 678 c 0
 276 678 276 678 412 681 c 1
 408 646 l 1
357 896 m 1
 443 722 l 1
 392 722 l 1
 304 817 l 1
 173 722 l 1
 116 722 l 1
 276 896 l 1
 357 896 l 1
EndSplineSet
EndChar

StartChar: Idieresis
Encoding: 142 207 184
Width: 389
Flags: W
HStem: -3 35<3 52 230.143 319> 646 35<101 183.423 363 408> 749 131<138.326 222.49 351.326 435.49>
VStem: 118 123<767.103 860.429> 331 123<767.103 860.429>
LayerCount: 2
Fore
SplineSet
408 646 m 1
 363 643 l 2
 330 641 324 636 317 599 c 2
 230 100 l 2
 228 89 227 77 227 66 c 0
 227 44 237 36 264 35 c 2
 323 32 l 1
 319 -3 l 1
 231 -1 180 0 156 0 c 0
 133 0 94 -1 -1 -3 c 1
 3 32 l 1
 52 35 l 2
 85 37 90 47 106 132 c 2
 178 541 l 2
 184 577 187 598 187 613 c 0
 187 633 175 642 149 643 c 2
 97 646 l 1
 101 681 l 1
 193 679 229 678 253 678 c 0
 276 678 276 678 412 681 c 1
 408 646 l 1
398 880 m 0
 431 880 454 856 454 820 c 0
 454 779 425 749 385 749 c 0
 352 749 331 771 331 805 c 0
 331 847 361 880 398 880 c 0
185 880 m 0
 218 880 241 856 241 820 c 0
 241 779 212 749 172 749 c 0
 139 749 118 771 118 805 c 0
 118 847 148 880 185 880 c 0
EndSplineSet
EndChar

StartChar: Igrave
Encoding: 139 204 185
Width: 389
Flags: W
HStem: -3 35<3 52 230.143 319> 646 35<101 183.423 363 408>
LayerCount: 2
Fore
SplineSet
408 646 m 1
 363 643 l 2
 330 641 324 636 317 599 c 2
 230 100 l 2
 228 89 227 77 227 66 c 0
 227 44 237 36 264 35 c 2
 323 32 l 1
 319 -3 l 1
 231 -1 180 0 156 0 c 0
 133 0 94 -1 -1 -3 c 1
 3 32 l 1
 52 35 l 2
 85 37 90 47 106 132 c 2
 178 541 l 2
 184 577 187 598 187 613 c 0
 187 633 175 642 149 643 c 2
 97 646 l 1
 101 681 l 1
 193 679 229 678 253 678 c 0
 276 678 276 678 412 681 c 1
 408 646 l 1
320 730 m 1
 197 812 l 2
 161 836 152 847 152 868 c 0
 152 890 175 911 199 911 c 0
 218 911 237 898 261 867 c 2
 365 730 l 1
 320 730 l 1
EndSplineSet
EndChar

StartChar: Ntilde
Encoding: 144 209 186
Width: 778
Flags: W
HStem: -3 38<0 76.5893 148.254 226> 649 32<67 103 593 630 786 823> 747 77<496.718 605.772> 791 75<352.05 460.474>
VStem: 300 40<747 778.012>
LayerCount: 2
Fore
SplineSet
620 -3 m 1xc8
 535 -3 l 1
 225 534 l 1
 152 138 l 2
 147 109 144 89 144 76 c 0
 144 50 156 36 180 35 c 2
 231 32 l 1
 226 -3 l 1
 162 -1 136 0 114 0 c 0
 92 0 66 -1 -2 -3 c 1
 0 32 l 1
 48 35 l 2
 70 36 80 50 88 91 c 2
 185 578 l 1
 185 610 147 642 103 646 c 2
 64 649 l 1
 67 681 l 1
 116 679 152 678 176 678 c 0
 195 678 218 679 282 681 c 1
 596 142 l 1
 670 542 l 2
 674 562 676 589 676 612 c 0
 676 633 661 644 630 646 c 2
 588 649 l 1
 593 681 l 1
 659 679 687 678 711 678 c 0
 735 678 763 679 829 681 c 1
 823 649 l 1
 786 646 l 2
 767 644 760 642 752 636 c 0
 744 629 739 611 722 528 c 2
 636 100 l 2
 629 67 625 37 620 -3 c 1xc8
340 747 m 1xe8
 300 747 l 1xe8
 318 826 357 866 417 866 c 0xd8
 444 866 461 862 494 847 c 0
 526 832 552 824 569 824 c 0xe8
 590 824 603 835 618 866 c 1
 659 866 l 1xd8
 637 785 601 747 543 747 c 0xe8
 519 747 509 750 461 769 c 0
 419 786 403 791 386 791 c 0xd8
 365 791 355 781 340 747 c 1xe8
EndSplineSet
EndChar

StartChar: Oacute
Encoding: 146 211 187
Width: 833
Flags: W
HStem: -17 43<298.441 478.856> 652 43<381.976 570.69>
VStem: 76 138<141.151 411.213> 656 138<276.089 535.185>
LayerCount: 2
Fore
SplineSet
493 695 m 0
 588 695 667 666 721 612 c 0
 771 563 794 499 794 415 c 0
 794 170 608 -17 365 -17 c 0
 181 -17 76 87 76 268 c 0
 76 518 249 695 493 695 c 0
480 652 m 0
 393 652 332 616 285 537 c 0
 242 467 214 347 214 239 c 0
 214 99 274 26 388 26 c 0
 474 26 541 69 590 153 c 0
 631 226 656 332 656 435 c 0
 656 579 596 652 480 652 c 0
430 730 m 1
 571 881 l 2
 591 902 605 911 622 911 c 0
 648 911 669 891 669 867 c 0
 669 846 661 836 633 819 c 2
 479 730 l 1
 430 730 l 1
EndSplineSet
EndChar

StartChar: Ocircumflex
Encoding: 147 212 188
Width: 833
Flags: W
HStem: -17 43<298.441 478.856> 652 43<381.976 570.69> 722 21G<339 423.579 596.474 666>
VStem: 76 138<141.151 411.213> 656 138<276.089 535.185>
LayerCount: 2
Fore
SplineSet
493 695 m 0
 588 695 667 666 721 612 c 0
 771 563 794 499 794 415 c 0
 794 170 608 -17 365 -17 c 0
 181 -17 76 87 76 268 c 0
 76 518 249 695 493 695 c 0
480 652 m 0
 393 652 332 616 285 537 c 0
 242 467 214 347 214 239 c 0
 214 99 274 26 388 26 c 0
 474 26 541 69 590 153 c 0
 631 226 656 332 656 435 c 0
 656 579 596 652 480 652 c 0
580 896 m 1
 666 722 l 1
 615 722 l 1
 527 817 l 1
 396 722 l 1
 339 722 l 1
 499 896 l 1
 580 896 l 1
EndSplineSet
EndChar

StartChar: Odieresis
Encoding: 149 214 189
Width: 833
Flags: W
HStem: -17 43<298.441 478.856> 652 43<381.976 570.69> 749 131<361.326 445.49 574.326 658.49>
VStem: 76 138<141.151 411.213> 341 123<767.103 860.429> 554 123<767.103 860.429> 656 138<276.089 535.185>
LayerCount: 2
Fore
SplineSet
493 695 m 0xfa
 588 695 667 666 721 612 c 0
 771 563 794 499 794 415 c 0
 794 170 608 -17 365 -17 c 0
 181 -17 76 87 76 268 c 0
 76 518 249 695 493 695 c 0xfa
480 652 m 0
 393 652 332 616 285 537 c 0
 242 467 214 347 214 239 c 0
 214 99 274 26 388 26 c 0
 474 26 541 69 590 153 c 0
 631 226 656 332 656 435 c 0
 656 579 596 652 480 652 c 0
621 880 m 0
 654 880 677 856 677 820 c 0
 677 779 648 749 608 749 c 0
 575 749 554 771 554 805 c 0xfc
 554 847 584 880 621 880 c 0
408 880 m 0
 441 880 464 856 464 820 c 0
 464 779 435 749 395 749 c 0
 362 749 341 771 341 805 c 0
 341 847 371 880 408 880 c 0
EndSplineSet
EndChar

StartChar: Ograve
Encoding: 145 210 190
Width: 833
Flags: W
HStem: -17 43<298.441 478.856> 652 43<381.976 570.69>
VStem: 76 138<141.151 411.213> 656 138<276.089 535.185>
LayerCount: 2
Fore
SplineSet
493 695 m 0
 588 695 667 666 721 612 c 0
 771 563 794 499 794 415 c 0
 794 170 608 -17 365 -17 c 0
 181 -17 76 87 76 268 c 0
 76 518 249 695 493 695 c 0
480 652 m 0
 393 652 332 616 285 537 c 0
 242 467 214 347 214 239 c 0
 214 99 274 26 388 26 c 0
 474 26 541 69 590 153 c 0
 631 226 656 332 656 435 c 0
 656 579 596 652 480 652 c 0
535 730 m 1
 412 812 l 2
 376 836 367 847 367 868 c 0
 367 890 390 911 414 911 c 0
 433 911 452 898 476 867 c 2
 580 730 l 1
 535 730 l 1
EndSplineSet
EndChar

StartChar: Otilde
Encoding: 148 213 191
Width: 833
Flags: W
HStem: -17 43<298.441 478.856> 652 43<381.976 570.69> 747 77<529.94 638.56> 791 75<385.05 493.474>
VStem: 76 138<141.151 411.213> 333 40<747 778.012> 656 138<276.089 535.185>
LayerCount: 2
Fore
SplineSet
493 695 m 0xce
 588 695 667 666 721 612 c 0
 771 563 794 499 794 415 c 0
 794 170 608 -17 365 -17 c 0
 181 -17 76 87 76 268 c 0
 76 518 249 695 493 695 c 0xce
480 652 m 0
 393 652 332 616 285 537 c 0
 242 467 214 347 214 239 c 0
 214 99 274 26 388 26 c 0
 474 26 541 69 590 153 c 0
 631 226 656 332 656 435 c 0
 656 579 596 652 480 652 c 0
373 747 m 1xee
 333 747 l 1xee
 351 826 390 866 450 866 c 0xde
 477 866 494 862 527 847 c 0
 559 832 585 824 602 824 c 0xee
 623 824 636 835 651 866 c 1
 692 866 l 1xde
 670 785 633 747 576 747 c 0xee
 552 747 543 750 494 769 c 0
 453 786 436 791 419 791 c 0xde
 398 791 388 781 373 747 c 1xee
EndSplineSet
EndChar

StartChar: Scaron
Encoding: 287 352 192
Width: 556
Flags: W
HStem: -17 56<151.038 331.355> 639 56<264.547 424.084> 722 21G<307.885 418.621>
VStem: 71 27<133.667 189> 104 92<407 544.215> 389 106<144.063 256.5> 465 30<504 598.904>
LayerCount: 2
Fore
SplineSet
465 504 m 1xfa
 465 589 l 1xfa
 424 624 383 639 331 639 c 0
 252 639 196 592 196 526 c 0
 196 467 227 437 324 401 c 0
 407 370 428 359 457 333 c 0
 480 312 495 274 495 239 c 0
 495 163 453 85 385 35 c 0
 336 -1 281 -17 210 -17 c 0
 140 -17 96 -6 50 23 c 1
 71 189 l 1
 98 189 l 1
 98 113 l 1
 124 64 175 39 250 39 c 0
 340 39 389 83 389 162 c 0xfc
 389 192 380 218 364 232 c 0
 345 250 334 255 266 280 c 0
 141 325 104 364 104 450 c 0
 104 583 225 695 370 695 c 0
 424 695 473 680 517 651 c 1
 503 599 495 552 495 504 c 1
 465 504 l 1xfa
318 722 m 1
 230 896 l 1
 280 896 l 1
 371 799 l 1
 506 896 l 1
 562 896 l 1
 400 722 l 1
 318 722 l 1
EndSplineSet
EndChar

StartChar: Uacute
Encoding: 153 218 193
Width: 778
Flags: W
HStem: -17 80<261.577 367.043> -3 38<632.094 721> 646 35<88 168.13 514 594.13 774 820>
VStem: 94 130<99.4034 306.695>
LayerCount: 2
Fore
SplineSet
497 -3 m 1x70
 492 5 l 1
 501 45 506 68 519 133 c 1
 461 71 438 50 403 26 c 0
 365 -2 318 -17 271 -17 c 0
 209 -17 155 8 123 51 c 0
 104 77 94 112 94 156 c 0
 94 180 97 205 102 234 c 2
 160 541 l 1
 161 548 l 2
 162 550 162 553 162 555 c 0
 168 583 171 606 171 617 c 0
 171 633 159 642 134 643 c 2
 83 646 l 1
 88 681 l 1
 113 680 133 680 142 680 c 0
 181 679 208 678 220 678 c 0
 246 678 268 679 307 681 c 1
 313 674 l 1
 227 214 l 2
 225 203 224 192 224 178 c 0
 224 150 229 125 238 110 c 0
 254 82 290 63 327 63 c 0xb0
 356 63 385 72 421 93 c 0
 469 121 518 164 521 182 c 2
 586 541 l 2
 586 544 587 546 588 550 c 0
 589 561 591 568 591 571 c 0
 595 590 597 607 597 617 c 0
 597 633 585 642 560 643 c 2
 509 646 l 1
 514 681 l 1
 606 679 642 678 666 678 c 0
 689 678 689 678 825 681 c 1
 820 646 l 1
 774 643 l 2
 739 641 732 635 725 599 c 2
 635 100 l 2
 632 84 631 74 631 64 c 0
 631 44 641 36 667 35 c 2
 726 32 l 1
 721 -3 l 1
 647 -1 622 0 603 0 c 0
 583 0 558 -1 497 -3 c 1x70
408 730 m 1
 549 881 l 2
 568 902 583 911 600 911 c 0
 626 911 647 891 647 866 c 0
 647 846 640 836 611 819 c 2
 457 730 l 1
 408 730 l 1
EndSplineSet
EndChar

StartChar: Ucircumflex
Encoding: 154 219 194
Width: 778
Flags: W
HStem: -17 80<261.577 367.043> -3 38<632.094 721> 646 35<88 168.13 514 594.13 774 820> 722 21G<306 390.579 563.474 633>
VStem: 94 130<99.4034 306.695>
LayerCount: 2
Fore
SplineSet
497 -3 m 1x78
 492 5 l 1
 501 45 506 68 519 133 c 1
 461 71 438 50 403 26 c 0
 365 -2 318 -17 271 -17 c 0
 209 -17 155 8 123 51 c 0
 104 77 94 112 94 156 c 0
 94 180 97 205 102 234 c 2
 160 541 l 1
 161 548 l 2
 162 550 162 553 162 555 c 0
 168 583 171 606 171 617 c 0
 171 633 159 642 134 643 c 2
 83 646 l 1
 88 681 l 1
 113 680 133 680 142 680 c 0
 181 679 208 678 220 678 c 0
 246 678 268 679 307 681 c 1
 313 674 l 1
 227 214 l 2
 225 203 224 192 224 178 c 0
 224 150 229 125 238 110 c 0
 254 82 290 63 327 63 c 0xb8
 356 63 385 72 421 93 c 0
 469 121 518 164 521 182 c 2
 586 541 l 2
 586 544 587 546 588 550 c 0
 589 561 591 568 591 571 c 0
 595 590 597 607 597 617 c 0
 597 633 585 642 560 643 c 2
 509 646 l 1
 514 681 l 1
 606 679 642 678 666 678 c 0
 689 678 689 678 825 681 c 1
 820 646 l 1
 774 643 l 2
 739 641 732 635 725 599 c 2
 635 100 l 2
 632 84 631 74 631 64 c 0
 631 44 641 36 667 35 c 2
 726 32 l 1
 721 -3 l 1
 647 -1 622 0 603 0 c 0
 583 0 558 -1 497 -3 c 1x78
547 896 m 1
 633 722 l 1
 582 722 l 1
 494 817 l 1
 363 722 l 1
 306 722 l 1
 466 896 l 1
 547 896 l 1
EndSplineSet
EndChar

StartChar: Udieresis
Encoding: 155 220 195
Width: 778
Flags: W
HStem: -17 80<261.577 367.043> -3 38<632.094 721> 646 35<88 168.13 514 594.13 774 820> 749 131<333.326 417.49 546.326 630.49>
VStem: 94 130<99.4034 306.695> 313 123<767.103 860.429> 526 123<767.103 860.429>
LayerCount: 2
Fore
SplineSet
497 -3 m 1x7e
 492 5 l 1
 501 45 506 68 519 133 c 1
 461 71 438 50 403 26 c 0
 365 -2 318 -17 271 -17 c 0
 209 -17 155 8 123 51 c 0
 104 77 94 112 94 156 c 0
 94 180 97 205 102 234 c 2
 160 541 l 1
 161 548 l 2
 162 550 162 553 162 555 c 0
 168 583 171 606 171 617 c 0
 171 633 159 642 134 643 c 2
 83 646 l 1
 88 681 l 1
 113 680 133 680 142 680 c 0
 181 679 208 678 220 678 c 0
 246 678 268 679 307 681 c 1
 313 674 l 1
 227 214 l 2
 225 203 224 192 224 178 c 0
 224 150 229 125 238 110 c 0
 254 82 290 63 327 63 c 0xbe
 356 63 385 72 421 93 c 0
 469 121 518 164 521 182 c 2
 586 541 l 2
 586 544 587 546 588 550 c 0
 589 561 591 568 591 571 c 0
 595 590 597 607 597 617 c 0
 597 633 585 642 560 643 c 2
 509 646 l 1
 514 681 l 1
 606 679 642 678 666 678 c 0
 689 678 689 678 825 681 c 1
 820 646 l 1
 774 643 l 2
 739 641 732 635 725 599 c 2
 635 100 l 2
 632 84 631 74 631 64 c 0
 631 44 641 36 667 35 c 2
 726 32 l 1
 721 -3 l 1
 647 -1 622 0 603 0 c 0
 583 0 558 -1 497 -3 c 1x7e
593 880 m 0
 626 880 649 856 649 820 c 0
 649 779 620 749 580 749 c 0
 547 749 526 771 526 805 c 0
 526 847 556 880 593 880 c 0
380 880 m 0
 413 880 436 856 436 820 c 0
 436 779 407 749 367 749 c 0
 334 749 313 771 313 805 c 0
 313 847 343 880 380 880 c 0
EndSplineSet
EndChar

StartChar: Ugrave
Encoding: 152 217 196
Width: 778
Flags: W
HStem: -17 80<261.577 367.043> -3 38<632.094 721> 646 35<88 168.13 514 594.13 774 820>
VStem: 94 130<99.4034 306.695>
LayerCount: 2
Fore
SplineSet
497 -3 m 1x70
 492 5 l 1
 501 45 506 68 519 133 c 1
 461 71 438 50 403 26 c 0
 365 -2 318 -17 271 -17 c 0
 209 -17 155 8 123 51 c 0
 104 77 94 112 94 156 c 0
 94 180 97 205 102 234 c 2
 160 541 l 1
 161 548 l 2
 162 550 162 553 162 555 c 0
 168 583 171 606 171 617 c 0
 171 633 159 642 134 643 c 2
 83 646 l 1
 88 681 l 1
 113 680 133 680 142 680 c 0
 181 679 208 678 220 678 c 0
 246 678 268 679 307 681 c 1
 313 674 l 1
 227 214 l 2
 225 203 224 192 224 178 c 0
 224 150 229 125 238 110 c 0
 254 82 290 63 327 63 c 0xb0
 356 63 385 72 421 93 c 0
 469 121 518 164 521 182 c 2
 586 541 l 2
 586 544 587 546 588 550 c 0
 589 561 591 568 591 571 c 0
 595 590 597 607 597 617 c 0
 597 633 585 642 560 643 c 2
 509 646 l 1
 514 681 l 1
 606 679 642 678 666 678 c 0
 689 678 689 678 825 681 c 1
 820 646 l 1
 774 643 l 2
 739 641 732 635 725 599 c 2
 635 100 l 2
 632 84 631 74 631 64 c 0
 631 44 641 36 667 35 c 2
 726 32 l 1
 721 -3 l 1
 647 -1 622 0 603 0 c 0
 583 0 558 -1 497 -3 c 1x70
500 730 m 1
 377 812 l 2
 342 835 333 847 333 868 c 0
 333 890 356 911 380 911 c 0
 399 911 418 898 441 867 c 2
 545 730 l 1
 500 730 l 1
EndSplineSet
EndChar

StartChar: Yacute
Encoding: 156 221 197
Width: 611
Flags: W
HStem: -3 35<143 192 370.26 459> 593 88<615.193 669> 597 98<93 185>
LayerCount: 2
Fore
SplineSet
675 681 m 1xc0
 669 593 l 1xc0
 635 589 588 558 553 517 c 0
 486 443 401 283 392 217 c 2
 391 211 l 1
 390 206 l 1
 370 100 l 2
 368 89 367 78 367 67 c 0
 367 44 376 36 404 35 c 2
 463 32 l 1
 459 -3 l 1
 371 -1 320 0 296 0 c 0
 273 0 234 -1 139 -3 c 1
 143 32 l 1
 192 35 l 2
 226 39 226 39 246 132 c 2
 262 205 l 2
 264 215 266 233 266 244 c 0
 266 264 258 303 243 351 c 2
 211 456 l 2
 185 541 142 597 102 597 c 0
 84 597 67 593 57 587 c 1
 54 620 l 1
 79 637 91 646 144 690 c 1
 160 694 163 695 172 695 c 0xa0
 198 695 225 684 245 666 c 0
 281 634 315 557 334 466 c 2
 370 297 l 1
 460 518 593 686 675 681 c 1xc0
366 730 m 1
 507 881 l 2
 527 902 542 911 558 911 c 0
 584 911 605 891 605 866 c 0
 605 846 597 835 569 819 c 2
 415 730 l 1
 366 730 l 1
EndSplineSet
EndChar

StartChar: Ydieresis
Encoding: 311 376 198
Width: 611
Flags: W
HStem: -3 35<143 192 370.26 459> 593 88<615.193 669> 597 98<93 185> 749 131<277.326 361.49 490.117 574.49>
VStem: 257 123<767.103 860.429> 470 123<767.956 860.429>
LayerCount: 2
Fore
SplineSet
675 681 m 1xdc
 669 593 l 1xdc
 635 589 588 558 553 517 c 0
 486 443 401 283 392 217 c 2
 391 211 l 1
 390 206 l 1
 370 100 l 2
 368 89 367 78 367 67 c 0
 367 44 376 36 404 35 c 2
 463 32 l 1
 459 -3 l 1
 371 -1 320 0 296 0 c 0
 273 0 234 -1 139 -3 c 1
 143 32 l 1
 192 35 l 2
 226 39 226 39 246 132 c 2
 262 205 l 2
 264 215 266 233 266 244 c 0
 266 264 258 303 243 351 c 2
 211 456 l 2
 185 541 142 597 102 597 c 0
 84 597 67 593 57 587 c 1
 54 620 l 1
 79 637 91 646 144 690 c 1
 160 694 163 695 172 695 c 0xbc
 198 695 225 684 245 666 c 0
 281 634 315 557 334 466 c 2
 370 297 l 1
 460 518 593 686 675 681 c 1xdc
537 880 m 0
 570 880 593 856 593 820 c 0
 593 779 564 749 523 749 c 0
 491 749 470 771 470 805 c 0
 470 847 500 880 537 880 c 0
324 880 m 0
 357 880 380 856 380 820 c 0
 380 779 351 749 311 749 c 0
 278 749 257 771 257 805 c 0
 257 847 287 880 324 880 c 0
EndSplineSet
EndChar

StartChar: Zcaron
Encoding: 316 381 199
Width: 667
Flags: W
HStem: -2 51<188 550.829> 629 50<171.391 496> 722 21G<358.885 469.506>
VStem: 94 35<510 532.167> 598 36<147.154 180>
LayerCount: 2
Fore
SplineSet
369 722 m 1
 281 896 l 1
 331 896 l 1
 422 799 l 1
 557 896 l 1
 612 896 l 1
 451 722 l 1
 369 722 l 1
1 -3 m 1
 1 24 l 1
 496 629 l 1
 332 629 l 2
 271 629 178 622 171 615 c 0
 164 613 159 603 153 586 c 2
 129 510 l 1
 94 510 l 1
 106 563 112 602 120 670 c 1
 127 681 l 1
 257 679 l 2
 311 678 359 678 394 678 c 0
 425 678 454 678 485 679 c 2
 676 681 l 1
 671 646 l 1
 188 49 l 1
 368 49 l 2
 441 49 507 54 553 64 c 1
 574 107 585 135 598 180 c 1
 634 180 l 1
 595 -3 l 1
 437 -1 351 0 289 0 c 0
 246 0 171 -1 70 -2 c 2
 1 -3 l 1
EndSplineSet
EndChar

StartChar: aacute
Encoding: 160 225 200
Width: 556
Flags: W
HStem: -17 84<111.614 180.187> 417 52<255.277 375.899>
VStem: 44 112<27.0589 198.305> 313 105<11.8684 142.164>
LayerCount: 2
Fore
SplineSet
444 443 m 1
 489 470 l 1
 505 458 l 1
 487 409 480 385 473 353 c 2
 428 139 l 2
 422 110 418 91 418 90 c 0
 420 72 423 67 432 67 c 0
 443 67 466 79 487 96 c 2
 507 112 l 1
 519 82 l 1
 443 15 387 -17 345 -17 c 0
 325 -17 313 0 313 28 c 0
 313 45 315 64 320 83 c 2
 357 234 l 1
 265 71 174 -17 98 -17 c 0
 66 -17 44 14 44 58 c 0
 44 138 80 274 115 327 c 0
 131 353 200 411 253 446 c 0
 280 463 303 469 342 469 c 0
 375 469 397 463 444 443 c 1
377 395 m 1
 343 411 322 417 296 417 c 0
 253 417 225 388 203 318 c 0
 178 241 156 139 156 102 c 0
 156 82 164 65 173 65 c 0
 195 65 233 99 274 153 c 0
 330 228 363 305 377 395 c 1
279 518 m 1
 420 669 l 2
 440 690 454 699 471 699 c 0
 497 699 518 679 518 655 c 0
 518 634 510 624 482 607 c 2
 328 518 l 1
 279 518 l 1
EndSplineSet
EndChar

StartChar: acircumflex
Encoding: 161 226 201
Width: 556
Flags: W
HStem: -17 84<111.614 180.187> 417 52<255.277 375.899> 664 20G<341.609 450.885>
VStem: 44 112<27.0589 198.305> 313 105<11.8684 142.164>
LayerCount: 2
Fore
SplineSet
444 443 m 1
 489 470 l 1
 505 458 l 1
 487 409 480 385 473 353 c 2
 428 139 l 2
 422 110 418 91 418 90 c 0
 420 72 423 67 432 67 c 0
 443 67 466 79 487 96 c 2
 507 112 l 1
 519 82 l 1
 443 15 387 -17 345 -17 c 0
 325 -17 313 0 313 28 c 0
 313 45 315 64 320 83 c 2
 357 234 l 1
 265 71 174 -17 98 -17 c 0
 66 -17 44 14 44 58 c 0
 44 138 80 274 115 327 c 0
 131 353 200 411 253 446 c 0
 280 463 303 469 342 469 c 0
 375 469 397 463 444 443 c 1
377 395 m 1
 343 411 322 417 296 417 c 0
 253 417 225 388 203 318 c 0
 178 241 156 139 156 102 c 0
 156 82 164 65 173 65 c 0
 195 65 233 99 274 153 c 0
 330 228 363 305 377 395 c 1
441 684 m 1
 527 510 l 1
 476 510 l 1
 388 605 l 1
 257 510 l 1
 200 510 l 1
 360 684 l 1
 441 684 l 1
EndSplineSet
EndChar

StartChar: adieresis
Encoding: 163 228 202
Width: 556
Flags: W
HStem: -17 84<111.614 180.187> 417 52<255.277 375.899> 537 131<222.326 306.49 434.625 519.49>
VStem: 44 112<27.0589 198.305> 202 123<555.103 648.429> 313 105<11.8684 142.164> 415 123<555.267 648.429>
LayerCount: 2
Fore
SplineSet
444 443 m 1xf4
 489 470 l 1
 505 458 l 1
 487 409 480 385 473 353 c 2
 428 139 l 2
 422 110 418 91 418 90 c 0
 420 72 423 67 432 67 c 0
 443 67 466 79 487 96 c 2
 507 112 l 1
 519 82 l 1
 443 15 387 -17 345 -17 c 0
 325 -17 313 0 313 28 c 0
 313 45 315 64 320 83 c 2
 357 234 l 1
 265 71 174 -17 98 -17 c 0
 66 -17 44 14 44 58 c 0
 44 138 80 274 115 327 c 0
 131 353 200 411 253 446 c 0
 280 463 303 469 342 469 c 0
 375 469 397 463 444 443 c 1xf4
377 395 m 1
 343 411 322 417 296 417 c 0
 253 417 225 388 203 318 c 0
 178 241 156 139 156 102 c 0
 156 82 164 65 173 65 c 0
 195 65 233 99 274 153 c 0
 330 228 363 305 377 395 c 1
482 668 m 0
 515 668 538 644 538 608 c 0
 538 567 509 537 469 537 c 0
 436 537 415 559 415 594 c 0xf2
 415 635 445 668 482 668 c 0
269 668 m 0
 302 668 325 644 325 608 c 0
 325 567 296 537 256 537 c 0
 223 537 202 559 202 593 c 0xf8
 202 635 232 668 269 668 c 0
EndSplineSet
EndChar

StartChar: agrave
Encoding: 159 224 203
Width: 556
Flags: W
HStem: -17 84<111.614 180.187> 417 52<255.277 375.899>
VStem: 44 112<27.0589 198.305> 313 105<11.8684 142.164>
LayerCount: 2
Fore
SplineSet
444 443 m 1
 489 470 l 1
 505 458 l 1
 487 409 480 385 473 353 c 2
 428 139 l 2
 422 110 418 91 418 90 c 0
 420 72 423 67 432 67 c 0
 443 67 466 79 487 96 c 2
 507 112 l 1
 519 82 l 1
 443 15 387 -17 345 -17 c 0
 325 -17 313 0 313 28 c 0
 313 45 315 64 320 83 c 2
 357 234 l 1
 265 71 174 -17 98 -17 c 0
 66 -17 44 14 44 58 c 0
 44 138 80 274 115 327 c 0
 131 353 200 411 253 446 c 0
 280 463 303 469 342 469 c 0
 375 469 397 463 444 443 c 1
377 395 m 1
 343 411 322 417 296 417 c 0
 253 417 225 388 203 318 c 0
 178 241 156 139 156 102 c 0
 156 82 164 65 173 65 c 0
 195 65 233 99 274 153 c 0
 330 228 363 305 377 395 c 1
382 518 m 1
 259 600 l 2
 224 623 215 635 215 656 c 0
 215 678 238 699 261 699 c 0
 281 699 299 686 323 655 c 2
 426 518 l 1
 382 518 l 1
EndSplineSet
EndChar

StartChar: aring
Encoding: 164 229 204
Width: 556
Flags: W
HStem: -17 84<111.614 180.187> 417 52<255.277 375.899> 514 50<335.691 418.309> 664 50<336.113 417.307>
VStem: 44 112<27.0589 198.305> 277 50<572.889 654.277> 313 105<11.8684 142.164> 427 50<572.691 654.962>
LayerCount: 2
Fore
SplineSet
444 443 m 1xfb
 489 470 l 1
 505 458 l 1
 487 409 480 385 473 353 c 2
 428 139 l 2
 422 110 418 91 418 90 c 0
 420 72 423 67 432 67 c 0
 443 67 466 79 487 96 c 2
 507 112 l 1
 519 82 l 1
 443 15 387 -17 345 -17 c 0
 325 -17 313 0 313 28 c 0
 313 45 315 64 320 83 c 2
 357 234 l 1
 265 71 174 -17 98 -17 c 0
 66 -17 44 14 44 58 c 0
 44 138 80 274 115 327 c 0
 131 353 200 411 253 446 c 0
 280 463 303 469 342 469 c 0
 375 469 397 463 444 443 c 1xfb
377 395 m 1
 343 411 322 417 296 417 c 0
 253 417 225 388 203 318 c 0
 178 241 156 139 156 102 c 0
 156 82 164 65 173 65 c 0
 195 65 233 99 274 153 c 0
 330 228 363 305 377 395 c 1
379 714 m 0
 432 714 477 668 477 614 c 0
 477 559 432 514 377 514 c 0
 322 514 277 559 277 615 c 0xfd
 277 670 322 714 379 714 c 0
378 664 m 0
 349 664 327 642 327 614 c 0
 327 586 349 564 377 564 c 0
 405 564 427 586 427 614 c 0
 427 641 405 664 378 664 c 0
EndSplineSet
EndChar

StartChar: atilde
Encoding: 162 227 205
Width: 556
Flags: W
HStem: -17 84<111.614 180.187> 417 52<255.277 375.899> 535 77<390.718 500.315> 579 75<246.232 354.201>
VStem: 44 112<27.0589 198.305> 194 40<535 566.012> 313 105<11.8684 142.164>
LayerCount: 2
Fore
SplineSet
444 443 m 1xce
 489 470 l 1
 505 458 l 1
 487 409 480 385 473 353 c 2
 428 139 l 2
 422 110 418 91 418 90 c 0
 420 72 423 67 432 67 c 0
 443 67 466 79 487 96 c 2
 507 112 l 1
 519 82 l 1
 443 15 387 -17 345 -17 c 0
 325 -17 313 0 313 28 c 0
 313 45 315 64 320 83 c 2
 357 234 l 1
 265 71 174 -17 98 -17 c 0
 66 -17 44 14 44 58 c 0
 44 138 80 274 115 327 c 0
 131 353 200 411 253 446 c 0
 280 463 303 469 342 469 c 0
 375 469 397 463 444 443 c 1xce
377 395 m 1
 343 411 322 417 296 417 c 0
 253 417 225 388 203 318 c 0
 178 241 156 139 156 102 c 0
 156 82 164 65 173 65 c 0
 195 65 233 99 274 153 c 0
 330 228 363 305 377 395 c 1
234 535 m 1xee
 194 535 l 1xee
 212 614 251 654 312 654 c 0xde
 338 654 355 650 388 635 c 0
 421 619 446 612 463 612 c 0xee
 485 612 498 623 512 654 c 1
 553 654 l 1xde
 532 573 495 535 438 535 c 0xee
 412 535 408 536 338 564 c 0
 314 574 294 579 280 579 c 0xde
 260 579 249 569 234 535 c 1xee
EndSplineSet
EndChar

StartChar: ccedilla
Encoding: 166 231 206
Width: 444
Flags: W
HStem: -218 41<85.8029 204.962> -17 67<120 241.449> 407 62<238.669 352.229>
VStem: 32 114<75.0016 256.889> 212 92<-170.218 -104.738> 368 33<304 360>
LayerCount: 2
Fore
SplineSet
226 -7 m 1
 188 -62 l 1
 198 -60 205 -59 214 -59 c 0
 268 -59 304 -88 304 -131 c 0
 304 -182 253 -218 181 -218 c 0
 142 -218 113 -212 68 -193 c 1
 90 -160 l 1
 119 -173 135 -177 157 -177 c 0
 191 -177 212 -162 212 -137 c 0
 212 -113 195 -100 164 -100 c 0
 154 -100 147 -101 135 -104 c 1
 122 -92 l 1
 175 -16 l 1
 168 -17 164 -17 159 -17 c 0
 81 -17 32 36 32 119 c 0
 32 191 56 286 85 332 c 0
 103 360 138 389 190 420 c 0
 255 459 282 469 322 469 c 0
 358 469 383 464 436 445 c 1
 421 406 418 391 401 304 c 1
 368 304 l 1
 374 360 l 1
 370 374 l 1
 338 397 309 407 278 407 c 0
 238 407 206 383 186 339 c 0
 165 292 146 198 146 140 c 0
 146 85 177 50 225 50 c 0
 273 50 312 67 391 120 c 1
 401 90 l 1
 319 33 275 8 226 -7 c 1
EndSplineSet
EndChar

StartChar: eacute
Encoding: 168 233 207
Width: 444
Flags: W
HStem: -17 64<111.5 246.01> 421 48<234.6 353.5>
VStem: 28 114<66.6566 213.405> 324 94<310.621 414.046>
LayerCount: 2
Fore
SplineSet
209 518 m 1
 350 669 l 2
 370 691 384 699 401 699 c 0
 427 699 448 679 448 655 c 0
 448 634 440 623 412 607 c 2
 258 518 l 1
 209 518 l 1
387 86 m 1
 358 68 l 2
 258 3 210 -17 149 -17 c 0
 74 -17 28 27 28 99 c 0
 28 169 55 273 88 331 c 0
 127 400 246 469 325 469 c 0
 382 469 418 435 418 382 c 0
 418 323 383 277 311 243 c 0
 269 223 233 212 147 193 c 1
 143 164 142 149 142 129 c 0
 142 77 168 47 215 47 c 0
 256 47 302 66 377 114 c 1
 387 86 l 1
151 219 m 1
 192 231 l 2
 274 255 324 307 324 368 c 0
 324 401 306 421 276 421 c 0
 227 421 187 370 165 277 c 2
 151 219 l 1
EndSplineSet
EndChar

StartChar: ecircumflex
Encoding: 169 234 208
Width: 444
Flags: W
HStem: -17 64<111.5 246.01> 421 48<234.6 353.5> 664 20G<285.609 394.885>
VStem: 28 114<66.6566 213.405> 324 94<310.621 414.046>
LayerCount: 2
Fore
SplineSet
385 684 m 1
 471 510 l 1
 420 510 l 1
 332 605 l 1
 201 510 l 1
 144 510 l 1
 304 684 l 1
 385 684 l 1
387 86 m 1
 358 68 l 2
 258 3 210 -17 149 -17 c 0
 74 -17 28 27 28 99 c 0
 28 169 55 273 88 331 c 0
 127 400 246 469 325 469 c 0
 382 469 418 435 418 382 c 0
 418 323 383 277 311 243 c 0
 269 223 233 212 147 193 c 1
 143 164 142 149 142 129 c 0
 142 77 168 47 215 47 c 0
 256 47 302 66 377 114 c 1
 387 86 l 1
151 219 m 1
 192 231 l 2
 274 255 324 307 324 368 c 0
 324 401 306 421 276 421 c 0
 227 421 187 370 165 277 c 2
 151 219 l 1
EndSplineSet
EndChar

StartChar: edieresis
Encoding: 170 235 209
Width: 444
Flags: W
HStem: -17 64<111.5 246.01> 421 48<234.6 353.5> 537 131<166.326 250.49 379.326 463.49>
VStem: 28 114<66.6566 213.405> 146 123<555.103 648.429> 324 94<310.621 414.046> 359 123<555.103 648.593>
LayerCount: 2
Fore
SplineSet
426 668 m 0xfa
 459 668 482 644 482 609 c 0
 482 567 453 537 413 537 c 0
 380 537 359 559 359 593 c 0
 359 635 389 668 426 668 c 0xfa
213 668 m 0
 246 668 269 644 269 608 c 0
 269 567 240 537 200 537 c 0
 167 537 146 559 146 593 c 0
 146 635 176 668 213 668 c 0
387 86 m 1
 358 68 l 2
 258 3 210 -17 149 -17 c 0
 74 -17 28 27 28 99 c 0
 28 169 55 273 88 331 c 0
 127 400 246 469 325 469 c 0
 382 469 418 435 418 382 c 0xfc
 418 323 383 277 311 243 c 0
 269 223 233 212 147 193 c 1
 143 164 142 149 142 129 c 0
 142 77 168 47 215 47 c 0
 256 47 302 66 377 114 c 1
 387 86 l 1
151 219 m 1
 192 231 l 2
 274 255 324 307 324 368 c 0
 324 401 306 421 276 421 c 0
 227 421 187 370 165 277 c 2
 151 219 l 1
EndSplineSet
EndChar

StartChar: egrave
Encoding: 167 232 210
Width: 444
Flags: W
HStem: -17 64<111.5 246.01> 421 48<234.6 353.5>
VStem: 28 114<66.6566 213.405> 324 94<310.621 414.046>
LayerCount: 2
Fore
SplineSet
332 518 m 1
 210 600 l 2
 175 623 166 635 166 656 c 0
 166 678 189 699 212 699 c 0
 232 699 250 686 274 655 c 2
 378 518 l 1
 332 518 l 1
387 86 m 1
 358 68 l 2
 258 3 210 -17 149 -17 c 0
 74 -17 28 27 28 99 c 0
 28 169 55 273 88 331 c 0
 127 400 246 469 325 469 c 0
 382 469 418 435 418 382 c 0
 418 323 383 277 311 243 c 0
 269 223 233 212 147 193 c 1
 143 164 142 149 142 129 c 0
 142 77 168 47 215 47 c 0
 256 47 302 66 377 114 c 1
 387 86 l 1
151 219 m 1
 192 231 l 2
 274 255 324 307 324 368 c 0
 324 401 306 421 276 421 c 0
 227 421 187 370 165 277 c 2
 151 219 l 1
EndSplineSet
EndChar

StartChar: iacute
Encoding: 172 237 211
Width: 333
Flags: W
HStem: -17 82<89.5 198> 449 20G<224.5 246.5>
VStem: 67 114<12.2499 142.079> 140 124<319.035 436.422>
LayerCount: 2
Fore
SplineSet
26 346 m 1xd0
 89 393 l 2
 150 439 210 469 239 469 c 0
 254 469 264 454 264 432 c 0xd0
 264 412 260 384 255 365 c 2
 201 169 l 2
 188 122 181 89 181 76 c 0
 181 70 186 65 193 65 c 0
 203 65 219 73 254 95 c 2
 281 112 l 1
 293 84 l 1
 282 76 278 74 265 64 c 0
 184 6 137 -17 99 -17 c 0
 80 -17 67 0 67 26 c 0xe0
 67 42 70 64 73 78 c 2
 132 319 l 2
 138 345 140 353 140 359 c 0
 140 366 136 370 130 370 c 0
 121 370 80 350 61 336 c 2
 39 320 l 1
 26 346 l 1xd0
153 518 m 1
 294 669 l 2
 314 691 328 699 345 699 c 0
 371 699 392 679 392 655 c 0
 392 634 384 623 356 607 c 2
 202 518 l 1
 153 518 l 1
EndSplineSet
EndChar

StartChar: icircumflex
Encoding: 173 238 212
Width: 333
Flags: W
HStem: -17 82<89.5 198> 449 20G<224.5 246.5> 664 20G<217.609 326.885>
VStem: 67 114<12.2499 142.079> 140 124<319.035 436.422>
LayerCount: 2
Fore
SplineSet
26 346 m 1xe8
 89 393 l 2
 150 439 210 469 239 469 c 0
 254 469 264 454 264 432 c 0xe8
 264 412 260 384 255 365 c 2
 201 169 l 2
 188 122 181 89 181 76 c 0
 181 70 186 65 193 65 c 0
 203 65 219 73 254 95 c 2
 281 112 l 1
 293 84 l 1
 282 76 278 74 265 64 c 0
 184 6 137 -17 99 -17 c 0
 80 -17 67 0 67 26 c 0xf0
 67 42 70 64 73 78 c 2
 132 319 l 2
 138 345 140 353 140 359 c 0
 140 366 136 370 130 370 c 0
 121 370 80 350 61 336 c 2
 39 320 l 1
 26 346 l 1xe8
317 684 m 1
 403 510 l 1
 352 510 l 1
 264 605 l 1
 133 510 l 1
 76 510 l 1
 236 684 l 1
 317 684 l 1
EndSplineSet
EndChar

StartChar: idieresis
Encoding: 174 239 213
Width: 333
Flags: W
HStem: -17 82<89.5 198> 449 20G<224.5 246.5> 557 131<110.326 194.49 323.326 407.49>
VStem: 67 114<12.2499 142.079> 90 123<575.103 668.429> 140 124<319.035 436.422> 303 123<575.103 668.429>
LayerCount: 2
Fore
SplineSet
26 346 m 1xe6
 89 393 l 2
 150 439 210 469 239 469 c 0
 254 469 264 454 264 432 c 0xe6
 264 412 260 384 255 365 c 2
 201 169 l 2
 188 122 181 89 181 76 c 0
 181 70 186 65 193 65 c 0
 203 65 219 73 254 95 c 2
 281 112 l 1
 293 84 l 1
 282 76 278 74 265 64 c 0
 184 6 137 -17 99 -17 c 0
 80 -17 67 0 67 26 c 0xf2
 67 42 70 64 73 78 c 2
 132 319 l 2
 138 345 140 353 140 359 c 0
 140 366 136 370 130 370 c 0
 121 370 80 350 61 336 c 2
 39 320 l 1
 26 346 l 1xe6
370 688 m 0
 403 688 426 664 426 628 c 0
 426 587 397 557 357 557 c 0
 324 557 303 579 303 613 c 0
 303 655 333 688 370 688 c 0
157 688 m 0
 190 688 213 664 213 628 c 0
 213 587 184 557 144 557 c 0
 111 557 90 579 90 613 c 0xea
 90 655 120 688 157 688 c 0
EndSplineSet
EndChar

StartChar: igrave
Encoding: 171 236 214
Width: 333
Flags: W
HStem: -17 82<89.5 198> 449 20G<224.5 246.5>
VStem: 67 114<12.2499 142.079> 140 124<319.035 436.422>
LayerCount: 2
Fore
SplineSet
26 346 m 1xd0
 89 393 l 2
 150 439 210 469 239 469 c 0
 254 469 264 454 264 432 c 0xd0
 264 412 260 384 255 365 c 2
 201 169 l 2
 188 122 181 89 181 76 c 0
 181 70 186 65 193 65 c 0
 203 65 219 73 254 95 c 2
 281 112 l 1
 293 84 l 1
 282 76 278 74 265 64 c 0
 184 6 137 -17 99 -17 c 0
 80 -17 67 0 67 26 c 0xe0
 67 42 70 64 73 78 c 2
 132 319 l 2
 138 345 140 353 140 359 c 0
 140 366 136 370 130 370 c 0
 121 370 80 350 61 336 c 2
 39 320 l 1
 26 346 l 1xd0
277 518 m 1
 154 600 l 2
 119 623 110 635 110 656 c 0
 110 678 133 699 157 699 c 0
 176 699 194 686 218 655 c 2
 322 518 l 1
 277 518 l 1
EndSplineSet
EndChar

StartChar: ntilde
Encoding: 176 241 215
Width: 556
Flags: W
HStem: -17 82<330.5 438.5> 449 20G<190.5 211.5 437.5 472.5> 535 77<365.762 475.315> 579 75<221.876 329.37>
VStem: 169 40<535 566.012> 305 118<12.4508 137.929> 378 122<322.852 438.086>
LayerCount: 2
Fore
SplineSet
30 331 m 1xca
 17 358 l 1
 101 420 l 2
 146 454 178 469 203 469 c 0
 220 469 230 458 230 439 c 0
 230 410 224 384 196 282 c 2
 179 222 l 1
 214 282 231 307 266 344 c 0
 334 418 414 469 461 469 c 0
 484 469 500 452 500 426 c 0xca
 500 413 494 384 484 344 c 2
 436 160 l 2
 427 127 423 101 423 81 c 0
 423 70 426 65 433 65 c 0
 444 65 454 70 479 87 c 2
 508 107 l 1
 521 80 l 1
 511 73 506 69 492 59 c 0
 417 3 377 -17 341 -17 c 0
 320 -17 305 0 305 25 c 0xcc
 305 54 322 126 353 237 c 0
 369 289 378 333 378 349 c 0
 378 363 371 370 358 370 c 0
 310 370 219 260 181 154 c 0
 168 120 151 50 145 4 c 1
 109 2 61 -6 39 -13 c 1
 29 -2 l 1
 75 137 114 298 114 353 c 0
 114 365 111 370 103 370 c 0
 92 370 78 364 62 353 c 2
 30 331 l 1xca
209 535 m 1xe8
 169 535 l 1xe8
 187 614 227 654 288 654 c 0xd8
 314 654 330 650 363 635 c 0
 397 619 421 612 438 612 c 0xe8
 460 612 473 623 487 654 c 1
 528 654 l 1xd8
 507 573 470 535 413 535 c 0xe8
 387 535 383 536 313 564 c 0
 289 574 270 579 256 579 c 0xd8
 235 579 224 569 209 535 c 1xe8
EndSplineSet
EndChar

StartChar: oacute
Encoding: 178 243 216
Width: 556
Flags: W
HStem: -17 44<190.366 300.628> 425 44<250.14 359.677>
VStem: 48 114<54.9332 263.951> 388 114<185.262 395.725>
LayerCount: 2
Fore
SplineSet
350 469 m 0
 446 469 502 414 502 319 c 0
 502 256 483 174 456 126 c 0
 435 86 377 37 321 10 c 0
 281 -9 242 -17 196 -17 c 0
 98 -17 48 34 48 135 c 0
 48 176 56 222 72 272 c 0
 93 337 127 380 189 419 c 0
 241 452 296 469 350 469 c 0
308 425 m 0
 275 425 247 408 223 374 c 0
 188 324 162 220 162 130 c 0
 162 67 193 27 243 27 c 0
 275 27 303 44 327 78 c 0
 362 128 388 232 388 323 c 0
 388 385 356 425 308 425 c 0
265 518 m 1
 406 669 l 2
 426 690 440 699 457 699 c 0
 483 699 504 679 504 655 c 0
 504 634 496 623 468 607 c 2
 314 518 l 1
 265 518 l 1
EndSplineSet
EndChar

StartChar: ocircumflex
Encoding: 179 244 217
Width: 556
Flags: W
HStem: -17 44<190.366 300.628> 425 44<250.14 359.677> 664 20G<329.609 438.885>
VStem: 48 114<54.9332 263.951> 388 114<185.262 395.725>
LayerCount: 2
Fore
SplineSet
350 469 m 0
 446 469 502 414 502 319 c 0
 502 256 483 174 456 126 c 0
 435 86 377 37 321 10 c 0
 281 -9 242 -17 196 -17 c 0
 98 -17 48 34 48 135 c 0
 48 176 56 222 72 272 c 0
 93 337 127 380 189 419 c 0
 241 452 296 469 350 469 c 0
308 425 m 0
 275 425 247 408 223 374 c 0
 188 324 162 220 162 130 c 0
 162 67 193 27 243 27 c 0
 275 27 303 44 327 78 c 0
 362 128 388 232 388 323 c 0
 388 385 356 425 308 425 c 0
429 684 m 1
 515 510 l 1
 464 510 l 1
 376 605 l 1
 245 510 l 1
 188 510 l 1
 348 684 l 1
 429 684 l 1
EndSplineSet
EndChar

StartChar: odieresis
Encoding: 181 246 218
Width: 556
Flags: W
HStem: -17 44<190.366 300.628> 425 44<250.14 359.677> 537 131<222.326 306.49 435.326 519.49>
VStem: 48 114<54.9332 263.951> 202 123<555.103 648.429> 388 114<185.262 395.725> 415 123<555.103 648.429>
LayerCount: 2
Fore
SplineSet
350 469 m 0xfc
 446 469 502 414 502 319 c 0
 502 256 483 174 456 126 c 0
 435 86 377 37 321 10 c 0
 281 -9 242 -17 196 -17 c 0
 98 -17 48 34 48 135 c 0
 48 176 56 222 72 272 c 0
 93 337 127 380 189 419 c 0
 241 452 296 469 350 469 c 0xfc
308 425 m 0
 275 425 247 408 223 374 c 0
 188 324 162 220 162 130 c 0
 162 67 193 27 243 27 c 0
 275 27 303 44 327 78 c 0
 362 128 388 232 388 323 c 0
 388 385 356 425 308 425 c 0
482 668 m 0
 515 668 538 644 538 608 c 0
 538 567 509 537 469 537 c 0
 436 537 415 559 415 593 c 0xfa
 415 635 445 668 482 668 c 0
269 668 m 0
 302 668 325 644 325 608 c 0
 325 567 296 537 256 537 c 0
 223 537 202 559 202 593 c 0
 202 635 232 668 269 668 c 0
EndSplineSet
EndChar

StartChar: ograve
Encoding: 177 242 219
Width: 556
Flags: W
HStem: -17 44<190.366 300.628> 425 44<250.14 359.677>
VStem: 48 114<54.9332 263.951> 388 114<185.262 395.725>
LayerCount: 2
Fore
SplineSet
350 469 m 0
 446 469 502 414 502 319 c 0
 502 256 483 174 456 126 c 0
 435 86 377 37 321 10 c 0
 281 -9 242 -17 196 -17 c 0
 98 -17 48 34 48 135 c 0
 48 176 56 222 72 272 c 0
 93 337 127 380 189 419 c 0
 241 452 296 469 350 469 c 0
308 425 m 0
 275 425 247 408 223 374 c 0
 188 324 162 220 162 130 c 0
 162 67 193 27 243 27 c 0
 275 27 303 44 327 78 c 0
 362 128 388 232 388 323 c 0
 388 385 356 425 308 425 c 0
375 518 m 1
 252 600 l 2
 217 623 208 635 208 656 c 0
 208 678 231 699 254 699 c 0
 274 699 292 686 316 655 c 2
 420 518 l 1
 375 518 l 1
EndSplineSet
EndChar

StartChar: otilde
Encoding: 180 245 220
Width: 556
Flags: W
HStem: -17 44<190.366 300.628> 425 44<250.14 359.677> 535 77<390.718 500.315> 579 75<246.232 354.201>
VStem: 48 114<54.9332 263.951> 194 40<535 566.012> 388 114<185.262 395.725>
LayerCount: 2
Fore
SplineSet
350 469 m 0xce
 446 469 502 414 502 319 c 0
 502 256 483 174 456 126 c 0
 435 86 377 37 321 10 c 0
 281 -9 242 -17 196 -17 c 0
 98 -17 48 34 48 135 c 0
 48 176 56 222 72 272 c 0
 93 337 127 380 189 419 c 0
 241 452 296 469 350 469 c 0xce
308 425 m 0
 275 425 247 408 223 374 c 0
 188 324 162 220 162 130 c 0
 162 67 193 27 243 27 c 0
 275 27 303 44 327 78 c 0
 362 128 388 232 388 323 c 0
 388 385 356 425 308 425 c 0
234 535 m 1xee
 194 535 l 1xee
 212 614 251 654 312 654 c 0xde
 338 654 355 650 388 635 c 0
 421 620 446 612 463 612 c 0xee
 485 612 498 623 512 654 c 1
 553 654 l 1xde
 532 573 495 535 438 535 c 0xee
 412 535 408 536 338 564 c 0
 314 574 294 579 280 579 c 0xde
 260 579 249 569 234 535 c 1xee
EndSplineSet
EndChar

StartChar: scaron
Encoding: 288 353 221
Width: 444
Flags: W
HStem: -17 55<121.157 259.723> 414 55<198.698 320.165> 664 20G<157 225.763 405.165 489>
VStem: 46 30<81.5038 141> 68 93<268.359 366.403> 294 100<92.563 186> 359 30<322 370>
LayerCount: 2
Fore
SplineSet
76 141 m 1xf4
 76 94 l 1
 110 58 156 38 206 38 c 0
 260 38 294 66 294 110 c 0xf4
 294 146 272 168 226 177 c 2
 182 186 l 2
 106 201 68 239 68 298 c 0
 68 343 85 372 131 405 c 0
 198 453 236 469 284 469 c 0
 330 469 365 460 406 438 c 1
 404 427 403 422 400 405 c 0
 391 357 389 346 389 322 c 1
 359 322 l 1
 353 370 l 1
 314 401 282 414 243 414 c 0
 194 414 161 385 161 341 c 0xea
 161 306 180 291 237 278 c 2
 296 265 l 2
 357 252 394 212 394 160 c 0
 394 123 381 97 348 66 c 0
 289 10 227 -17 162 -17 c 0
 124 -17 92 -11 25 10 c 1
 38 72 42 100 46 141 c 1
 76 141 l 1xf4
245 510 m 1
 157 684 l 1
 207 684 l 1
 298 587 l 1
 433 684 l 1
 489 684 l 1
 327 510 l 1
 245 510 l 1
EndSplineSet
EndChar

StartChar: uacute
Encoding: 185 250 222
Width: 556
Flags: W
HStem: -17 21G<84 132.5 336 356.5> 449 20G<204 225.5 485.5 516>
VStem: 53 117<18.0254 130.013> 312 108<14.7979 127.44> 397 119<383.371 447>
LayerCount: 2
Fore
SplineSet
22 365 m 1xf0
 101 419 l 2
 146 450 191 469 217 469 c 0
 234 469 244 456 244 434 c 0
 244 405 241 387 215 287 c 2
 180 150 l 2
 174 125 170 101 170 84 c 0
 170 76 176 71 186 71 c 0
 215 71 268 124 317 202 c 0
 365 280 395 370 397 447 c 1
 430 446 464 452 507 465 c 1
 516 454 l 1xe8
 492 375 483 346 474 313 c 0
 465 275 439 174 438 171 c 0
 436 164 435 160 434 158 c 0
 425 125 420 98 420 86 c 0
 420 79 426 74 434 74 c 0
 448 74 469 83 489 99 c 2
 511 116 l 1
 521 88 l 1
 507 78 492 67 486 62 c 0
 427 17 367 -17 346 -17 c 0
 326 -17 312 0 312 26 c 0
 312 42 317 67 328 107 c 2
 360 224 l 1
 261 68 168 -17 97 -17 c 0
 71 -17 53 6 53 40 c 0
 53 57 57 80 66 114 c 0
 69 122 70 128 71 130 c 2
 72 136 l 2
 78 158 82 177 87 193 c 0
 110 283 121 333 121 354 c 0
 121 364 115 370 104 370 c 0
 94 370 82 366 71 360 c 2
 35 339 l 1
 22 365 l 1xf0
280 518 m 1
 421 669 l 2
 441 691 456 699 472 699 c 0
 498 699 519 679 519 655 c 0
 519 634 511 623 483 607 c 2
 329 518 l 1
 280 518 l 1
EndSplineSet
EndChar

StartChar: ucircumflex
Encoding: 186 251 223
Width: 556
Flags: W
HStem: -17 21G<84 132.5 336 356.5> 449 20G<204 225.5 485.5 516> 664 20G<309.609 418.885>
VStem: 53 117<18.0254 130.013> 312 108<14.7979 127.44> 397 119<383.371 447>
LayerCount: 2
Fore
SplineSet
22 365 m 1xf8
 101 419 l 2
 146 450 191 469 217 469 c 0
 234 469 244 456 244 434 c 0
 244 405 241 387 215 287 c 2
 180 150 l 2
 174 125 170 101 170 84 c 0
 170 76 176 71 186 71 c 0
 215 71 268 124 317 202 c 0
 365 280 395 370 397 447 c 1
 430 446 464 452 507 465 c 1
 516 454 l 1xf4
 492 375 483 346 474 313 c 0
 465 275 439 174 438 171 c 0
 436 164 435 160 434 158 c 0
 425 125 420 98 420 86 c 0
 420 79 426 74 434 74 c 0
 448 74 469 83 489 99 c 2
 511 116 l 1
 521 88 l 1
 507 78 492 67 486 62 c 0
 427 17 367 -17 346 -17 c 0
 326 -17 312 0 312 26 c 0
 312 42 317 67 328 107 c 2
 360 224 l 1
 261 68 168 -17 97 -17 c 0
 71 -17 53 6 53 40 c 0
 53 57 57 80 66 114 c 0
 69 122 70 128 71 130 c 2
 72 136 l 2
 78 158 82 177 87 193 c 0
 110 283 121 333 121 354 c 0
 121 364 115 370 104 370 c 0
 94 370 82 366 71 360 c 2
 35 339 l 1
 22 365 l 1xf8
409 684 m 1
 495 510 l 1
 443 510 l 1
 356 605 l 1
 225 510 l 1
 168 510 l 1
 328 684 l 1
 409 684 l 1
EndSplineSet
EndChar

StartChar: udieresis
Encoding: 187 252 224
Width: 556
Flags: W
HStem: -17 21G<84 132.5 336 356.5> 449 20G<204 225.5 485.5 516> 537 131<222.326 306.49 435.326 519.49>
VStem: 53 117<18.0254 130.013> 202 123<555.103 648.429> 312 108<14.7979 127.44> 397 119<383.371 447> 415 123<555.103 648.429>
LayerCount: 2
Fore
SplineSet
22 365 m 1xf4
 101 419 l 2
 146 450 191 469 217 469 c 0
 234 469 244 456 244 434 c 0
 244 405 241 387 215 287 c 2
 180 150 l 2
 174 125 170 101 170 84 c 0
 170 76 176 71 186 71 c 0
 215 71 268 124 317 202 c 0
 365 280 395 370 397 447 c 1
 430 446 464 452 507 465 c 1
 516 454 l 1xf2
 492 375 483 346 474 313 c 0
 465 275 439 174 438 171 c 0
 436 164 435 160 434 158 c 0
 425 125 420 98 420 86 c 0
 420 79 426 74 434 74 c 0
 448 74 469 83 489 99 c 2
 511 116 l 1
 521 88 l 1
 507 78 492 67 486 62 c 0
 427 17 367 -17 346 -17 c 0
 326 -17 312 0 312 26 c 0
 312 42 317 67 328 107 c 2
 360 224 l 1
 261 68 168 -17 97 -17 c 0
 71 -17 53 6 53 40 c 0
 53 57 57 80 66 114 c 0
 69 122 70 128 71 130 c 2
 72 136 l 2
 78 158 82 177 87 193 c 0
 110 283 121 333 121 354 c 0
 121 364 115 370 104 370 c 0
 94 370 82 366 71 360 c 2
 35 339 l 1
 22 365 l 1xf4
482 668 m 0
 515 668 538 644 538 608 c 0
 538 567 509 537 469 537 c 0
 436 537 415 559 415 593 c 0xf1
 415 635 445 668 482 668 c 0
269 668 m 0
 302 668 325 644 325 608 c 0
 325 567 296 537 256 537 c 0
 223 537 202 559 202 593 c 0xf8
 202 635 232 668 269 668 c 0
EndSplineSet
EndChar

StartChar: ugrave
Encoding: 184 249 225
Width: 556
Flags: W
HStem: -17 21G<84 132.5 336 356.5> 449 20G<204 225.5 485.5 516>
VStem: 53 117<18.0254 130.013> 312 108<14.7979 127.44> 397 119<383.371 447>
LayerCount: 2
Fore
SplineSet
22 365 m 1xf0
 101 419 l 2
 146 450 191 469 217 469 c 0
 234 469 244 456 244 434 c 0
 244 405 241 387 215 287 c 2
 180 150 l 2
 174 125 170 101 170 84 c 0
 170 76 176 71 186 71 c 0
 215 71 268 124 317 202 c 0
 365 280 395 370 397 447 c 1
 430 446 464 452 507 465 c 1
 516 454 l 1xe8
 492 375 483 346 474 313 c 0
 465 275 439 174 438 171 c 0
 436 164 435 160 434 158 c 0
 425 125 420 98 420 86 c 0
 420 79 426 74 434 74 c 0
 448 74 469 83 489 99 c 2
 511 116 l 1
 521 88 l 1
 507 78 492 67 486 62 c 0
 427 17 367 -17 346 -17 c 0
 326 -17 312 0 312 26 c 0
 312 42 317 67 328 107 c 2
 360 224 l 1
 261 68 168 -17 97 -17 c 0
 71 -17 53 6 53 40 c 0
 53 57 57 80 66 114 c 0
 69 122 70 128 71 130 c 2
 72 136 l 2
 78 158 82 177 87 193 c 0
 110 283 121 333 121 354 c 0
 121 364 115 370 104 370 c 0
 94 370 82 366 71 360 c 2
 35 339 l 1
 22 365 l 1xf0
378 518 m 1
 255 600 l 2
 220 623 211 635 211 656 c 0
 211 678 234 699 258 699 c 0
 277 699 295 686 319 655 c 2
 423 518 l 1
 378 518 l 1
EndSplineSet
EndChar

StartChar: yacute
Encoding: 188 253 226
Width: 556
Flags: W
HStem: -271 46<112.955 205.322> -17 84<133.5 239> 449 20G<184.5 208 507.5 541>
VStem: 100 107<31.6164 306.945> 126 109<180.711 430.053>
LayerCount: 2
Fore
SplineSet
27 329 m 1xe8
 13 357 l 1
 93 419 l 2
 131 449 173 469 196 469 c 0
 220 469 235 445 235 406 c 0xe8
 235 382 233 354 230 326 c 2
 211 163 l 2
 208 136 207 124 207 108 c 0
 207 82 213 67 224 67 c 0
 254 67 305 123 347 202 c 0
 388 279 417 378 419 447 c 1
 452 446 486 452 529 465 c 1
 541 453 l 1
 522 413 499 338 457 185 c 0
 407 -3 391 -43 341 -122 c 0
 283 -214 198 -271 120 -271 c 0
 84 -271 51 -254 36 -227 c 0
 27 -212 24 -200 21 -174 c 1
 83 -134 l 1
 101 -140 l 1
 100 -147 100 -156 100 -159 c 0
 100 -201 123 -225 162 -225 c 0
 228 -225 275 -154 314 4 c 2
 355 170 l 1
 316 102 294 73 255 39 c 0
 215 3 175 -17 147 -17 c 0
 120 -17 100 20 100 70 c 0xf0
 100 90 102 114 106 155 c 2
 125 337 l 2
 126 343 126 348 126 351 c 0
 126 363 119 370 108 370 c 0
 88 370 61 356 27 329 c 1xe8
265 518 m 1
 406 669 l 2
 425 690 440 699 457 699 c 0
 483 699 504 679 504 655 c 0
 504 634 496 624 468 607 c 2
 314 518 l 1
 265 518 l 1
EndSplineSet
EndChar

StartChar: ydieresis
Encoding: 190 255 227
Width: 556
Flags: W
HStem: -271 46<112.955 205.322> -17 84<133.5 239> 449 20G<184.5 208 507.5 541> 537 131<211.326 295.49 424.326 508.49>
VStem: 100 107<31.6164 306.945> 126 109<180.711 430.053> 191 123<555.103 648.429> 404 123<555.103 648.593>
LayerCount: 2
Fore
SplineSet
27 329 m 1xf5
 13 357 l 1
 93 419 l 2
 131 449 173 469 196 469 c 0
 220 469 235 445 235 406 c 0xf5
 235 382 233 354 230 326 c 2
 211 163 l 2
 208 136 207 124 207 108 c 0
 207 82 213 67 224 67 c 0
 254 67 305 123 347 202 c 0
 388 279 417 378 419 447 c 1
 452 446 486 452 529 465 c 1
 541 453 l 1
 522 413 499 338 457 185 c 0
 407 -3 391 -43 341 -122 c 0
 283 -214 198 -271 120 -271 c 0
 84 -271 51 -254 36 -227 c 0
 27 -212 24 -200 21 -174 c 1
 83 -134 l 1
 101 -140 l 1
 100 -147 100 -156 100 -159 c 0xf9
 100 -201 123 -225 162 -225 c 0
 228 -225 275 -154 314 4 c 2xf3
 355 170 l 1
 316 102 294 73 255 39 c 0
 215 3 175 -17 147 -17 c 0
 120 -17 100 20 100 70 c 0xf9
 100 90 102 114 106 155 c 2
 125 337 l 2
 126 343 126 348 126 351 c 0
 126 363 119 370 108 370 c 0
 88 370 61 356 27 329 c 1xf5
471 668 m 0
 504 668 527 644 527 609 c 0
 527 567 498 537 458 537 c 0
 425 537 404 559 404 593 c 0
 404 635 434 668 471 668 c 0
258 668 m 0
 291 668 314 644 314 608 c 0
 314 567 285 537 245 537 c 0
 212 537 191 559 191 593 c 0xf3
 191 635 221 668 258 668 c 0
EndSplineSet
EndChar

StartChar: zcaron
Encoding: 317 382 228
Width: 500
Flags: W
HStem: -17 98<226.884 399.616> -5 21G<36.3333 59.5> 22 75<102.481 243.741> 356 76<257.052 403.204> 367 102<126.557 281.978> 664 20G<185 253.763 433.165 517>
LayerCount: 2
Fore
SplineSet
31 25 m 1x64
 377 379 l 1
 341 362 318 356 288 356 c 0x74
 257 356 208 360 148 367 c 0
 142 367 138 368 126 369 c 1
 103 317 l 1
 74 320 l 1
 119 459 l 1
 140 466 159 469 175 469 c 0x0c
 194 469 216 465 271 450 c 0
 320 437 353 432 383 432 c 0x14
 409 432 431 441 441 456 c 2
 450 469 l 1
 470 461 l 1
 456 411 l 1
 128 74 l 1
 177 92 199 97 226 97 c 0x2c
 255 97 289 94 328 87 c 0
 351 83 367 81 382 81 c 0
 384 81 388 81 395 82 c 1
 423 140 l 1
 451 138 l 1
 440 108 424 51 422 33 c 0
 416 -9 407 -17 365 -17 c 0x84
 323 -17 272 -8 209 9 c 0
 174 19 152 22 124 22 c 0
 93 22 72 15 47 -5 c 1
 31 25 l 1x64
273 510 m 1
 185 684 l 1
 235 684 l 1
 326 587 l 1
 461 684 l 1
 517 684 l 1
 355 510 l 1
 273 510 l 1
EndSplineSet
EndChar

StartChar: nsuperior
Encoding: 597 8319 229
Width: 507
Flags: W
HStem: 248 55<328.79 398.018>
VStem: 201 76<395.762 524.858> 316 77<265.543 376.856> 359 80<415.197 523>
LayerCount: 2
Fore
SplineSet
153 452 m 1xd0
 142 473 l 1
 195 512 l 2
 223 532 242 541 258 541 c 0
 270 541 277 533 277 520 c 0
 277 502 272 480 257 427 c 2
 254 416 l 1
 296 482 370 541 412 541 c 0
 428 541 439 529 439 513 c 0xd0
 439 504 435 485 430 463 c 2
 401 355 l 2
 395 334 393 320 393 309 c 0
 393 304 394 303 396 303 c 0
 401 303 409 307 422 315 c 2
 442 329 l 1
 453 307 l 2
 451 306 448 304 448 304 c 1
 446 303 l 2
 445 302 439 298 433 293 c 0
 391 261 363 248 341 248 c 0
 326 248 316 260 316 276 c 0xe0
 316 293 327 340 345 402 c 0
 354 433 359 457 359 467 c 0
 359 473 356 476 351 476 c 0
 320 476 263 403 243 338 c 0
 237 318 230 285 226 260 c 1
 199 259 173 254 158 250 c 1
 150 259 l 1
 177 341 201 437 201 468 c 0
 201 474 200 476 198 476 c 0
 191 476 184 473 175 467 c 2
 153 452 l 1xd0
EndSplineSet
EndChar

StartChar: ff
Encoding: 849 64256 230
Width: 634
Flags: W
HStem: -271 75<-103.88 -19 194.808 276> 403 59<549.959 666.085> 403 51<249 369.579 548 666.085> 403 25<38 59.875> 646 80<322.5 408 621.5 707>
LayerCount: 2
Fore
SplineSet
371 439 m 1xa8
 387 444 l 2
 412 452 427 458 437 463 c 1
 439 469 439 472 441 483 c 0
 453 542 464 562 508 602 c 2
 564 651 l 2
 579 664 614 689 643 707 c 0
 668 722 679 726 700 726 c 0
 714 726 726 724 747 718 c 1
 733 667 727 637 719 593 c 1
 704 590 l 1
 672 634 657 646 631 646 c 0
 612 646 598 637 587 615 c 0
 580 602 569 562 558 508 c 2
 551 471 l 2
 550 466 549 460 548 454 c 1xa8
 590 455 619 457 671 462 c 1xc8
 676 454 l 1xa8
 670 439 667 428 660 403 c 1xc8
 537 403 l 1
 482 168 l 2
 434 -36 404 -112 342 -184 c 0
 302 -232 240 -271 206 -271 c 0
 193 -271 177 -267 168 -262 c 1
 179 -236 195 -183 200 -155 c 1
 217 -152 l 1
 230 -183 246 -196 268 -196 c 0
 284 -196 298 -186 306 -168 c 0
 319 -139 324 -121 344 -14 c 2
 352 29 l 1
 423 403 l 1
 238 403 l 1
 183 168 l 2
 135 -36 105 -112 43 -184 c 0
 3 -232 -59 -271 -93 -271 c 0
 -106 -271 -122 -267 -131 -262 c 1
 -120 -238 -104 -183 -99 -155 c 1
 -82 -152 l 1
 -68 -183 -53 -196 -31 -196 c 0
 -7 -196 6 -180 19 -135 c 0
 27 -106 29 -97 53 29 c 2
 124 403 l 1
 33 403 l 1
 38 428 l 1x98
 88 444 l 2
 113 452 128 458 138 463 c 1
 139 469 140 472 142 483 c 0
 154 542 165 561 209 602 c 2
 265 651 l 2
 280 664 315 689 344 707 c 0
 369 722 380 726 401 726 c 0
 415 726 426 724 448 718 c 1
 435 670 428 640 420 593 c 1
 405 590 l 1
 373 635 358 646 332 646 c 0
 313 646 299 637 288 615 c 0
 277 595 277 595 249 454 c 1xa8
 291 455 320 457 372 462 c 1xc8
 377 454 l 1
 375 448 373 445 373 444 c 2
 371 439 l 1xa8
EndSplineSet
Ligature2: "'liga' Standard Ligatures in Latin lookup 16 subtable" f f
EndChar

StartChar: ffi
Encoding: 852 64259 231
Width: 903
Flags: W
HStem: -271 75<-101.88 -17 189.18 280> -17 82<650.5 759> 403 25<40 61.875> 413 41<541.991 708.997> 449 20G<786.5 802.5> 572 132<777.696 862.814> 646 80<324.5 410 608 702.5>
VStem: 628 114<12.0478 140.756> 709 118<326.727 444.062> 758 122<588.5 684.385>
LayerCount: 2
Fore
SplineSet
374 442 m 1xd280
 381 444 l 2
 407 452 422 458 431 463 c 1
 433 469 433 472 436 483 c 0
 449 553 465 574 554 647 c 0
 632 710 660 726 696 726 c 0
 709 726 720 724 740 718 c 1
 728 672 722 641 713 593 c 1
 698 590 l 1
 674 625 645 646 621 646 c 0
 595 646 577 621 565 569 c 2
 540 454 l 1
 700 454 l 1xd280
 760 465 l 2
 779 468 783 469 790 469 c 0
 815 469 827 456 827 429 c 0xc880
 827 411 824 393 816 365 c 2
 762 169 l 2
 749 122 742 88 742 76 c 0
 742 70 747 65 754 65 c 0
 764 65 781 73 815 95 c 2
 842 112 l 1
 854 84 l 1
 843 76 839 74 826 64 c 0
 745 6 698 -17 660 -17 c 0
 641 -17 628 0 628 25 c 0xc9
 628 41 631 63 634 78 c 2
 703 359 l 2
 708 377 709 385 709 396 c 0
 709 407 705 413 698 413 c 2
 634 413 l 2xd080
 601 413 580 411 531 403 c 1
 476 168 l 2
 429 -36 398 -113 337 -184 c 0
 295 -232 234 -271 200 -271 c 0
 188 -271 172 -267 162 -262 c 1
 173 -238 189 -184 194 -155 c 1
 211 -152 l 1
 225 -183 240 -196 262 -196 c 0
 298 -196 308 -171 337 -22 c 2
 346 29 l 1
 417 403 l 1
 240 403 l 1
 185 168 l 2
 137 -36 107 -112 45 -184 c 0
 5 -232 -57 -271 -91 -271 c 0
 -104 -271 -120 -267 -129 -262 c 1
 -118 -238 -102 -183 -97 -155 c 1
 -80 -152 l 1
 -66 -183 -51 -196 -29 -196 c 0
 -5 -196 8 -180 21 -135 c 0
 27 -116 38 -61 55 29 c 2
 126 403 l 1
 35 403 l 1
 40 428 l 1xe080
 90 444 l 2
 116 452 130 458 140 463 c 1
 141 469 142 472 144 483 c 0
 156 542 167 561 211 602 c 2
 267 651 l 2
 282 664 317 689 346 707 c 0
 371 722 382 726 403 726 c 0
 417 726 428 724 450 718 c 1
 437 670 430 640 422 593 c 1
 407 590 l 1
 375 635 360 646 334 646 c 0
 315 646 301 637 290 615 c 0
 279 595 279 595 251 454 c 1
 293 455 322 457 374 462 c 1
 379 454 l 1
 376 448 376 447 374 442 c 1xd280
825 704 m 0xc440
 857 704 880 678 880 642 c 0
 880 601 853 572 815 572 c 0
 781 572 758 596 758 632 c 0
 758 672 788 704 825 704 c 0xc440
EndSplineSet
Ligature2: "'liga' Standard Ligatures in Latin lookup 15 subtable" f f i
EndChar

StartChar: ffl
Encoding: 853 64260 232
Width: 920
Flags: W
HStem: -271 75<-102.88 -18 206.12 296> -26 82<707 821> 403 59<560.914 676.88> 403 51<250 370.579 559 674.829> 403 25<39 60.875> 646 80<327.443 397.501 629.388 705.204> 652 33<749 805.268>
VStem: 686 118<9.21605 159.753>
LayerCount: 2
Fore
SplineSet
371 435 m 1xd1
 398 444 l 2
 423 452 438 458 448 463 c 1
 460 535 469 553 514 599 c 0
 538 623 591 666 634 695 c 0
 669 719 686 726 713 726 c 0xd5
 726 726 736 724 757 718 c 1
 753 708 751 701 749 685 c 1
 794 686 887 704 928 720 c 1
 940 708 l 1
 932 680 l 2
 927 662 924 649 923 643 c 2
 816 161 l 2
 808 127 804 94 804 70 c 0
 804 61 808 56 816 56 c 0
 826 56 849 67 869 82 c 2
 899 105 l 1
 913 78 l 1
 796 -7 761 -26 718 -26 c 0
 696 -26 686 -9 686 27 c 0
 686 61 688 73 702 137 c 2
 803 596 l 2
 805 608 807 620 807 627 c 0
 807 644 795 652 772 652 c 2
 742 652 l 1xc3
 730 593 l 1
 715 590 l 1
 690 625 661 646 637 646 c 0
 611 646 594 621 583 569 c 2
 559 454 l 1xd5
 600 455 630 457 682 462 c 1xe1
 687 454 l 1xd1
 681 439 677 427 671 403 c 1xe1
 548 403 l 1
 493 168 l 2
 445 -36 415 -113 353 -184 c 0
 312 -232 250 -271 217 -271 c 0
 204 -271 188 -267 179 -262 c 1
 190 -238 206 -184 211 -155 c 1
 228 -152 l 1
 241 -183 256 -196 278 -196 c 0
 314 -196 325 -171 353 -22 c 2
 363 29 l 1
 434 403 l 1
 239 403 l 1
 184 168 l 2
 136 -36 106 -112 44 -184 c 0
 4 -232 -58 -271 -92 -271 c 0
 -105 -271 -121 -267 -130 -262 c 1
 -119 -238 -103 -183 -98 -155 c 1
 -81 -152 l 1
 -67 -183 -52 -196 -30 -196 c 0
 -6 -196 7 -180 20 -135 c 0
 28 -106 30 -97 54 29 c 2
 125 403 l 1
 34 403 l 1
 39 428 l 1xc9
 89 444 l 2
 114 452 129 458 139 463 c 1
 140 469 141 472 143 483 c 0
 155 542 166 561 210 602 c 2
 266 651 l 2
 281 664 316 689 345 707 c 0
 370 722 381 726 402 726 c 0
 416 726 427 724 449 718 c 1
 436 670 429 640 421 593 c 1
 406 590 l 1
 374 635 359 646 333 646 c 0
 314 646 300 637 289 615 c 0
 278 595 278 595 250 454 c 1xd5
 292 455 321 457 373 462 c 1xe1
 378 454 l 1
 375 446 374 444 371 435 c 1xd1
EndSplineSet
Ligature2: "'liga' Standard Ligatures in Latin lookup 16 subtable" f f l
EndChar

StartChar: oneeighth
Encoding: 623 8539 233
Width: 760
Flags: W
HStem: -10 34<533.651 625.885> 0 21G<176 257.855> 271 28<47 74 217.184 292> 376 34<585.049 670.801> 565 51<70 84.8298> 663 20G<253.5 282 602.145 684>
VStem: 459 56<38.7426 142.451> 501 65<265.996 342.745> 652 70<62.5527 145.687> 685 55<272.359 365.898>
LayerCount: 2
Fore
SplineSet
245 0 m 1x7c
 176 0 l 1
 615 683 l 1
 684 683 l 1
 245 0 l 1x7c
41 271 m 1
 47 299 l 1
 74 301 l 2
 115 305 119 307 129 336 c 1
 181 612 l 1
 68 565 l 1
 59 578 l 1
 70 616 l 1
 200 654 l 2
 219 660 240 668 267 680 c 1
 282 675 l 1
 277 653 275 645 274 637 c 2
 218 341 l 2
 216 331 215 324 215 323 c 0
 217 305 222 302 252 301 c 2
 298 299 l 1
 292 271 l 1
 245 272 193 273 167 273 c 0
 141 273 89 272 41 271 c 1
554 197 m 1
 551 199 l 2
 517 220 501 246 501 280 c 0
 501 346 572 410 645 410 c 0
 703 410 740 379 740 331 c 0xbd40
 740 296 722 268 683 242 c 2
 655 224 l 1
 659 222 l 2
 703 197 722 169 722 132 c 0
 722 92 705 58 670 31 c 0
 636 4 600 -10 564 -10 c 0
 501 -10 459 26 459 80 c 0xbe80
 459 124 484 158 539 189 c 2
 554 197 l 1
586 177 m 2
 577 182 l 1
 532 152 515 126 515 88 c 0
 515 49 541 24 579 24 c 0
 620 24 652 55 652 95 c 0xbe80
 652 129 630 156 586 177 c 2
631 237 m 1
 673 269 685 288 685 318 c 0
 685 354 664 376 629 376 c 0
 592 376 566 350 566 311 c 0x3d40
 566 281 581 265 631 237 c 1
EndSplineSet
Ligature2: "'frac' Diagonal Fractions lookup 10 subtable" onesuperior fraction eightsuperior
Ligature2: "'frac' Diagonal Fractions lookup 10 subtable" onesuperior slash eightsuperior
Ligature2: "'frac' Diagonal Fractions lookup 10 subtable" one fraction eight
Ligature2: "'frac' Diagonal Fractions lookup 10 subtable" one slash eight
EndChar

StartChar: threeeighths
Encoding: 624 8540 234
Width: 760
Flags: W
HStem: -10 34<533.651 625.885> 0 21G<146 227.855> 263 30<87.5393 175.888> 376 34<585.59 670.801> 471 33<109.143 197.483> 631 52<119.111 220.497>
VStem: 42 27<353.375 383> 218 91<336.642 458.563> 229 81<546.801 622.031> 459 56<38.7426 142.626> 501 65<266.021 343.21> 652 70<62.5527 145.687> 685 55<272.359 365.898>
LayerCount: 2
Fore
SplineSet
215 0 m 1x7e
 146 0 l 1
 585 683 l 1
 654 683 l 1
 215 0 l 1x7e
554 197 m 1
 551 199 l 2
 516 221 501 246 501 280 c 0
 501 346 572 410 645 410 c 0
 703 410 740 379 740 331 c 0xbe28
 740 296 722 268 683 242 c 2
 655 224 l 1
 659 222 l 2
 703 197 722 169 722 132 c 0
 722 92 705 58 670 31 c 0
 636 4 600 -10 564 -10 c 0
 501 -10 459 26 459 80 c 0xbe50
 459 125 484 158 539 189 c 2
 554 197 l 1
586 177 m 2
 577 182 l 1
 532 152 515 126 515 88 c 0
 515 49 541 24 579 24 c 0
 620 24 652 55 652 95 c 0xbe50
 652 129 630 156 586 177 c 2
631 237 m 1
 673 269 685 288 685 318 c 0
 685 354 664 376 629 376 c 0
 592 376 566 349 566 311 c 0x3e28
 566 281 581 265 631 237 c 1
23 288 m 1
 42 384 l 1
 70 383 l 2
 70 381 70 381 69 377 c 0
 68 369 67 361 67 353 c 0
 67 317 93 293 132 293 c 0
 181 293 218 338 218 398 c 0x3f
 218 447 198 471 156 471 c 0
 141 471 132 469 107 462 c 1
 98 469 l 1
 111 506 l 1
 117 504 122 504 133 504 c 0
 161 504 176 507 191 516 c 0
 215 530 229 555 229 582 c 0
 229 612 207 631 171 631 c 0
 137 631 116 615 94 572 c 1
 66 586 l 1
 107 655 l 1
 136 675 163 683 202 683 c 0
 269 683 310 652 310 602 c 0x3e80
 310 557 277 523 205 497 c 1
 276 489 309 460 309 406 c 0x3f
 309 325 230 263 129 263 c 0
 91 263 64 269 23 288 c 1
EndSplineSet
Ligature2: "'frac' Diagonal Fractions lookup 12 subtable" threesuperior fraction eightsuperior
Ligature2: "'frac' Diagonal Fractions lookup 12 subtable" threesuperior slash eightsuperior
Ligature2: "'frac' Diagonal Fractions lookup 12 subtable" three fraction eight
Ligature2: "'frac' Diagonal Fractions lookup 12 subtable" three slash eight
EndChar

StartChar: fiveeighths
Encoding: 625 8541 235
Width: 760
Flags: W
HStem: -10 34<533.651 625.885> 0 21G<176 257.855> 261 28<67.2182 147.968> 376 34<586.317 671.102> 485 39<91.8704 177.882> 605 67<107 263> 663 20G<602.145 684>
VStem: 22 24<359.281 380.167> 194 83<341.499 470.803> 459 56<38.7426 142.451> 502 65<266.135 343.21> 652 70<62.7739 147.118> 685 55<272.79 365.898>
LayerCount: 2
Fore
SplineSet
245 0 m 1x7b80
 176 0 l 1
 615 683 l 1
 684 683 l 1
 245 0 l 1x7b80
555 197 m 1
 551 199 l 1
 518 220 502 246 502 280 c 0
 502 346 573 410 646 410 c 0
 703 410 740 379 740 331 c 0xb9a8
 740 296 722 268 683 242 c 2
 656 224 l 1
 659 222 l 2
 703 197 722 169 722 132 c 0
 722 92 705 59 670 31 c 0
 636 4 600 -10 564 -10 c 0
 501 -10 459 26 459 80 c 0xb9d0
 459 124 484 158 539 189 c 2
 555 197 l 1
587 177 m 2
 578 182 l 1
 533 152 515 126 515 88 c 0
 515 49 541 24 579 24 c 0
 620 24 652 55 652 95 c 0xb9d0
 652 129 630 156 587 177 c 2
632 237 m 1
 673 269 685 287 685 318 c 0
 685 354 664 376 629 376 c 0
 592 376 567 349 567 311 c 0x39a8
 567 282 582 265 632 237 c 1
69 449 m 1
 45 458 l 1
 64 551 69 579 84 669 c 1
 89 676 l 1
 138 673 171 672 230 672 c 2
 287 672 l 1
 293 664 l 1
 263 607 l 1
 213 606 196 605 166 605 c 2
 107 605 l 1x3d80
 84 499 l 1
 108 517 130 524 162 524 c 0
 233 524 277 484 277 419 c 0
 277 330 203 261 107 261 c 0
 66 261 40 268 5 291 c 1
 12 317 16 343 22 383 c 1
 46 379 l 1
 45 370 44 365 44 359 c 0
 44 317 69 289 108 289 c 0
 138 289 161 305 177 339 c 0
 188 362 194 390 194 415 c 0
 194 459 171 485 132 485 c 0
 105 485 92 477 69 449 c 1
EndSplineSet
Ligature2: "'frac' Diagonal Fractions lookup 13 subtable" fivesuperior fraction eightsuperior
Ligature2: "'frac' Diagonal Fractions lookup 13 subtable" fivesuperior slash eightsuperior
Ligature2: "'frac' Diagonal Fractions lookup 13 subtable" five fraction eight
Ligature2: "'frac' Diagonal Fractions lookup 13 subtable" five slash eight
EndChar

